<?xml version="1.0" encoding="UTF-8"?>
<!DOCTYPE svg PUBLIC "-//W3C//DTD SVG 1.1//EN" "http://www.w3.org/Graphics/SVG/1.1/DTD/svg11.dtd">
<!-- Creator: CorelDRAW X6 -->
<svg xmlns="http://www.w3.org/2000/svg" xml:space="preserve" width="28.6676mm" height="28.7596mm" version="1.1" style="shape-rendering:geometricPrecision; text-rendering:geometricPrecision; image-rendering:optimizeQuality; fill-rule:evenodd; clip-rule:evenodd"
viewBox="0 0 349 350"
 xmlns:xlink="http://www.w3.org/1999/xlink">
 <defs>
  <style type="text/css">
   <![CDATA[
    .str0 {stroke:#382246;stroke-width:18.2558}
    .fil0 {fill:#FEFEFE}
    .fil1 {fill:#382246;fill-rule:nonzero}
   ]]>
  </style>
 </defs>
 <g id="Слой_x0020_1">
  <metadata id="CorelCorpID_0Corel-Layer"/>
  <path class="fil0 str0" d="M175 42c73,0 133,59 133,133 0,73 -59,133 -133,133 -73,0 -133,-59 -133,-133 0,-73 59,-133 133,-133z"/>
  <g>
   <polygon class="fil1" points="163,67 163,0 187,0 187,67 "/>
  </g>
  <g>
   <polygon class="fil1" points="162,350 162,283 187,283 187,350 "/>
  </g>
  <g>
   <polygon class="fil1" points="67,186 0,186 0,162 67,162 "/>
  </g>
  <g>
   <polygon class="fil1" points="349,186 282,186 282,162 349,162 "/>
  </g>
  <g>
   <polygon class="fil1" points="349,186 313,186 313,162 349,162 "/>
  </g>
 </g>
</svg>
