<?xml version="1.0" standalone="no"?>
<!DOCTYPE svg PUBLIC "-//W3C//DTD SVG 20010904//EN"
 "http://www.w3.org/TR/2001/REC-SVG-20010904/DTD/svg10.dtd">
<svg version="1.0" xmlns="http://www.w3.org/2000/svg"
 width="968.000000pt" height="968.000000pt" viewBox="0 0 968.000000 968.000000"
 preserveAspectRatio="xMidYMid meet">
<metadata>
Created by potrace 1.11, written by Peter Selinger 2001-2013
</metadata>
<g transform="translate(0.000000,968.000000) scale(0.100000,-0.100000)"
fill="#000000" stroke="none">
<path d="M4739 9678 c-1 -2 -3 -224 -3 -495 -1 -271 -5 -495 -8 -498 -3 -3
-45 -8 -94 -10 -107 -6 -175 -12 -235 -20 -24 -3 -60 -8 -79 -10 -43 -5 -90
-13 -156 -26 -28 -5 -64 -12 -80 -14 -16 -3 -40 -8 -54 -11 -50 -12 -65 -15
-90 -20 -14 -3 -40 -9 -58 -15 -18 -6 -39 -12 -45 -13 -33 -7 -80 -21 -162
-48 -49 -16 -94 -31 -100 -32 -9 -1 -43 -14 -100 -36 -99 -38 -155 -62 -278
-119 -37 -17 -70 -30 -73 -30 -4 0 -10 -4 -13 -9 -3 -5 -26 -19 -51 -30 -25
-12 -72 -37 -105 -57 -33 -19 -79 -45 -102 -56 -24 -12 -43 -25 -43 -30 0 -5
-5 -9 -10 -9 -6 0 -52 -28 -102 -62 -126 -87 -133 -92 -136 -100 -2 -5 -10 -8
-17 -8 -7 0 -15 -4 -17 -8 -1 -4 -37 -34 -78 -67 -82 -65 -91 -72 -199 -172
-101 -92 -211 -204 -280 -283 -31 -36 -65 -74 -76 -85 -33 -33 -218 -283 -278
-375 -61 -95 -174 -298 -226 -405 -77 -159 -137 -303 -133 -317 1 -5 -3 -8 -8
-8 -6 0 -10 -10 -10 -23 0 -13 -3 -27 -7 -31 -5 -4 -8 -11 -9 -14 0 -4 -4 -15
-8 -24 -4 -9 -9 -22 -10 -30 -2 -7 -6 -22 -10 -33 -21 -54 -65 -208 -82 -285
-11 -48 -11 -50 -13 -52 -2 -2 -4 -14 -6 -28 -6 -32 -13 -64 -15 -67 -2 -2 -3
-11 -4 -20 -2 -19 -16 -95 -23 -128 -4 -21 -8 -44 -19 -130 -3 -27 -8 -57 -9
-66 -5 -28 -18 -213 -17 -246 0 -19 -4 -33 -11 -34 -7 -1 -228 -2 -492 -2
l-480 -2 -3 -117 -3 -118 506 0 505 0 1 -77 c1 -98 5 -137 24 -303 4 -39 17
-123 22 -145 2 -11 6 -33 8 -50 1 -16 4 -30 5 -30 1 0 3 -11 6 -25 5 -34 17
-93 20 -105 5 -19 15 -60 20 -85 3 -14 12 -48 20 -76 8 -28 16 -60 18 -70 8
-40 97 -294 136 -389 23 -55 47 -113 53 -130 7 -16 18 -36 24 -43 7 -7 13 -18
13 -24 0 -14 31 -80 46 -98 7 -8 13 -19 13 -23 0 -4 20 -43 45 -87 25 -43 46
-81 46 -84 0 -5 57 -97 90 -146 15 -22 48 -72 62 -95 7 -11 15 -22 19 -25 3
-3 21 -27 40 -55 18 -27 36 -52 39 -55 3 -3 32 -39 65 -80 33 -41 72 -88 87
-105 15 -16 41 -46 59 -65 99 -111 249 -258 363 -355 33 -27 64 -54 70 -60 6
-5 38 -30 71 -55 33 -25 69 -53 79 -62 11 -10 23 -18 28 -18 4 0 17 -8 27 -18
33 -29 50 -42 56 -42 4 0 21 -11 38 -24 51 -39 210 -132 320 -189 56 -28 104
-55 105 -59 2 -5 8 -8 14 -8 6 0 34 -11 62 -24 135 -63 266 -117 266 -110 0 3
12 -2 28 -10 22 -12 143 -55 175 -62 4 -1 8 -2 10 -4 1 -1 9 -3 17 -5 8 -1 49
-13 90 -25 41 -13 85 -24 97 -25 11 -2 30 -6 41 -9 42 -14 294 -63 353 -70 24
-2 44 -5 44 -6 0 -3 161 -18 279 -25 44 -3 81 -7 83 -8 1 -2 3 -229 3 -505 l1
-502 118 0 119 0 0 511 c0 281 2 512 3 514 2 1 58 6 124 9 128 7 192 13 240
22 17 3 47 6 68 7 20 1 37 4 37 7 0 3 15 5 33 5 17 0 39 2 47 6 8 4 33 9 55
13 83 12 111 18 128 27 9 5 17 8 17 5 0 -3 48 9 108 25 59 16 116 32 127 34
11 3 53 16 93 30 39 14 80 26 89 28 10 1 23 6 29 10 6 3 47 20 90 36 44 16
104 41 136 55 109 49 233 108 238 115 3 3 37 22 75 41 39 19 72 37 75 40 3 3
25 16 49 29 49 27 253 160 261 170 3 4 21 18 40 31 169 117 450 375 615 565
33 38 68 79 78 90 10 11 39 48 65 82 25 35 49 63 54 63 4 0 8 5 8 12 0 6 10
22 21 34 12 13 27 32 33 43 6 10 27 43 47 72 50 75 109 168 109 174 0 3 10 22
23 43 43 68 87 153 87 168 0 8 4 14 8 14 9 0 58 102 112 230 27 65 42 101 45
110 1 3 4 12 8 20 36 91 115 342 133 421 3 13 6 29 8 34 2 6 7 28 11 50 12 55
12 55 14 58 2 1 4 13 7 27 2 14 8 48 14 75 5 28 12 68 15 90 3 22 7 47 10 55
2 8 7 42 11 75 3 33 8 71 10 85 4 29 17 222 17 263 l1 27 488 0 488 0 0 118 0
118 -487 -1 c-269 0 -493 1 -499 3 -7 2 -12 32 -13 75 -1 40 -3 83 -5 97 -3
14 -7 59 -11 100 -4 41 -9 89 -12 105 -2 17 -6 46 -8 65 -2 19 -4 35 -5 35 -2
0 -9 35 -15 75 -3 19 -7 46 -10 60 -4 14 -8 36 -11 50 -2 14 -6 34 -9 45 -2
11 -5 23 -5 27 -1 4 -6 22 -11 40 -6 18 -12 44 -15 58 -2 14 -14 54 -24 90
-11 36 -25 83 -31 105 -6 22 -14 47 -17 55 -3 8 -6 17 -7 20 -1 3 -7 18 -14
34 -6 16 -13 36 -15 45 -2 9 -9 30 -16 46 -6 17 -23 58 -36 92 -13 35 -28 71
-33 80 -18 33 -100 208 -110 236 -6 15 -14 27 -19 27 -5 0 -9 6 -9 13 0 6 -17
41 -37 75 -20 35 -36 68 -36 73 0 5 -4 9 -10 9 -5 0 -10 5 -10 11 0 6 -14 30
-30 54 -17 24 -30 48 -30 54 0 6 -4 11 -10 11 -5 0 -10 6 -10 14 0 8 -3 16 -7
18 -5 2 -28 32 -53 68 -24 36 -48 67 -52 68 -4 2 -8 8 -8 13 0 9 -58 84 -133
173 -23 27 -50 59 -61 71 -10 13 -52 59 -92 102 -41 43 -74 82 -74 86 0 5 -4
6 -8 3 -5 -3 -15 6 -22 19 -7 14 -16 25 -20 25 -3 0 -26 19 -51 43 -118 110
-179 163 -244 212 -47 35 -72 55 -90 73 -8 6 -18 12 -23 12 -6 0 -12 4 -14 8
-1 5 -50 41 -108 80 -58 39 -110 76 -116 81 -7 5 -15 7 -18 4 -3 -4 -6 -1 -6
5 0 7 -4 12 -9 12 -5 0 -51 24 -102 53 -133 75 -257 137 -379 189 -135 58
-144 61 -152 60 -5 -1 -8 2 -8 6 0 5 -6 9 -12 9 -7 0 -67 19 -133 41 -66 23
-147 48 -180 57 -33 9 -64 17 -70 19 -22 6 -61 16 -85 21 -22 4 -62 13 -140
30 -14 3 -41 8 -60 11 -19 3 -46 7 -60 10 -14 2 -38 6 -55 8 -16 2 -46 6 -65
9 -92 16 -244 30 -327 30 l-43 0 -1 41 c0 22 -1 245 -1 494 l0 452 -114 0
c-63 0 -115 -1 -115 -2z"/>
</g>
</svg>
