<?xml version="1.0" encoding="UTF-8"?>
<!DOCTYPE svg PUBLIC "-//W3C//DTD SVG 1.1//EN" "http://www.w3.org/Graphics/SVG/1.1/DTD/svg11.dtd">
<!-- Creator: CorelDRAW X6 -->
<svg xmlns="http://www.w3.org/2000/svg" xml:space="preserve" width="108.87mm" height="25.0804mm" version="1.1" style="shape-rendering:geometricPrecision; text-rendering:geometricPrecision; image-rendering:optimizeQuality; fill-rule:evenodd; clip-rule:evenodd"
viewBox="0 0 24826 5719"
 xmlns:xlink="http://www.w3.org/1999/xlink">
 <defs>
  <style type="text/css">
   <![CDATA[
    .str0 {stroke:#382246;stroke-width:228.039}
    .fil2 {fill:#382246}
    .fil4 {fill:#EEEFEA}
    .fil0 {fill:#FEFEFE;fill-rule:nonzero}
    .fil3 {fill:#382246;fill-rule:nonzero}
    .fil1 {fill:#EEEFEA;fill-rule:nonzero}
   ]]>
  </style>
 </defs>
 <g id="Слой_x0020_1">
  <metadata id="CorelCorpID_0Corel-Layer"/>
  <path class="fil0 str0" d="M6637 3420l0 -1119c0,-23 8,-43 24,-60 16,-17 36,-25 59,-25l1166 0c23,0 43,8 59,25 17,17 25,37 25,60l0 1119c0,23 -9,43 -25,59 -17,17 -37,25 -61,25l-167 0c-23,0 -43,-8 -60,-25 -17,-16 -25,-36 -25,-59l0 -950 -657 0 0 950c0,23 -8,43 -25,59 -16,17 -36,25 -59,25l-169 0c-23,0 -43,-8 -60,-25 -17,-16 -25,-36 -25,-59zm1485 2l226 -855c61,-233 260,-349 596,-350l484 0c22,0 40,8 55,25 15,17 22,36 22,58l0 1122c0,23 -8,43 -25,59 -17,16 -37,24 -60,24l-169 0c-25,0 -45,-8 -60,-24 -16,-16 -24,-36 -24,-60l0 -227 -636 0 -60 227c-6,25 -20,44 -41,60 -21,16 -43,24 -67,24l-177 0c-23,0 -41,-8 -53,-24 -8,-11 -13,-23 -13,-37 0,-7 1,-14 2,-22zm477 -482l568 0 0 -469 -255 0c-57,0 -107,16 -150,49 -43,33 -71,77 -86,132l-77 288zm1165 481l0 -1119c0,-23 8,-43 24,-60 16,-17 36,-25 59,-25l685 0c362,0 543,167 543,501 0,334 -181,501 -543,501l-430 0 0 202c0,23 -8,44 -25,60 -16,17 -36,25 -59,25l-169 0c-23,0 -43,-8 -60,-25 -17,-16 -25,-36 -25,-59zm339 -457l328 0c101,0 177,-17 229,-51 52,-34 78,-99 78,-196 0,-97 -26,-162 -78,-196 -52,-34 -128,-51 -229,-51l-328 0 0 493zm977 458l226 -855c61,-233 260,-349 596,-350l484 0c22,0 40,8 55,25 15,17 22,36 22,58l0 1122c0,23 -8,43 -25,59 -17,16 -37,24 -60,24l-169 0c-25,0 -45,-8 -60,-24 -16,-16 -24,-36 -24,-60l0 -227 -636 0 -60 227c-6,25 -20,44 -41,60 -21,16 -43,24 -67,24l-177 0c-23,0 -41,-8 -53,-24 -8,-11 -13,-23 -13,-37 0,-7 1,-14 2,-22zm477 -482l568 0 0 -469 -255 0c-57,0 -107,16 -150,49 -43,33 -71,77 -86,132l-77 288zm1082 213c0,-35 10,-61 32,-76 21,-16 41,-23 61,-23l106 0c55,0 98,33 129,99 15,32 40,57 75,76 36,19 75,29 118,29l281 0c65,0 114,-10 147,-31 32,-21 48,-56 48,-107 0,-50 -16,-86 -48,-107 -33,-21 -81,-31 -147,-31l-232 0c-24,0 -44,-8 -60,-25 -17,-16 -25,-36 -25,-60l0 -74c0,-22 8,-42 24,-59 16,-17 35,-26 57,-26l202 0c72,0 125,-11 159,-33 34,-21 51,-57 51,-105 0,-49 -17,-84 -51,-106 -34,-22 -87,-32 -159,-32l-218 0c-97,0 -164,37 -201,110 -27,56 -67,85 -121,85l-107 0c-11,0 -22,-2 -35,-6 -12,-4 -25,-14 -38,-31 -13,-17 -19,-37 -19,-62 0,-102 52,-186 155,-251 103,-66 215,-98 335,-98l276 0c349,0 523,131 523,393 0,109 -41,195 -124,258 95,59 142,145 142,259 0,138 -43,238 -130,300 -86,61 -211,92 -373,92l-344 0c-122,0 -234,-33 -336,-100 -102,-67 -154,-153 -154,-259zm1520 267l0 -1119c0,-25 8,-45 25,-61 17,-16 38,-24 63,-24l163 0c24,0 44,8 62,24 17,16 25,36 25,59l0 899 516 -897c14,-23 33,-43 57,-60 24,-17 47,-25 67,-25l267 0c24,0 44,8 60,25 16,17 25,37 25,60l0 1119c0,23 -9,43 -26,59 -17,17 -38,25 -62,25l-163 0c-24,0 -44,-8 -62,-25 -17,-16 -25,-36 -25,-59l0 -834 -473 834c-14,23 -33,43 -59,59 -25,17 -50,25 -74,25l-300 0c-24,0 -44,-8 -61,-25 -17,-16 -25,-36 -25,-59zm1456 -1034l0 -84c0,-25 8,-45 24,-61 16,-16 36,-24 61,-24l1140 0c25,0 45,8 61,24 16,16 24,37 24,61l0 84c0,25 -8,45 -24,60 -16,16 -37,24 -61,24l-401 0 0 951c0,24 -8,43 -25,59 -16,16 -36,24 -59,24l-170 0c-23,0 -43,-8 -59,-24 -17,-16 -25,-35 -25,-59l0 -951 -401 0c-25,0 -45,-8 -61,-24 -16,-16 -24,-36 -24,-60zm1513 985c-123,-107 -184,-278 -184,-511 0,-233 61,-403 184,-511 123,-107 303,-161 539,-161 237,0 417,54 539,161 122,107 184,278 184,511 0,233 -61,403 -184,511 -122,107 -302,161 -539,161 -237,0 -416,-54 -539,-161zm246 -831c-61,72 -91,179 -91,321 0,142 30,249 91,321 61,71 159,107 294,107 135,0 233,-36 293,-107 60,-72 91,-179 91,-321 0,-142 -30,-249 -91,-321 -60,-72 -158,-108 -293,-108 -135,0 -233,36 -294,108zm1200 -238c0,-23 8,-43 25,-60 17,-17 37,-25 60,-25l730 0c82,0 157,11 224,34 67,23 125,62 172,119 47,57 71,127 71,210 0,92 -40,171 -121,236 116,62 173,162 173,300 0,124 -46,219 -138,287 -92,68 -205,102 -338,102l-773 0c-23,0 -43,-8 -60,-25 -17,-16 -25,-36 -25,-59l0 -1119zm339 960l514 0c47,0 82,-14 106,-41 24,-28 37,-65 37,-113 0,-48 -12,-86 -37,-113 -25,-28 -60,-41 -106,-41l-514 0 0 309zm0 -552l481 0c38,0 68,-11 91,-33 23,-22 34,-52 34,-92 0,-39 -11,-70 -34,-92 -23,-22 -53,-33 -91,-33l-481 0 0 250zm1124 683l0 -57c0,-40 10,-70 30,-91 20,-21 49,-31 86,-31l106 0c38,0 67,10 86,31 20,21 30,51 30,91l0 57c0,38 -10,67 -30,89 -20,21 -49,32 -86,32l-106 0c-38,0 -67,-11 -86,-32 -20,-22 -30,-51 -30,-89zm556 28l0 -1119c0,-23 8,-43 25,-60 17,-17 37,-25 62,-25l167 0c23,0 43,8 59,25 17,17 25,37 25,60l0 404 618 0 0 -404c0,-23 8,-43 25,-60 17,-17 37,-25 60,-25l167 0c25,0 45,8 61,25 17,17 25,37 25,60l0 1119c0,23 -9,43 -25,59 -17,17 -37,25 -61,25l-167 0c-23,0 -43,-8 -60,-24 -17,-16 -25,-35 -25,-59l0 -462 -618 0 0 462c0,24 -8,43 -25,59 -16,16 -36,24 -59,24l-167 0c-23,0 -44,-8 -61,-25 -17,-16 -26,-36 -26,-59zm1553 -2l0 -1118c0,-23 8,-43 25,-59 17,-16 37,-24 60,-24l1035 0c24,0 44,8 60,25 17,17 25,37 25,60l0 84c0,23 -8,43 -25,60 -16,16 -36,25 -60,25l-782 0 0 261 674 0c23,0 43,8 59,25 17,17 25,36 25,60l0 85c0,23 -8,43 -25,60 -16,17 -36,25 -59,25l-674 0 0 265 781 0c23,0 43,8 59,24 16,16 24,36 24,59l0 86c0,23 -8,43 -25,60 -17,16 -37,25 -60,25l-1031 0c-23,0 -43,-8 -60,-25 -17,-16 -25,-37 -25,-61zm1260 -1032l0 -84c0,-25 8,-45 24,-61 16,-16 37,-24 61,-24l1140 0c25,0 45,8 61,24 16,16 24,37 24,61l0 84c0,25 -8,45 -24,60 -16,16 -37,24 -61,24l-401 0 0 951c0,24 -8,43 -25,59 -16,16 -36,24 -59,24l-170 0c-23,0 -43,-8 -59,-24 -17,-16 -25,-35 -25,-59l0 -951 -401 0c-25,0 -45,-8 -61,-24 -16,-16 -24,-36 -24,-60z"/>
  <path class="fil1" d="M6637 3420l0 -1119c0,-23 8,-43 24,-60 16,-17 36,-25 59,-25l1166 0c23,0 43,8 59,25 17,17 25,37 25,60l0 1119c0,23 -9,43 -25,59 -17,17 -37,25 -61,25l-167 0c-23,0 -43,-8 -60,-25 -17,-16 -25,-36 -25,-59l0 -950 -657 0 0 950c0,23 -8,43 -25,59 -16,17 -36,25 -59,25l-169 0c-23,0 -43,-8 -60,-25 -17,-16 -25,-36 -25,-59zm1485 2l226 -855c61,-233 260,-349 596,-350l484 0c22,0 40,8 55,25 15,17 22,36 22,58l0 1122c0,23 -8,43 -25,59 -17,16 -37,24 -60,24l-169 0c-25,0 -45,-8 -60,-24 -16,-16 -24,-36 -24,-60l0 -227 -636 0 -60 227c-6,25 -20,44 -41,60 -21,16 -43,24 -67,24l-177 0c-23,0 -41,-8 -53,-24 -8,-11 -13,-23 -13,-37 0,-7 1,-14 2,-22zm477 -482l568 0 0 -469 -255 0c-57,0 -107,16 -150,49 -43,33 -71,77 -86,132l-77 288zm1165 481l0 -1119c0,-23 8,-43 24,-60 16,-17 36,-25 59,-25l685 0c362,0 543,167 543,501 0,334 -181,501 -543,501l-430 0 0 202c0,23 -8,44 -25,60 -16,17 -36,25 -59,25l-169 0c-23,0 -43,-8 -60,-25 -17,-16 -25,-36 -25,-59zm339 -457l328 0c101,0 177,-17 229,-51 52,-34 78,-99 78,-196 0,-97 -26,-162 -78,-196 -52,-34 -128,-51 -229,-51l-328 0 0 493zm977 458l226 -855c61,-233 260,-349 596,-350l484 0c22,0 40,8 55,25 15,17 22,36 22,58l0 1122c0,23 -8,43 -25,59 -17,16 -37,24 -60,24l-169 0c-25,0 -45,-8 -60,-24 -16,-16 -24,-36 -24,-60l0 -227 -636 0 -60 227c-6,25 -20,44 -41,60 -21,16 -43,24 -67,24l-177 0c-23,0 -41,-8 -53,-24 -8,-11 -13,-23 -13,-37 0,-7 1,-14 2,-22zm477 -482l568 0 0 -469 -255 0c-57,0 -107,16 -150,49 -43,33 -71,77 -86,132l-77 288zm1082 213c0,-35 10,-61 32,-76 21,-16 41,-23 61,-23l106 0c55,0 98,33 129,99 15,32 40,57 75,76 36,19 75,29 118,29l281 0c65,0 114,-10 147,-31 32,-21 48,-56 48,-107 0,-50 -16,-86 -48,-107 -33,-21 -81,-31 -147,-31l-232 0c-24,0 -44,-8 -60,-25 -17,-16 -25,-36 -25,-60l0 -74c0,-22 8,-42 24,-59 16,-17 35,-26 57,-26l202 0c72,0 125,-11 159,-33 34,-21 51,-57 51,-105 0,-49 -17,-84 -51,-106 -34,-22 -87,-32 -159,-32l-218 0c-97,0 -164,37 -201,110 -27,56 -67,85 -121,85l-107 0c-11,0 -22,-2 -35,-6 -12,-4 -25,-14 -38,-31 -13,-17 -19,-37 -19,-62 0,-102 52,-186 155,-251 103,-66 215,-98 335,-98l276 0c349,0 523,131 523,393 0,109 -41,195 -124,258 95,59 142,145 142,259 0,138 -43,238 -130,300 -86,61 -211,92 -373,92l-344 0c-122,0 -234,-33 -336,-100 -102,-67 -154,-153 -154,-259zm1520 267l0 -1119c0,-25 8,-45 25,-61 17,-16 38,-24 63,-24l163 0c24,0 44,8 62,24 17,16 25,36 25,59l0 899 516 -897c14,-23 33,-43 57,-60 24,-17 47,-25 67,-25l267 0c24,0 44,8 60,25 16,17 25,37 25,60l0 1119c0,23 -9,43 -26,59 -17,17 -38,25 -62,25l-163 0c-24,0 -44,-8 -62,-25 -17,-16 -25,-36 -25,-59l0 -834 -473 834c-14,23 -33,43 -59,59 -25,17 -50,25 -74,25l-300 0c-24,0 -44,-8 -61,-25 -17,-16 -25,-36 -25,-59zm1456 -1034l0 -84c0,-25 8,-45 24,-61 16,-16 36,-24 61,-24l1140 0c25,0 45,8 61,24 16,16 24,37 24,61l0 84c0,25 -8,45 -24,60 -16,16 -37,24 -61,24l-401 0 0 951c0,24 -8,43 -25,59 -16,16 -36,24 -59,24l-170 0c-23,0 -43,-8 -59,-24 -17,-16 -25,-35 -25,-59l0 -951 -401 0c-25,0 -45,-8 -61,-24 -16,-16 -24,-36 -24,-60zm1513 985c-123,-107 -184,-278 -184,-511 0,-233 61,-403 184,-511 123,-107 303,-161 539,-161 237,0 417,54 539,161 122,107 184,278 184,511 0,233 -61,403 -184,511 -122,107 -302,161 -539,161 -237,0 -416,-54 -539,-161zm246 -831c-61,72 -91,179 -91,321 0,142 30,249 91,321 61,71 159,107 294,107 135,0 233,-36 293,-107 60,-72 91,-179 91,-321 0,-142 -30,-249 -91,-321 -60,-72 -158,-108 -293,-108 -135,0 -233,36 -294,108zm1200 -238c0,-23 8,-43 25,-60 17,-17 37,-25 60,-25l730 0c82,0 157,11 224,34 67,23 125,62 172,119 47,57 71,127 71,210 0,92 -40,171 -121,236 116,62 173,162 173,300 0,124 -46,219 -138,287 -92,68 -205,102 -338,102l-773 0c-23,0 -43,-8 -60,-25 -17,-16 -25,-36 -25,-59l0 -1119zm339 960l514 0c47,0 82,-14 106,-41 24,-28 37,-65 37,-113 0,-48 -12,-86 -37,-113 -25,-28 -60,-41 -106,-41l-514 0 0 309zm0 -552l481 0c38,0 68,-11 91,-33 23,-22 34,-52 34,-92 0,-39 -11,-70 -34,-92 -23,-22 -53,-33 -91,-33l-481 0 0 250zm1124 683l0 -57c0,-40 10,-70 30,-91 20,-21 49,-31 86,-31l106 0c38,0 67,10 86,31 20,21 30,51 30,91l0 57c0,38 -10,67 -30,89 -20,21 -49,32 -86,32l-106 0c-38,0 -67,-11 -86,-32 -20,-22 -30,-51 -30,-89zm556 28l0 -1119c0,-23 8,-43 25,-60 17,-17 37,-25 62,-25l167 0c23,0 43,8 59,25 17,17 25,37 25,60l0 404 618 0 0 -404c0,-23 8,-43 25,-60 17,-17 37,-25 60,-25l167 0c25,0 45,8 61,25 17,17 25,37 25,60l0 1119c0,23 -9,43 -25,59 -17,17 -37,25 -61,25l-167 0c-23,0 -43,-8 -60,-24 -17,-16 -25,-35 -25,-59l0 -462 -618 0 0 462c0,24 -8,43 -25,59 -16,16 -36,24 -59,24l-167 0c-23,0 -44,-8 -61,-25 -17,-16 -26,-36 -26,-59zm1553 -2l0 -1118c0,-23 8,-43 25,-59 17,-16 37,-24 60,-24l1035 0c24,0 44,8 60,25 17,17 25,37 25,60l0 84c0,23 -8,43 -25,60 -16,16 -36,25 -60,25l-782 0 0 261 674 0c23,0 43,8 59,25 17,17 25,36 25,60l0 85c0,23 -8,43 -25,60 -16,17 -36,25 -59,25l-674 0 0 265 781 0c23,0 43,8 59,24 16,16 24,36 24,59l0 86c0,23 -8,43 -25,60 -17,16 -37,25 -60,25l-1031 0c-23,0 -43,-8 -60,-25 -17,-16 -25,-37 -25,-61zm1260 -1032l0 -84c0,-25 8,-45 24,-61 16,-16 37,-24 61,-24l1140 0c25,0 45,8 61,24 16,16 24,37 24,61l0 84c0,25 -8,45 -24,60 -16,16 -37,24 -61,24l-401 0 0 951c0,24 -8,43 -25,59 -16,16 -36,24 -59,24l-170 0c-23,0 -43,-8 -59,-24 -17,-16 -25,-35 -25,-59l0 -951 -401 0c-25,0 -45,-8 -61,-24 -16,-16 -24,-36 -24,-60z"/>
  <g>
   <path class="fil2" d="M2854 683c1199,0 2170,972 2170,2170 0,1198 -972,2170 -2170,2170 -1198,0 -2170,-972 -2170,-2170 0,-1199 972,-2170 2170,-2170z"/>
   <path id="1" class="fil3" d="M5123 2853l-199 0 0 0 -3 -107 -8 -105 -13 -104 -18 -102 -23 -100 -28 -98 -33 -96 -37 -94 -41 -92 -46 -89 -50 -87 -54 -84 -58 -81 -61 -78 -65 -75 -69 -72 -72 -69 -75 -65 -78 -61 -81 -58 -84 -54 -87 -50 -89 -46 -92 -41 -94 -37 -96 -33 -98 -28 -100 -23 -102 -18 -104 -13 -105 -8 -107 -3 0 -199 117 3 115 9 114 14 112 20 110 25 108 31 106 36 103 41 101 45 98 50 95 55 92 59 89 63 86 67 82 71 79 75 75 79 71 82 67 86 63 89 59 92 55 95 50 98 45 101 41 103 36 105 31 108 25 110 20 112 14 114 9 115 3 117 0 0zm-2269 2269l0 -199 0 0 107 -3 105 -8 104 -13 102 -18 100 -23 98 -28 96 -33 94 -37 92 -41 89 -46 87 -50 84 -54 81 -58 78 -61 75 -65 72 -69 69 -72 65 -75 61 -78 58 -81 54 -84 50 -87 46 -89 41 -92 37 -94 33 -96 28 -98 23 -100 18 -102 13 -104 8 -105 3 -107 199 0 -3 117 -9 115 -14 114 -20 112 -25 110 -31 108 -36 105 -41 103 -45 101 -50 98 -55 95 -59 92 -63 89 -67 86 -71 82 -75 79 -79 75 -82 71 -86 67 -89 63 -92 59 -95 55 -98 50 -101 45 -103 41 -106 36 -108 31 -110 25 -112 20 -114 14 -115 9 -117 3 0 0zm-2269 -2269l199 0 0 0 3 107 8 105 13 104 18 102 23 100 28 98 33 96 37 94 41 92 46 89 50 87 54 84 58 81 61 78 65 75 69 72 72 69 75 65 78 61 81 58 84 54 87 50 89 46 92 41 94 37 96 33 98 28 100 23 102 18 104 13 105 8 107 3 0 199 -117 -3 -115 -9 -114 -14 -112 -20 -110 -25 -108 -31 -106 -36 -103 -41 -101 -45 -98 -50 -95 -55 -92 -59 -89 -63 -86 -67 -82 -71 -79 -75 -75 -79 -71 -82 -67 -86 -63 -89 -59 -92 -55 -95 -50 -98 -45 -101 -41 -103 -36 -106 -31 -108 -25 -110 -20 -112 -14 -114 -9 -115 -3 -117 0 0zm2269 -2269l0 199 0 0 -107 3 -105 8 -104 13 -102 18 -100 23 -98 28 -96 33 -94 37 -92 41 -89 46 -87 50 -84 54 -81 58 -78 61 -75 65 -72 69 -69 72 -65 75 -61 78 -58 81 -54 84 -50 87 -46 89 -41 92 -37 94 -33 96 -28 98 -23 100 -18 102 -13 104 -8 105 -3 107 -199 0 3 -117 9 -115 14 -114 20 -112 25 -110 31 -108 36 -106 41 -103 45 -101 50 -98 55 -95 59 -92 63 -89 67 -86 71 -82 75 -79 79 -75 82 -71 86 -67 89 -63 92 -59 95 -55 98 -50 101 -45 103 -41 106 -36 108 -31 110 -25 112 -20 114 -14 115 -9 117 -3 0 0z"/>
  </g>
  <g>
   <polygon class="fil3" points="2785,1100 2784,0 2923,0 2924,1100 "/>
  </g>
  <g>
   <polygon class="fil3" points="2784,5719 2783,4620 2922,4619 2923,5719 "/>
  </g>
  <g>
   <polygon class="fil3" points="1100,2912 0,2912 0,2774 1100,2773 "/>
  </g>
  <g>
   <polygon class="fil3" points="5701,2913 4601,2913 4601,2775 5701,2774 "/>
  </g>
  <path class="fil4" d="M2854 2054c-46,-1 -85,1 -182,11l-112 -156 62 -98c-55,34 -85,71 -124,124 39,75 62,104 124,163 -22,57 -28,49 -50,97 -23,50 -26,82 -40,112l-304 -14c-52,-86 -102,-183 -166,-278 -81,-119 -49,-158 7,-322 126,-365 210,-416 283,-586 -181,146 -409,542 -471,901l105 -30 150 305c59,120 33,87 335,126 158,21 104,13 211,93l-144 22 -43 130c-211,-84 -200,-252 -425,-152 -148,66 -303,125 -449,187 -28,-41 -49,-93 -87,-132 -226,422 -329,1013 -277,1509 90,-475 65,-662 288,-1180 73,-169 157,-140 434,-237 95,-33 167,-83 244,-26 55,41 143,105 182,163 -463,186 -292,-206 -651,608l-136 -37c133,448 399,966 655,1130l-72 -119c-149,-225 -314,-545 -391,-822 -33,-120 24,-171 69,-255 205,-378 137,-323 334,-338 101,-8 180,-23 284,-24 8,310 129,743 277,915 49,-67 15,-51 70,-78l6 7 0 0 6 -7c55,27 21,11 70,78 149,-172 270,-605 277,-915 104,1 183,17 284,24 197,15 129,-40 334,338 46,84 103,135 69,255 -77,277 -242,597 -391,822l-72 119c257,-164 522,-682 655,-1130l-136 37c-359,-814 -189,-423 -651,-608 39,-58 127,-123 182,-163 77,-57 149,-7 244,26 277,96 361,67 434,237 223,518 198,705 288,1180 52,-496 -51,-1086 -277,-1509 -38,39 -59,92 -87,132 -146,-62 -301,-121 -449,-187 -225,-100 -213,68 -425,152l-43 -130 -144 -22c107,-80 53,-72 211,-93 303,-39 276,-6 335,-126l150 -305 105 30c-62,-359 -289,-754 -471,-901 73,170 157,220 283,586 56,164 89,202 7,322 -64,94 -114,191 -166,278l-304 14c-14,-30 -17,-62 -40,-112 -22,-48 -28,-39 -50,-97 61,-59 84,-89 124,-163 -38,-53 -69,-90 -124,-124l62 98 -112 156c-97,-10 -136,-13 -182,-11l0 0z"/>
  <g>
   <polygon class="fil1" points="2785,1100 2784,586 2923,586 2924,1100 "/>
  </g>
  <g>
   <polygon class="fil1" points="5701,2913 4601,2913 4601,2775 5701,2774 "/>
  </g>
  <g>
   <polygon class="fil1" points="2784,5115 2783,4620 2922,4620 2923,5115 "/>
  </g>
  <g>
   <polygon class="fil1" points="1100,2912 586,2912 586,2774 1100,2773 "/>
  </g>
  <g>
   <polygon class="fil3" points="5701,2913 5122,2913 5122,2775 5701,2774 "/>
  </g>
 </g>
</svg>
