<?xml version="1.0" encoding="UTF-8"?>
<!DOCTYPE svg PUBLIC "-//W3C//DTD SVG 1.1//EN" "http://www.w3.org/Graphics/SVG/1.1/DTD/svg11.dtd">
<!-- Creator: CorelDRAW X6 -->
<svg xmlns="http://www.w3.org/2000/svg" xml:space="preserve" width="109.57mm" height="26.0836mm" version="1.1" style="shape-rendering:geometricPrecision; text-rendering:geometricPrecision; image-rendering:optimizeQuality; fill-rule:evenodd; clip-rule:evenodd"
viewBox="0 0 25906 6167"
 xmlns:xlink="http://www.w3.org/1999/xlink">
 <defs>
  <style type="text/css">
   <![CDATA[
    .str0 {stroke:#382246;stroke-width:236.439}
    .fil2 {fill:#382246}
    .fil4 {fill:#EEEFEA}
    .fil0 {fill:#FEFEFE;fill-rule:nonzero}
    .fil3 {fill:#382246;fill-rule:nonzero}
    .fil1 {fill:#EEEFEA;fill-rule:nonzero}
   ]]>
  </style>
 </defs>
 <g id="Слой_x0020_1">
  <metadata id="CorelCorpID_0Corel-Layer"/>
  <path class="fil0 str0" d="M7047 3664l0 -1160c0,-24 8,-45 25,-62 17,-17 37,-26 61,-26l1209 0c24,0 45,9 62,26 17,17 26,38 26,62l0 1160c0,24 -9,45 -26,62 -18,17 -39,26 -63,26l-173 0c-24,0 -45,-9 -62,-26 -17,-17 -26,-38 -26,-62l0 -985 -681 0 0 985c0,24 -9,45 -26,62 -17,17 -38,26 -62,26l-175 0c-24,0 -45,-9 -62,-26 -17,-17 -26,-38 -26,-62zm1539 2l234 -887c63,-241 269,-362 618,-363l502 0c23,0 42,9 57,26 15,17 23,38 23,60l0 1164c0,24 -9,45 -26,61 -17,17 -38,25 -62,25l-175 0c-25,0 -46,-8 -63,-25 -17,-16 -25,-37 -25,-63l0 -235 -660 0 -63 235c-6,25 -20,46 -42,63 -22,16 -45,24 -69,24l-184 0c-24,0 -43,-8 -55,-25 -9,-11 -13,-24 -13,-38 0,-7 1,-14 2,-23zm494 -500l589 0 0 -487 -265 0c-59,0 -111,17 -155,51 -44,34 -74,80 -89,137l-80 299zm1207 498l0 -1160c0,-24 8,-45 25,-62 17,-17 37,-26 61,-26l711 0c375,0 563,173 563,519 0,346 -187,519 -563,519l-446 0 0 210c0,24 -9,45 -26,62 -17,17 -38,26 -62,26l-175 0c-24,0 -45,-9 -62,-26 -17,-17 -26,-38 -26,-62zm351 -473l340 0c104,0 183,-17 237,-52 54,-35 81,-103 81,-203 0,-100 -27,-168 -81,-203 -54,-35 -133,-52 -237,-52l-340 0 0 511zm1013 475l234 -887c63,-241 269,-362 618,-363l502 0c23,0 42,9 57,26 15,17 23,38 23,60l0 1164c0,24 -9,45 -26,61 -17,17 -38,25 -62,25l-175 0c-25,0 -46,-8 -63,-25 -17,-16 -25,-37 -25,-63l0 -235 -660 0 -63 235c-6,25 -20,46 -42,63 -22,16 -45,24 -69,24l-184 0c-24,0 -43,-8 -55,-25 -9,-11 -13,-24 -13,-38 0,-7 1,-14 2,-23zm494 -500l589 0 0 -487 -265 0c-59,0 -111,17 -155,51 -44,34 -74,80 -89,137l-80 299zm1122 221c0,-37 11,-63 33,-79 22,-16 43,-24 63,-24l110 0c57,0 102,34 134,103 16,33 42,59 78,79 37,20 78,30 122,30l292 0c68,0 118,-11 152,-32 33,-22 50,-59 50,-111 0,-52 -17,-89 -50,-111 -34,-22 -84,-32 -152,-32l-240 0c-24,0 -45,-9 -62,-26 -17,-17 -26,-38 -26,-62l0 -76c0,-23 8,-44 25,-61 16,-18 36,-27 59,-27l210 0c75,0 130,-11 165,-34 35,-22 52,-59 52,-109 0,-51 -17,-87 -52,-109 -35,-23 -90,-34 -165,-34l-226 0c-100,0 -170,38 -209,114 -28,59 -70,88 -126,88l-111 0c-11,0 -23,-2 -36,-7 -13,-4 -26,-15 -39,-32 -13,-17 -20,-39 -20,-64 0,-106 53,-192 160,-260 107,-68 223,-102 347,-102l286 0c362,0 542,136 542,408 0,113 -43,203 -128,268 98,61 148,150 148,269 0,143 -45,247 -134,311 -90,64 -218,95 -386,95l-356 0c-126,0 -242,-35 -349,-104 -106,-69 -159,-159 -159,-268zm1576 277l0 -1160c0,-25 9,-46 26,-63 17,-17 39,-25 65,-25l169 0c25,0 46,8 64,25 17,17 26,37 26,61l0 932 535 -930c14,-24 34,-45 59,-62 25,-17 48,-26 70,-26l277 0c24,0 45,9 62,26 17,17 25,38 25,62l0 1160c0,24 -9,45 -27,62 -18,17 -39,26 -64,26l-169 0c-25,0 -46,-9 -64,-26 -17,-17 -26,-38 -26,-62l0 -864 -491 864c-14,24 -35,45 -61,62 -26,17 -52,26 -76,26l-311 0c-24,0 -45,-9 -63,-26 -17,-17 -26,-38 -26,-62zm1510 -1072l0 -87c0,-25 8,-46 25,-63 17,-17 38,-25 63,-25l1182 0c25,0 46,8 63,25 17,17 25,38 25,63l0 87c0,25 -8,46 -25,63 -17,17 -38,25 -63,25l-415 0 0 986c0,24 -9,45 -26,61 -17,17 -38,25 -62,25l-176 0c-24,0 -45,-8 -62,-25 -17,-16 -26,-37 -26,-61l0 -986 -415 0c-25,0 -46,-8 -63,-25 -17,-16 -25,-37 -25,-63zm1569 1021c-127,-111 -191,-288 -191,-529 0,-242 64,-418 191,-529 128,-111 314,-167 559,-167 246,0 432,56 559,167 127,111 190,288 190,529 0,242 -64,418 -190,529 -127,111 -313,167 -559,167 -245,0 -432,-56 -559,-167zm255 -862c-63,74 -94,185 -94,333 0,148 31,259 94,333 63,74 165,111 305,111 140,0 242,-37 304,-111 63,-74 94,-185 94,-333 0,-148 -31,-259 -94,-333 -63,-75 -164,-112 -304,-112 -140,0 -241,37 -305,112zm1244 -247c0,-24 9,-45 26,-62 17,-17 38,-26 62,-26l757 0c85,0 162,12 232,35 70,24 129,65 178,123 49,59 73,131 73,218 0,95 -42,177 -126,245 120,64 180,168 179,311 0,128 -48,227 -143,297 -95,70 -212,106 -350,106l-801 0c-24,0 -45,-9 -62,-26 -17,-17 -26,-38 -26,-62l0 -1160zm351 995l533 0c48,0 85,-14 110,-43 25,-29 38,-68 38,-117 0,-50 -13,-89 -38,-117 -25,-29 -62,-43 -110,-43l-533 0 0 321zm0 -572l498 0c39,0 71,-11 94,-34 24,-23 35,-54 35,-95 0,-41 -12,-72 -35,-96 -24,-23 -55,-34 -94,-34l-498 0 0 259zm1165 708l0 -59c0,-41 10,-72 31,-94 21,-22 51,-32 89,-32l110 0c39,0 69,11 90,32 21,22 31,53 31,94l0 59c0,39 -10,70 -31,92 -21,22 -51,33 -90,33l-110 0c-39,0 -69,-11 -90,-33 -21,-23 -31,-53 -31,-92zm576 29l0 -1160c0,-24 9,-45 26,-62 17,-17 39,-26 64,-26l173 0c24,0 45,9 62,26 17,17 26,38 26,62l0 419 641 0 0 -419c0,-24 9,-45 26,-62 17,-17 38,-26 62,-26l173 0c25,0 47,9 64,26 17,17 26,38 26,62l0 1160c0,24 -9,45 -26,62 -18,17 -39,26 -63,26l-173 0c-24,0 -45,-8 -62,-25 -17,-16 -26,-37 -26,-61l0 -479 -641 0 0 479c0,24 -9,45 -26,61 -17,17 -38,25 -62,25l-173 0c-24,0 -45,-9 -63,-26 -18,-17 -27,-38 -27,-62zm1610 -2l0 -1160c0,-24 9,-45 26,-61 17,-17 38,-25 62,-25l1074 0c24,0 45,9 62,26 17,17 26,38 26,62l0 87c0,24 -9,45 -26,62 -17,17 -38,25 -62,25l-811 0 0 271 699 0c24,0 45,9 62,26 17,17 26,38 26,62l0 88c0,24 -9,45 -26,62 -17,17 -38,26 -62,26l-699 0 0 275 809 0c24,0 45,8 61,25 17,17 25,37 25,61l0 89c0,24 -9,45 -26,62 -17,17 -38,25 -62,25l-1069 0c-24,0 -45,-9 -62,-26 -17,-17 -26,-38 -26,-64zm1306 -1070l0 -87c0,-25 8,-46 25,-63 17,-17 38,-25 63,-25l1182 0c25,0 46,8 63,25 17,17 25,38 25,63l0 87c0,25 -8,46 -25,63 -17,17 -38,25 -63,25l-415 0 0 986c0,24 -9,45 -26,61 -17,17 -38,25 -62,25l-176 0c-24,0 -45,-8 -62,-25 -17,-16 -26,-37 -26,-61l0 -986 -415 0c-25,0 -46,-8 -63,-25 -17,-16 -25,-37 -25,-63z"/>
  <path class="fil1" d="M7047 3664l0 -1160c0,-24 8,-45 25,-62 17,-17 37,-26 61,-26l1209 0c24,0 45,9 62,26 17,17 26,38 26,62l0 1160c0,24 -9,45 -26,62 -18,17 -39,26 -63,26l-173 0c-24,0 -45,-9 -62,-26 -17,-17 -26,-38 -26,-62l0 -985 -681 0 0 985c0,24 -9,45 -26,62 -17,17 -38,26 -62,26l-175 0c-24,0 -45,-9 -62,-26 -17,-17 -26,-38 -26,-62zm1539 2l234 -887c63,-241 269,-362 618,-363l502 0c23,0 42,9 57,26 15,17 23,38 23,60l0 1164c0,24 -9,45 -26,61 -17,17 -38,25 -62,25l-175 0c-25,0 -46,-8 -63,-25 -17,-16 -25,-37 -25,-63l0 -235 -660 0 -63 235c-6,25 -20,46 -42,63 -22,16 -45,24 -69,24l-184 0c-24,0 -43,-8 -55,-25 -9,-11 -13,-24 -13,-38 0,-7 1,-14 2,-23zm494 -500l589 0 0 -487 -265 0c-59,0 -111,17 -155,51 -44,34 -74,80 -89,137l-80 299zm1207 498l0 -1160c0,-24 8,-45 25,-62 17,-17 37,-26 61,-26l711 0c375,0 563,173 563,519 0,346 -187,519 -563,519l-446 0 0 210c0,24 -9,45 -26,62 -17,17 -38,26 -62,26l-175 0c-24,0 -45,-9 -62,-26 -17,-17 -26,-38 -26,-62zm351 -473l340 0c104,0 183,-17 237,-52 54,-35 81,-103 81,-203 0,-100 -27,-168 -81,-203 -54,-35 -133,-52 -237,-52l-340 0 0 511zm1013 475l234 -887c63,-241 269,-362 618,-363l502 0c23,0 42,9 57,26 15,17 23,38 23,60l0 1164c0,24 -9,45 -26,61 -17,17 -38,25 -62,25l-175 0c-25,0 -46,-8 -63,-25 -17,-16 -25,-37 -25,-63l0 -235 -660 0 -63 235c-6,25 -20,46 -42,63 -22,16 -45,24 -69,24l-184 0c-24,0 -43,-8 -55,-25 -9,-11 -13,-24 -13,-38 0,-7 1,-14 2,-23zm494 -500l589 0 0 -487 -265 0c-59,0 -111,17 -155,51 -44,34 -74,80 -89,137l-80 299zm1122 221c0,-37 11,-63 33,-79 22,-16 43,-24 63,-24l110 0c57,0 102,34 134,103 16,33 42,59 78,79 37,20 78,30 122,30l292 0c68,0 118,-11 152,-32 33,-22 50,-59 50,-111 0,-52 -17,-89 -50,-111 -34,-22 -84,-32 -152,-32l-240 0c-24,0 -45,-9 -62,-26 -17,-17 -26,-38 -26,-62l0 -76c0,-23 8,-44 25,-61 16,-18 36,-27 59,-27l210 0c75,0 130,-11 165,-34 35,-22 52,-59 52,-109 0,-51 -17,-87 -52,-109 -35,-23 -90,-34 -165,-34l-226 0c-100,0 -170,38 -209,114 -28,59 -70,88 -126,88l-111 0c-11,0 -23,-2 -36,-7 -13,-4 -26,-15 -39,-32 -13,-17 -20,-39 -20,-64 0,-106 53,-192 160,-260 107,-68 223,-102 347,-102l286 0c362,0 542,136 542,408 0,113 -43,203 -128,268 98,61 148,150 148,269 0,143 -45,247 -134,311 -90,64 -218,95 -386,95l-356 0c-126,0 -242,-35 -349,-104 -106,-69 -159,-159 -159,-268zm1576 277l0 -1160c0,-25 9,-46 26,-63 17,-17 39,-25 65,-25l169 0c25,0 46,8 64,25 17,17 26,37 26,61l0 932 535 -930c14,-24 34,-45 59,-62 25,-17 48,-26 70,-26l277 0c24,0 45,9 62,26 17,17 25,38 25,62l0 1160c0,24 -9,45 -27,62 -18,17 -39,26 -64,26l-169 0c-25,0 -46,-9 -64,-26 -17,-17 -26,-38 -26,-62l0 -864 -491 864c-14,24 -35,45 -61,62 -26,17 -52,26 -76,26l-311 0c-24,0 -45,-9 -63,-26 -17,-17 -26,-38 -26,-62zm1510 -1072l0 -87c0,-25 8,-46 25,-63 17,-17 38,-25 63,-25l1182 0c25,0 46,8 63,25 17,17 25,38 25,63l0 87c0,25 -8,46 -25,63 -17,17 -38,25 -63,25l-415 0 0 986c0,24 -9,45 -26,61 -17,17 -38,25 -62,25l-176 0c-24,0 -45,-8 -62,-25 -17,-16 -26,-37 -26,-61l0 -986 -415 0c-25,0 -46,-8 -63,-25 -17,-16 -25,-37 -25,-63zm1569 1021c-127,-111 -191,-288 -191,-529 0,-242 64,-418 191,-529 128,-111 314,-167 559,-167 246,0 432,56 559,167 127,111 190,288 190,529 0,242 -64,418 -190,529 -127,111 -313,167 -559,167 -245,0 -432,-56 -559,-167zm255 -862c-63,74 -94,185 -94,333 0,148 31,259 94,333 63,74 165,111 305,111 140,0 242,-37 304,-111 63,-74 94,-185 94,-333 0,-148 -31,-259 -94,-333 -63,-75 -164,-112 -304,-112 -140,0 -241,37 -305,112zm1244 -247c0,-24 9,-45 26,-62 17,-17 38,-26 62,-26l757 0c85,0 162,12 232,35 70,24 129,65 178,123 49,59 73,131 73,218 0,95 -42,177 -126,245 120,64 180,168 179,311 0,128 -48,227 -143,297 -95,70 -212,106 -350,106l-801 0c-24,0 -45,-9 -62,-26 -17,-17 -26,-38 -26,-62l0 -1160zm351 995l533 0c48,0 85,-14 110,-43 25,-29 38,-68 38,-117 0,-50 -13,-89 -38,-117 -25,-29 -62,-43 -110,-43l-533 0 0 321zm0 -572l498 0c39,0 71,-11 94,-34 24,-23 35,-54 35,-95 0,-41 -12,-72 -35,-96 -24,-23 -55,-34 -94,-34l-498 0 0 259zm1165 708l0 -59c0,-41 10,-72 31,-94 21,-22 51,-32 89,-32l110 0c39,0 69,11 90,32 21,22 31,53 31,94l0 59c0,39 -10,70 -31,92 -21,22 -51,33 -90,33l-110 0c-39,0 -69,-11 -90,-33 -21,-23 -31,-53 -31,-92zm576 29l0 -1160c0,-24 9,-45 26,-62 17,-17 39,-26 64,-26l173 0c24,0 45,9 62,26 17,17 26,38 26,62l0 419 641 0 0 -419c0,-24 9,-45 26,-62 17,-17 38,-26 62,-26l173 0c25,0 47,9 64,26 17,17 26,38 26,62l0 1160c0,24 -9,45 -26,62 -18,17 -39,26 -63,26l-173 0c-24,0 -45,-8 -62,-25 -17,-16 -26,-37 -26,-61l0 -479 -641 0 0 479c0,24 -9,45 -26,61 -17,17 -38,25 -62,25l-173 0c-24,0 -45,-9 -63,-26 -18,-17 -27,-38 -27,-62zm1610 -2l0 -1160c0,-24 9,-45 26,-61 17,-17 38,-25 62,-25l1074 0c24,0 45,9 62,26 17,17 26,38 26,62l0 87c0,24 -9,45 -26,62 -17,17 -38,25 -62,25l-811 0 0 271 699 0c24,0 45,9 62,26 17,17 26,38 26,62l0 88c0,24 -9,45 -26,62 -17,17 -38,26 -62,26l-699 0 0 275 809 0c24,0 45,8 61,25 17,17 25,37 25,61l0 89c0,24 -9,45 -26,62 -17,17 -38,25 -62,25l-1069 0c-24,0 -45,-9 -62,-26 -17,-17 -26,-38 -26,-64zm1306 -1070l0 -87c0,-25 8,-46 25,-63 17,-17 38,-25 63,-25l1182 0c25,0 46,8 63,25 17,17 25,38 25,63l0 87c0,25 -8,46 -25,63 -17,17 -38,25 -63,25l-415 0 0 986c0,24 -9,45 -26,61 -17,17 -38,25 -62,25l-176 0c-24,0 -45,-8 -62,-25 -17,-16 -26,-37 -26,-61l0 -986 -415 0c-25,0 -46,-8 -63,-25 -17,-16 -25,-37 -25,-63z"/>
  <g>
   <path class="fil2" d="M3077 736c1292,0 2340,1048 2340,2340 0,1292 -1048,2340 -2340,2340 -1292,0 -2340,-1048 -2340,-2340 0,-1292 1048,-2340 2340,-2340z"/>
   <path id="1" class="fil3" d="M5524 3076l-214 0 0 0 -3 -115 -9 -113 -14 -112 -20 -110 -25 -108 -30 -106 -35 -104 -40 -101 -45 -99 -49 -96 -54 -94 -58 -91 -62 -88 -66 -84 -70 -81 -74 -78 -78 -74 -81 -70 -84 -66 -88 -62 -91 -58 -93 -54 -96 -49 -99 -45 -101 -40 -104 -35 -106 -30 -108 -25 -110 -20 -112 -14 -113 -9 -115 -3 0 -214 126 3 124 9 122 16 121 22 118 27 116 33 114 38 111 44 108 49 106 54 102 59 99 64 96 68 92 73 89 77 85 81 81 85 77 89 73 92 68 96 64 99 59 102 54 106 49 108 44 111 38 114 33 116 27 118 22 121 16 122 9 124 3 126 0 0zm-2447 2447l0 -214 0 0 115 -3 113 -9 112 -14 110 -20 108 -25 106 -30 104 -35 101 -40 99 -45 96 -49 93 -54 91 -58 88 -62 84 -66 81 -70 78 -74 74 -78 70 -81 66 -84 62 -88 58 -91 54 -94 49 -96 45 -99 40 -101 35 -104 30 -106 25 -108 20 -110 14 -112 9 -113 3 -115 214 0 -3 126 -9 124 -16 122 -22 121 -27 118 -33 116 -38 114 -44 111 -49 108 -54 106 -59 102 -64 99 -68 96 -73 92 -77 89 -81 85 -85 81 -89 77 -92 73 -96 68 -99 64 -102 59 -106 54 -108 49 -111 44 -114 38 -116 33 -118 27 -121 22 -122 16 -124 9 -126 3 0 0zm-2447 -2447l214 0 0 0 3 115 9 113 14 112 20 110 25 108 30 106 35 104 40 101 45 99 49 96 54 93 58 91 62 88 66 84 70 81 74 78 78 74 81 70 84 66 88 62 91 58 93 54 96 49 99 45 101 40 104 35 106 30 108 25 110 20 112 14 113 9 115 3 0 214 -126 -3 -124 -9 -122 -16 -121 -22 -118 -27 -116 -33 -114 -38 -111 -44 -108 -49 -106 -54 -102 -59 -99 -64 -96 -68 -92 -73 -89 -77 -85 -81 -81 -85 -77 -89 -73 -92 -68 -96 -64 -99 -59 -102 -54 -106 -49 -108 -44 -111 -38 -114 -33 -116 -27 -118 -22 -121 -16 -122 -9 -124 -3 -126 0 0zm2447 -2447l0 214 0 0 -115 3 -113 9 -112 14 -110 20 -108 25 -106 30 -104 35 -101 40 -99 45 -96 49 -93 54 -91 58 -88 62 -84 66 -81 70 -78 74 -74 78 -70 81 -66 84 -62 88 -58 91 -54 94 -49 96 -45 99 -40 101 -35 104 -30 106 -25 108 -20 110 -14 112 -9 113 -3 115 -214 0 3 -126 9 -124 16 -122 22 -121 27 -118 33 -116 38 -114 44 -111 49 -108 54 -106 59 -102 64 -99 68 -96 73 -92 77 -89 81 -85 85 -81 89 -77 92 -73 96 -68 99 -64 102 -59 106 -54 108 -49 111 -44 114 -38 116 -33 118 -27 121 -22 122 -16 124 -9 126 -3 0 0z"/>
  </g>
  <g>
   <polygon class="fil3" points="3003,1186 3003,0 3152,0 3153,1186 "/>
  </g>
  <g>
   <polygon class="fil3" points="3002,6167 3001,4981 3151,4981 3152,6167 "/>
  </g>
  <g>
   <polygon class="fil3" points="1186,3140 0,3140 0,2991 1186,2990 "/>
  </g>
  <g>
   <polygon class="fil3" points="6147,3141 4962,3142 4961,2992 6147,2991 "/>
  </g>
  <path class="fil4" d="M3077 2215c-50,-2 -92,1 -197,12l-120 -169 67 -106c-59,36 -92,77 -133,133 42,80 67,112 133,176 -24,62 -30,53 -54,104 -24,54 -28,89 -43,121l-327 -16c-56,-93 -110,-198 -179,-299 -88,-129 -53,-170 8,-347 136,-394 226,-448 305,-632 -196,158 -441,584 -507,971l114 -33 162 329c64,129 35,93 362,136 170,22 112,14 228,100l-155 24 -47 140c-228,-91 -215,-272 -458,-164 -160,71 -327,135 -484,202 -30,-44 -53,-101 -94,-143 -243,455 -354,1092 -299,1627 97,-513 70,-714 311,-1273 79,-183 169,-151 468,-255 102,-35 180,-89 263,-28 59,44 154,114 196,176 -499,200 -315,-222 -702,656l-146 -40c144,483 430,1042 707,1219l-78 -128c-161,-243 -338,-588 -422,-887 -36,-129 26,-184 75,-275 221,-407 148,-348 360,-364 109,-8 194,-25 306,-26 8,334 139,801 299,987 53,-72 16,-55 76,-84l6 8 0 0 6 -8c60,29 23,12 76,84 161,-186 291,-652 299,-987 112,1 197,18 306,26 212,17 139,-43 360,364 49,91 111,145 75,275 -83,299 -261,644 -422,887l-78 128c277,-177 563,-736 707,-1219l-146 40c-387,-878 -203,-456 -702,-656 42,-62 137,-132 196,-176 83,-61 161,-7 263,28 299,104 390,72 468,255 241,559 214,760 311,1273 56,-534 -55,-1171 -299,-1627 -41,42 -64,99 -94,143 -157,-67 -324,-131 -484,-202 -243,-108 -230,73 -458,164l-47 -140 -155 -24c116,-86 58,-78 228,-100 326,-43 298,-7 362,-136l162 -329 113 33c-67,-387 -312,-814 -507,-971 79,183 170,238 305,632 61,176 95,218 8,347 -69,102 -123,206 -179,299l-327 16c-15,-32 -19,-67 -43,-121 -23,-52 -30,-43 -54,-104 66,-64 91,-96 133,-176 -41,-57 -75,-97 -133,-133l67 106 -120 169c-105,-10 -147,-14 -197,-12l0 0z"/>
  <g>
   <polygon class="fil1" points="3003,1186 3003,632 3152,632 3153,1186 "/>
  </g>
  <g>
   <polygon class="fil1" points="6147,3141 4962,3142 4961,2992 6147,2991 "/>
  </g>
  <g>
   <polygon class="fil1" points="3002,5516 3001,4981 3151,4981 3152,5516 "/>
  </g>
  <g>
   <polygon class="fil1" points="1186,3140 632,3140 632,2991 1186,2990 "/>
  </g>
  <g>
   <polygon class="fil3" points="6147,3141 5523,3142 5523,2992 6147,2991 "/>
  </g>
 </g>
</svg>
