<?xml version="1.0" encoding="UTF-8"?>
<!DOCTYPE svg PUBLIC "-//W3C//DTD SVG 1.1//EN" "http://www.w3.org/Graphics/SVG/1.1/DTD/svg11.dtd">
<!-- Creator: CorelDRAW X6 -->
<svg xmlns="http://www.w3.org/2000/svg" xml:space="preserve" width="110.47mm" height="27.0868mm" version="1.1" style="shape-rendering:geometricPrecision; text-rendering:geometricPrecision; image-rendering:optimizeQuality; fill-rule:evenodd; clip-rule:evenodd"
viewBox="0 0 27398 6718"
 xmlns:xlink="http://www.w3.org/1999/xlink">
 <defs>
  <style type="text/css">
   <![CDATA[
    .str0 {stroke:#382246;stroke-width:248.014}
    .fil2 {fill:#382246}
    .fil4 {fill:#EEEFEA}
    .fil0 {fill:#FEFEFE;fill-rule:nonzero}
    .fil3 {fill:#382246;fill-rule:nonzero}
    .fil1 {fill:#EEEFEA;fill-rule:nonzero}
   ]]>
  </style>
 </defs>
 <g id="Слой_x0020_1">
  <metadata id="CorelCorpID_0Corel-Layer"/>
  <path class="fil0 str0" d="M7615 3968l0 -1216c0,-25 9,-47 26,-65 18,-18 39,-27 64,-27l1268 0c25,0 47,9 65,27 18,18 27,40 27,65l0 1216c0,25 -9,47 -28,65 -19,18 -41,27 -66,27l-182 0c-25,0 -47,-9 -65,-27 -18,-18 -27,-39 -27,-65l0 -1033 -714 0 0 1033c0,25 -9,47 -27,65 -18,18 -39,27 -65,27l-184 0c-25,0 -47,-9 -65,-27 -18,-18 -27,-39 -27,-65zm1615 2l246 -930c66,-253 283,-380 648,-381l527 0c24,0 44,9 60,27 16,18 24,39 24,63l0 1220c0,25 -9,47 -27,64 -18,17 -40,26 -65,26l-184 0c-27,0 -49,-9 -66,-26 -17,-17 -26,-39 -26,-66l0 -247 -692 0 -66 247c-7,27 -21,48 -44,66 -23,17 -47,26 -72,26l-193 0c-25,0 -45,-9 -58,-26 -9,-12 -14,-25 -14,-40 0,-7 1,-15 2,-24zm518 -524l618 0 0 -510 -278 0c-62,0 -116,18 -163,53 -46,36 -78,83 -94,143l-84 314zm1267 523l0 -1216c0,-25 9,-47 26,-65 18,-18 39,-27 64,-27l745 0c393,0 590,181 590,544 0,363 -196,544 -590,544l-468 0 0 220c0,25 -9,47 -27,65 -18,18 -39,27 -65,27l-184 0c-25,0 -47,-9 -65,-27 -18,-18 -27,-39 -27,-65zm368 -497l357 0c109,0 192,-18 249,-55 57,-37 85,-108 85,-213 0,-105 -28,-176 -85,-213 -57,-37 -139,-55 -249,-55l-357 0 0 536zm1063 498l246 -930c66,-253 283,-380 648,-381l527 0c24,0 44,9 60,27 16,18 24,39 24,63l0 1220c0,25 -9,47 -27,64 -18,17 -40,26 -65,26l-184 0c-27,0 -49,-9 -66,-26 -17,-17 -26,-39 -26,-66l0 -247 -692 0 -66 247c-7,27 -21,48 -44,66 -23,17 -47,26 -72,26l-193 0c-25,0 -45,-9 -58,-26 -9,-12 -14,-25 -14,-40 0,-7 1,-15 2,-24zm518 -524l618 0 0 -510 -278 0c-62,0 -116,18 -163,53 -46,36 -78,83 -94,143l-84 314zm1176 232c0,-38 11,-66 34,-83 23,-17 45,-25 66,-25l115 0c60,0 107,36 141,108 16,34 44,62 82,83 39,21 81,31 128,31l306 0c71,0 124,-11 159,-34 35,-23 53,-61 53,-116 0,-55 -18,-93 -53,-116 -35,-23 -88,-34 -159,-34l-252 0c-26,0 -47,-9 -65,-27 -18,-18 -27,-39 -27,-65l0 -80c0,-24 9,-46 26,-64 17,-19 38,-28 62,-28l220 0c79,0 136,-12 173,-35 37,-23 55,-62 55,-115 0,-53 -18,-91 -55,-115 -37,-24 -95,-35 -173,-35l-237 0c-105,0 -178,40 -219,120 -29,61 -73,92 -132,92l-116 0c-12,0 -24,-2 -38,-7 -13,-4 -27,-16 -41,-34 -14,-18 -21,-41 -21,-67 0,-111 56,-202 168,-273 112,-71 233,-107 364,-107l300 0c379,0 569,142 569,428 0,119 -45,212 -135,281 103,64 155,158 155,282 0,150 -47,259 -141,326 -94,67 -229,100 -405,100l-374 0c-132,0 -254,-36 -366,-109 -111,-73 -167,-166 -167,-281zm1653 291l0 -1216c0,-27 9,-49 27,-66 18,-18 41,-26 68,-26l178 0c26,0 48,9 67,26 18,18 28,39 28,64l0 978 561 -976c15,-25 36,-47 62,-65 26,-18 51,-27 73,-27l291 0c26,0 47,9 65,27 18,18 27,40 27,65l0 1216c0,25 -9,47 -28,65 -19,18 -41,27 -67,27l-178 0c-26,0 -48,-9 -67,-27 -18,-18 -28,-39 -28,-65l0 -907 -515 907c-15,25 -36,47 -64,65 -28,18 -54,27 -80,27l-326 0c-26,0 -48,-9 -66,-27 -18,-18 -28,-39 -28,-65zm1584 -1125l0 -92c0,-27 9,-49 26,-66 18,-18 40,-26 66,-26l1239 0c27,0 49,9 66,26 18,18 26,40 26,66l0 92c0,27 -9,49 -26,66 -18,17 -40,26 -66,26l-436 0 0 1035c0,26 -9,47 -27,64 -18,17 -39,26 -65,26l-185 0c-25,0 -47,-9 -65,-26 -18,-17 -27,-38 -27,-64l0 -1035 -436 0c-27,0 -49,-9 -66,-26 -18,-17 -26,-39 -26,-66zm1645 1071c-133,-117 -200,-302 -200,-555 0,-254 67,-439 200,-555 134,-117 329,-175 587,-175 258,0 453,58 586,175 133,117 200,302 200,555 0,253 -67,439 -200,555 -133,117 -329,175 -586,175 -258,0 -453,-58 -587,-175zm267 -904c-66,78 -99,194 -99,349 0,155 33,271 99,349 66,78 173,117 320,117 147,0 253,-39 319,-117 66,-78 99,-194 99,-349 0,-155 -33,-271 -99,-349 -66,-78 -172,-117 -319,-117 -147,0 -253,39 -320,117zm1305 -259c0,-25 9,-47 27,-65 18,-18 40,-27 65,-27l794 0c89,0 170,12 244,37 73,25 135,68 187,129 51,62 77,138 77,229 0,100 -44,186 -132,257 126,67 188,176 188,327 0,134 -50,238 -150,312 -100,74 -222,111 -368,111l-841 0c-25,0 -47,-9 -65,-27 -18,-18 -27,-39 -27,-65l0 -1216zm368 1044l559 0c51,0 89,-15 116,-45 26,-30 40,-71 40,-123 0,-52 -13,-93 -40,-123 -27,-30 -65,-45 -115,-45l-559 0 0 336zm0 -600l523 0c41,0 74,-12 99,-36 25,-24 37,-57 37,-100 0,-43 -12,-76 -37,-100 -25,-24 -58,-36 -99,-36l-523 0 0 272zm1222 743l0 -62c0,-43 11,-76 33,-99 22,-23 53,-34 94,-34l115 0c41,0 72,11 94,34 22,23 32,56 32,99l0 62c0,41 -11,73 -32,97 -22,23 -53,35 -94,35l-115 0c-41,0 -72,-12 -94,-35 -22,-24 -32,-56 -32,-97zm604 30l0 -1216c0,-25 9,-47 27,-65 18,-18 41,-27 67,-27l182 0c25,0 47,9 65,27 18,18 27,40 27,65l0 440 672 0 0 -440c0,-25 9,-47 27,-65 18,-18 40,-27 65,-27l182 0c27,0 49,9 67,27 18,18 27,40 27,65l0 1216c0,25 -9,47 -28,65 -19,18 -41,27 -66,27l-182 0c-25,0 -47,-9 -65,-26 -18,-17 -27,-38 -27,-64l0 -502 -672 0 0 502c0,26 -9,47 -27,64 -18,17 -39,26 -65,26l-182 0c-25,0 -47,-9 -66,-27 -19,-18 -28,-39 -28,-65zm1689 -2l0 -1216c0,-25 9,-47 27,-64 18,-18 40,-26 65,-26l1126 0c26,0 47,9 65,27 18,18 27,40 27,65l0 92c0,25 -9,47 -27,65 -18,18 -39,27 -65,27l-851 0 0 284 733 0c25,0 47,9 65,27 18,18 27,40 27,65l0 92c0,25 -9,47 -27,65 -18,18 -39,27 -65,27l-733 0 0 288 849 0c25,0 47,9 64,26 17,18 26,39 26,64l0 94c0,25 -9,47 -27,65 -18,18 -40,27 -65,27l-1121 0c-25,0 -47,-9 -65,-27 -18,-18 -27,-40 -27,-67zm1370 -1123l0 -92c0,-27 9,-49 26,-66 18,-18 40,-26 66,-26l1239 0c27,0 49,9 66,26 18,18 26,40 26,66l0 92c0,27 -9,49 -26,66 -18,17 -40,26 -66,26l-436 0 0 1035c0,26 -9,47 -27,64 -18,17 -39,26 -65,26l-185 0c-25,0 -47,-9 -65,-26 -18,-17 -27,-38 -27,-64l0 -1035 -436 0c-27,0 -49,-9 -66,-26 -18,-17 -26,-39 -26,-66z"/>
  <path class="fil1" d="M7615 3968l0 -1216c0,-25 9,-47 26,-65 18,-18 39,-27 64,-27l1268 0c25,0 47,9 65,27 18,18 27,40 27,65l0 1216c0,25 -9,47 -28,65 -19,18 -41,27 -66,27l-182 0c-25,0 -47,-9 -65,-27 -18,-18 -27,-39 -27,-65l0 -1033 -714 0 0 1033c0,25 -9,47 -27,65 -18,18 -39,27 -65,27l-184 0c-25,0 -47,-9 -65,-27 -18,-18 -27,-39 -27,-65zm1615 2l246 -930c66,-253 283,-380 648,-381l527 0c24,0 44,9 60,27 16,18 24,39 24,63l0 1220c0,25 -9,47 -27,64 -18,17 -40,26 -65,26l-184 0c-27,0 -49,-9 -66,-26 -17,-17 -26,-39 -26,-66l0 -247 -692 0 -66 247c-7,27 -21,48 -44,66 -23,17 -47,26 -72,26l-193 0c-25,0 -45,-9 -58,-26 -9,-12 -14,-25 -14,-40 0,-7 1,-15 2,-24zm518 -524l618 0 0 -510 -278 0c-62,0 -116,18 -163,53 -46,36 -78,83 -94,143l-84 314zm1267 523l0 -1216c0,-25 9,-47 26,-65 18,-18 39,-27 64,-27l745 0c393,0 590,181 590,544 0,363 -196,544 -590,544l-468 0 0 220c0,25 -9,47 -27,65 -18,18 -39,27 -65,27l-184 0c-25,0 -47,-9 -65,-27 -18,-18 -27,-39 -27,-65zm368 -497l357 0c109,0 192,-18 249,-55 57,-37 85,-108 85,-213 0,-105 -28,-176 -85,-213 -57,-37 -139,-55 -249,-55l-357 0 0 536zm1063 498l246 -930c66,-253 283,-380 648,-381l527 0c24,0 44,9 60,27 16,18 24,39 24,63l0 1220c0,25 -9,47 -27,64 -18,17 -40,26 -65,26l-184 0c-27,0 -49,-9 -66,-26 -17,-17 -26,-39 -26,-66l0 -247 -692 0 -66 247c-7,27 -21,48 -44,66 -23,17 -47,26 -72,26l-193 0c-25,0 -45,-9 -58,-26 -9,-12 -14,-25 -14,-40 0,-7 1,-15 2,-24zm518 -524l618 0 0 -510 -278 0c-62,0 -116,18 -163,53 -46,36 -78,83 -94,143l-84 314zm1176 232c0,-38 11,-66 34,-83 23,-17 45,-25 66,-25l115 0c60,0 107,36 141,108 16,34 44,62 82,83 39,21 81,31 128,31l306 0c71,0 124,-11 159,-34 35,-23 53,-61 53,-116 0,-55 -18,-93 -53,-116 -35,-23 -88,-34 -159,-34l-252 0c-26,0 -47,-9 -65,-27 -18,-18 -27,-39 -27,-65l0 -80c0,-24 9,-46 26,-64 17,-19 38,-28 62,-28l220 0c79,0 136,-12 173,-35 37,-23 55,-62 55,-115 0,-53 -18,-91 -55,-115 -37,-24 -95,-35 -173,-35l-237 0c-105,0 -178,40 -219,120 -29,61 -73,92 -132,92l-116 0c-12,0 -24,-2 -38,-7 -13,-4 -27,-16 -41,-34 -14,-18 -21,-41 -21,-67 0,-111 56,-202 168,-273 112,-71 233,-107 364,-107l300 0c379,0 569,142 569,428 0,119 -45,212 -135,281 103,64 155,158 155,282 0,150 -47,259 -141,326 -94,67 -229,100 -405,100l-374 0c-132,0 -254,-36 -366,-109 -111,-73 -167,-166 -167,-281zm1653 291l0 -1216c0,-27 9,-49 27,-66 18,-18 41,-26 68,-26l178 0c26,0 48,9 67,26 18,18 28,39 28,64l0 978 561 -976c15,-25 36,-47 62,-65 26,-18 51,-27 73,-27l291 0c26,0 47,9 65,27 18,18 27,40 27,65l0 1216c0,25 -9,47 -28,65 -19,18 -41,27 -67,27l-178 0c-26,0 -48,-9 -67,-27 -18,-18 -28,-39 -28,-65l0 -907 -515 907c-15,25 -36,47 -64,65 -28,18 -54,27 -80,27l-326 0c-26,0 -48,-9 -66,-27 -18,-18 -28,-39 -28,-65zm1584 -1125l0 -92c0,-27 9,-49 26,-66 18,-18 40,-26 66,-26l1239 0c27,0 49,9 66,26 18,18 26,40 26,66l0 92c0,27 -9,49 -26,66 -18,17 -40,26 -66,26l-436 0 0 1035c0,26 -9,47 -27,64 -18,17 -39,26 -65,26l-185 0c-25,0 -47,-9 -65,-26 -18,-17 -27,-38 -27,-64l0 -1035 -436 0c-27,0 -49,-9 -66,-26 -18,-17 -26,-39 -26,-66zm1645 1071c-133,-117 -200,-302 -200,-555 0,-254 67,-439 200,-555 134,-117 329,-175 587,-175 258,0 453,58 586,175 133,117 200,302 200,555 0,253 -67,439 -200,555 -133,117 -329,175 -586,175 -258,0 -453,-58 -587,-175zm267 -904c-66,78 -99,194 -99,349 0,155 33,271 99,349 66,78 173,117 320,117 147,0 253,-39 319,-117 66,-78 99,-194 99,-349 0,-155 -33,-271 -99,-349 -66,-78 -172,-117 -319,-117 -147,0 -253,39 -320,117zm1305 -259c0,-25 9,-47 27,-65 18,-18 40,-27 65,-27l794 0c89,0 170,12 244,37 73,25 135,68 187,129 51,62 77,138 77,229 0,100 -44,186 -132,257 126,67 188,176 188,327 0,134 -50,238 -150,312 -100,74 -222,111 -368,111l-841 0c-25,0 -47,-9 -65,-27 -18,-18 -27,-39 -27,-65l0 -1216zm368 1044l559 0c51,0 89,-15 116,-45 26,-30 40,-71 40,-123 0,-52 -13,-93 -40,-123 -27,-30 -65,-45 -115,-45l-559 0 0 336zm0 -600l523 0c41,0 74,-12 99,-36 25,-24 37,-57 37,-100 0,-43 -12,-76 -37,-100 -25,-24 -58,-36 -99,-36l-523 0 0 272zm1222 743l0 -62c0,-43 11,-76 33,-99 22,-23 53,-34 94,-34l115 0c41,0 72,11 94,34 22,23 32,56 32,99l0 62c0,41 -11,73 -32,97 -22,23 -53,35 -94,35l-115 0c-41,0 -72,-12 -94,-35 -22,-24 -32,-56 -32,-97zm604 30l0 -1216c0,-25 9,-47 27,-65 18,-18 41,-27 67,-27l182 0c25,0 47,9 65,27 18,18 27,40 27,65l0 440 672 0 0 -440c0,-25 9,-47 27,-65 18,-18 40,-27 65,-27l182 0c27,0 49,9 67,27 18,18 27,40 27,65l0 1216c0,25 -9,47 -28,65 -19,18 -41,27 -66,27l-182 0c-25,0 -47,-9 -65,-26 -18,-17 -27,-38 -27,-64l0 -502 -672 0 0 502c0,26 -9,47 -27,64 -18,17 -39,26 -65,26l-182 0c-25,0 -47,-9 -66,-27 -19,-18 -28,-39 -28,-65zm1689 -2l0 -1216c0,-25 9,-47 27,-64 18,-18 40,-26 65,-26l1126 0c26,0 47,9 65,27 18,18 27,40 27,65l0 92c0,25 -9,47 -27,65 -18,18 -39,27 -65,27l-851 0 0 284 733 0c25,0 47,9 65,27 18,18 27,40 27,65l0 92c0,25 -9,47 -27,65 -18,18 -39,27 -65,27l-733 0 0 288 849 0c25,0 47,9 64,26 17,18 26,39 26,64l0 94c0,25 -9,47 -27,65 -18,18 -40,27 -65,27l-1121 0c-25,0 -47,-9 -65,-27 -18,-18 -27,-40 -27,-67zm1370 -1123l0 -92c0,-27 9,-49 26,-66 18,-18 40,-26 66,-26l1239 0c27,0 49,9 66,26 18,18 26,40 26,66l0 92c0,27 -9,49 -26,66 -18,17 -40,26 -66,26l-436 0 0 1035c0,26 -9,47 -27,64 -18,17 -39,26 -65,26l-185 0c-25,0 -47,-9 -65,-26 -18,-17 -27,-38 -27,-64l0 -1035 -436 0c-27,0 -49,-9 -66,-26 -18,-17 -26,-39 -26,-66z"/>
  <g>
   <path class="fil2" d="M3352 802c1408,0 2549,1141 2549,2549 0,1408 -1141,2549 -2549,2549 -1408,0 -2549,-1141 -2549,-2549 0,-1408 1141,-2549 2549,-2549z"/>
   <path id="1" class="fil3" d="M6018 3351l-233 0 0 0 -3 -125 -9 -124 -15 -122 -21 -120 -27 -118 -33 -115 -38 -113 -44 -110 -49 -108 -54 -105 -59 -102 -63 -99 -68 -95 -72 -92 -76 -88 -81 -84 -85 -81 -88 -76 -92 -72 -95 -68 -99 -63 -102 -59 -105 -54 -108 -49 -110 -44 -113 -38 -115 -33 -118 -27 -120 -21 -122 -15 -124 -9 -125 -3 0 -233 137 3 135 10 133 17 131 23 129 30 127 36 124 42 121 48 118 53 115 59 112 64 108 69 104 74 101 79 97 84 93 88 88 93 84 97 79 101 74 104 69 108 64 112 59 115 53 118 48 121 42 124 36 127 30 129 23 131 17 133 10 135 3 137 0 0zm-2666 2666l0 -233 0 0 125 -3 124 -9 122 -15 120 -21 118 -27 115 -33 113 -38 110 -44 108 -49 105 -54 102 -59 99 -63 95 -68 92 -72 88 -76 85 -81 81 -84 76 -88 72 -92 68 -95 63 -99 59 -102 54 -105 49 -108 44 -110 38 -113 33 -115 27 -118 21 -120 15 -122 9 -124 3 -125 233 0 -3 137 -10 135 -17 133 -23 131 -30 129 -36 127 -42 124 -48 121 -53 118 -59 115 -64 112 -69 108 -74 104 -79 101 -84 97 -88 93 -93 88 -97 84 -101 79 -104 74 -108 69 -112 64 -115 59 -118 53 -121 48 -124 42 -127 36 -129 30 -131 23 -133 17 -135 10 -137 3 0 0zm-2666 -2666l233 0 0 0 3 125 9 124 15 122 21 120 27 118 33 115 38 113 44 110 49 108 54 105 59 102 63 99 68 95 72 92 76 88 81 84 84 81 88 76 92 72 95 68 99 63 102 59 105 54 108 49 110 44 113 38 115 33 118 27 120 21 122 15 124 9 125 3 0 233 -137 -3 -135 -10 -133 -17 -131 -23 -129 -30 -127 -36 -124 -42 -121 -48 -118 -53 -115 -59 -112 -64 -108 -69 -104 -74 -101 -79 -97 -84 -93 -88 -88 -93 -84 -97 -79 -101 -74 -104 -69 -108 -64 -112 -59 -115 -53 -118 -48 -121 -42 -124 -36 -127 -30 -129 -23 -131 -17 -133 -10 -135 -3 -137 0 0zm2666 -2666l0 233 0 0 -125 3 -124 9 -122 15 -120 21 -118 27 -115 33 -113 38 -110 44 -108 49 -105 54 -102 59 -99 63 -95 68 -92 72 -88 76 -84 81 -81 84 -76 88 -72 92 -68 95 -63 99 -59 102 -54 105 -49 108 -44 110 -38 113 -33 115 -27 118 -21 120 -15 122 -9 124 -3 125 -233 0 3 -137 10 -135 17 -133 23 -131 30 -129 36 -127 42 -124 48 -121 53 -118 59 -115 64 -112 69 -108 74 -104 79 -101 84 -97 88 -93 93 -88 97 -84 101 -79 104 -74 108 -69 112 -64 115 -59 118 -53 121 -48 124 -42 127 -36 129 -30 131 -23 133 -17 135 -10 137 -3 0 0z"/>
  </g>
  <g>
   <polygon class="fil3" points="3271,1292 3271,0 3434,0 3434,1292 "/>
  </g>
  <g>
   <polygon class="fil3" points="3270,6718 3269,5426 3433,5426 3433,6718 "/>
  </g>
  <g>
   <polygon class="fil3" points="1292,3420 0,3421 0,3258 1292,3257 "/>
  </g>
  <g>
   <polygon class="fil3" points="6696,3422 5405,3422 5405,3259 6696,3258 "/>
  </g>
  <path class="fil4" d="M3352 2412c-54,-2 -100,2 -214,13l-131 -184 73 -115c-64,39 -100,83 -145,145 46,88 73,122 145,192 -26,67 -33,57 -59,114 -27,59 -30,97 -47,132l-357 -17c-61,-102 -120,-215 -195,-326 -95,-140 -57,-186 9,-378 148,-429 246,-489 332,-688 -213,172 -480,636 -553,1058l124 -36 177 358c69,141 38,102 394,148 185,24 122,15 248,109l-169 26 -51 153c-248,-99 -235,-296 -499,-179 -174,77 -356,147 -527,220 -33,-48 -57,-110 -102,-156 -265,496 -386,1190 -325,1772 106,-558 76,-778 339,-1386 86,-199 185,-165 510,-278 111,-39 196,-97 286,-31 65,48 168,124 214,192 -543,218 -343,-242 -765,714l-159 -44c157,526 468,1135 770,1327l-85 -139c-175,-265 -368,-641 -459,-966 -39,-141 28,-200 81,-299 241,-443 161,-379 392,-397 119,-9 212,-27 334,-29 9,364 151,872 326,1075 58,-78 17,-59 82,-91l7 8 0 0 7 -8c65,32 25,13 82,91 175,-203 317,-710 326,-1075 122,1 215,19 334,29 231,18 152,-47 392,397 54,99 121,158 81,299 -91,325 -284,701 -459,966l-85 139c302,-192 613,-801 770,-1327l-159 44c-422,-957 -221,-496 -765,-714 46,-68 149,-144 214,-192 91,-67 175,-8 286,31 325,113 424,79 510,278 262,609 233,828 339,1386 61,-582 -60,-1276 -325,-1772 -45,46 -70,108 -102,156 -171,-73 -353,-142 -527,-220 -264,-117 -251,79 -499,179l-51 -153 -169 -26c126,-94 63,-85 248,-109 356,-46 324,-7 394,-148l177 -358 124 36c-73,-422 -340,-886 -553,-1058 86,200 185,259 332,688 66,192 104,238 9,378 -75,111 -134,225 -195,326l-357 17c-17,-35 -21,-73 -47,-132 -25,-56 -33,-46 -58,-114 72,-69 99,-104 145,-192 -45,-62 -81,-106 -145,-145l73 115 -131 184c-114,-11 -160,-15 -214,-13l0 0z"/>
  <g>
   <polygon class="fil1" points="3271,1292 3271,689 3434,689 3434,1292 "/>
  </g>
  <g>
   <polygon class="fil1" points="6696,3422 5405,3422 5405,3259 6696,3258 "/>
  </g>
  <g>
   <polygon class="fil1" points="3270,6008 3269,5426 3433,5426 3433,6008 "/>
  </g>
  <g>
   <polygon class="fil1" points="1292,3420 689,3421 689,3258 1292,3257 "/>
  </g>
  <g>
   <polygon class="fil3" points="6696,3422 6016,3422 6016,3259 6696,3259 "/>
  </g>
 </g>
</svg>
