<?xml version="1.0" encoding="utf-8"?>
<!-- Generator: Adobe Illustrator 16.0.0, SVG Export Plug-In . SVG Version: 6.00 Build 0)  -->
<!DOCTYPE svg PUBLIC "-//W3C//DTD SVG 1.1//EN" "http://www.w3.org/Graphics/SVG/1.1/DTD/svg11.dtd">
<svg version="1.1" id="Слой_1" xmlns="http://www.w3.org/2000/svg" xmlns:xlink="http://www.w3.org/1999/xlink" x="0px" y="0px"
	 width="420.667px" height="100px" viewBox="0 0 420.667 100" enable-background="new 0 0 420.667 100" xml:space="preserve">
<g>
	
		<path fill="#FEFEFE" stroke="#172C42" stroke-width="3.685" stroke-linecap="round" stroke-linejoin="round" stroke-miterlimit="22.9256" d="
		M114.229,59.393V40.589c0-0.389,0.129-0.729,0.405-1.005c0.275-0.276,0.6-0.422,0.989-0.422h19.597
		c0.389,0,0.729,0.146,1.005,0.422c0.276,0.275,0.422,0.616,0.422,1.005v18.803c0,0.389-0.146,0.729-0.422,1.004
		c-0.292,0.275-0.632,0.422-1.021,0.422H132.4c-0.39,0-0.729-0.146-1.005-0.422c-0.276-0.275-0.422-0.615-0.422-1.004V43.425
		h-11.039v15.967c0,0.389-0.146,0.729-0.421,1.004c-0.275,0.275-0.616,0.422-1.005,0.422h-2.837c-0.389,0-0.729-0.146-1.005-0.422
		c-0.275-0.275-0.421-0.615-0.421-1.004H114.229L114.229,59.393z M139.176,59.426l3.793-14.379c1.021-3.907,4.36-5.868,10.018-5.884
		h8.137c0.373,0,0.681,0.146,0.924,0.422c0.243,0.275,0.373,0.616,0.373,0.973v18.869c0,0.389-0.146,0.729-0.421,0.988
		c-0.276,0.275-0.616,0.404-1.005,0.404h-2.837c-0.405,0-0.746-0.129-1.021-0.404c-0.275-0.26-0.405-0.6-0.405-1.021v-3.809h-10.699
		l-1.021,3.809c-0.098,0.404-0.325,0.746-0.681,1.021c-0.356,0.26-0.729,0.389-1.118,0.389h-2.982c-0.389,0-0.697-0.129-0.892-0.404
		c-0.146-0.18-0.211-0.391-0.211-0.617c0-0.113,0.016-0.227,0.033-0.373L139.176,59.426L139.176,59.426z M147.184,51.32h9.547
		v-7.895h-4.295c-0.956,0-1.799,0.276-2.512,0.827c-0.714,0.551-1.2,1.297-1.443,2.221L147.184,51.32L147.184,51.32L147.184,51.32z
		 M166.749,59.393V40.589c0-0.389,0.129-0.729,0.405-1.005c0.275-0.276,0.6-0.422,0.989-0.422h11.525
		c6.079,0,9.126,2.804,9.126,8.413c0,5.608-3.031,8.413-9.126,8.413h-7.229v3.404c0,0.389-0.146,0.729-0.421,1.004
		c-0.276,0.275-0.616,0.422-1.005,0.422h-2.837c-0.389,0-0.729-0.146-1.005-0.422C166.895,60.121,166.749,59.781,166.749,59.393
		L166.749,59.393L166.749,59.393z M172.438,51.725h5.512c1.686,0,2.966-0.275,3.841-0.842c0.875-0.568,1.313-1.67,1.313-3.291
		s-0.438-2.724-1.313-3.291c-0.875-0.567-2.156-0.843-3.841-0.843h-5.512v8.284V51.725L172.438,51.725z M188.859,59.426
		l3.793-14.379c1.021-3.907,4.36-5.868,10.017-5.884h8.137c0.373,0,0.681,0.146,0.924,0.422c0.243,0.275,0.373,0.616,0.373,0.973
		v18.869c0,0.389-0.146,0.729-0.421,0.988c-0.276,0.275-0.616,0.404-1.005,0.404h-2.837c-0.405,0-0.746-0.129-1.021-0.404
		c-0.275-0.26-0.405-0.6-0.405-1.021v-3.809h-10.698l-1.021,3.809c-0.098,0.404-0.324,0.746-0.681,1.021
		c-0.356,0.26-0.729,0.389-1.119,0.389h-2.982c-0.39,0-0.698-0.129-0.892-0.404c-0.146-0.18-0.211-0.391-0.211-0.617
		c0-0.113,0.016-0.227,0.033-0.373L188.859,59.426L188.859,59.426z M196.867,51.32h9.547v-7.895h-4.295
		c-0.956,0-1.799,0.276-2.513,0.827c-0.713,0.551-1.2,1.297-1.442,2.221L196.867,51.32L196.867,51.32L196.867,51.32z
		 M215.054,54.902c0-0.6,0.179-1.021,0.535-1.281c0.356-0.258,0.697-0.389,1.021-0.389h1.783c0.924,0,1.653,0.551,2.172,1.67
		c0.26,0.535,0.681,0.957,1.265,1.281c0.6,0.324,1.265,0.486,1.978,0.486h4.733c1.102,0,1.912-0.18,2.464-0.52
		c0.535-0.355,0.811-0.955,0.811-1.799s-0.275-1.443-0.811-1.799c-0.552-0.357-1.362-0.52-2.464-0.52h-3.891
		c-0.389,0-0.729-0.146-1.005-0.422s-0.422-0.615-0.422-1.004v-1.232c0-0.373,0.13-0.713,0.405-0.989
		c0.26-0.292,0.584-0.438,0.956-0.438h3.404c1.216,0,2.107-0.178,2.675-0.551c0.567-0.356,0.843-0.956,0.843-1.767
		c0-0.827-0.275-1.411-0.843-1.767c-0.567-0.373-1.459-0.551-2.675-0.551h-3.663c-1.622,0-2.756,0.616-3.389,1.848
		c-0.453,0.956-1.135,1.426-2.042,1.426h-1.8c-0.178,0-0.372-0.033-0.583-0.113c-0.211-0.065-0.422-0.243-0.633-0.519
		s-0.324-0.632-0.324-1.038c0-1.718,0.859-3.112,2.594-4.214c1.734-1.103,3.614-1.654,5.624-1.654h4.636
		c5.868,0,8.786,2.205,8.786,6.613c0,1.832-0.697,3.291-2.075,4.345c1.589,0.988,2.399,2.432,2.399,4.359
		c0,2.318-0.729,4.004-2.173,5.041c-1.459,1.039-3.533,1.541-6.257,1.541h-5.771c-2.042,0-3.922-0.568-5.656-1.686
		c-1.719-1.119-2.578-2.578-2.578-4.346L215.054,54.902L215.054,54.902z M240.601,59.393V40.589c0-0.405,0.146-0.746,0.422-1.021
		c0.275-0.276,0.632-0.405,1.054-0.405h2.739c0.404,0,0.745,0.129,1.037,0.405c0.275,0.275,0.422,0.6,0.422,0.989v15.107
		l8.672-15.076c0.227-0.389,0.551-0.729,0.956-1.005c0.405-0.275,0.778-0.421,1.135-0.421h4.49c0.39,0,0.729,0.146,1.005,0.421
		c0.275,0.276,0.405,0.616,0.405,1.005v18.804c0,0.389-0.146,0.729-0.438,1.004s-0.633,0.422-1.037,0.422h-2.74
		c-0.404,0-0.745-0.146-1.037-0.422c-0.275-0.275-0.422-0.615-0.422-1.004V45.387l-7.959,14.006
		c-0.227,0.389-0.567,0.729-0.988,1.004c-0.422,0.275-0.843,0.422-1.232,0.422h-5.041c-0.389,0-0.729-0.146-1.021-0.422
		C240.746,60.121,240.6,59.781,240.601,59.393L240.601,59.393L240.601,59.393z M265.077,42.016v-1.411
		c0-0.405,0.13-0.746,0.405-1.021c0.275-0.275,0.616-0.405,1.021-0.405h19.159c0.405,0,0.746,0.129,1.022,0.405
		c0.275,0.276,0.404,0.616,0.404,1.021v1.411c0,0.405-0.129,0.746-0.404,1.021c-0.276,0.275-0.616,0.405-1.022,0.405h-6.727v15.984
		c0,0.389-0.146,0.729-0.422,0.988c-0.275,0.275-0.616,0.404-1.005,0.404h-2.853c-0.39,0-0.729-0.129-1.005-0.404
		c-0.276-0.26-0.422-0.6-0.422-0.988V43.442h-6.728c-0.404,0-0.745-0.129-1.021-0.405C265.206,42.777,265.077,42.437,265.077,42.016
		L265.077,42.016L265.077,42.016z M290.51,58.564c-2.058-1.799-3.096-4.668-3.096-8.574c0-3.923,1.038-6.775,3.096-8.575
		c2.075-1.799,5.091-2.707,9.062-2.707c3.988,0,7.003,0.908,9.062,2.707c2.059,1.8,3.08,4.668,3.08,8.575
		c0,3.923-1.038,6.775-3.08,8.574c-2.059,1.801-5.073,2.707-9.062,2.707C295.601,61.271,292.568,60.365,290.51,58.564L290.51,58.564
		z M294.644,44.593c-1.021,1.2-1.523,2.999-1.523,5.398c0,2.4,0.502,4.199,1.523,5.398s2.675,1.799,4.944,1.799
		c2.269,0,3.922-0.6,4.928-1.799c1.021-1.199,1.523-3,1.523-5.398c0-2.399-0.502-4.198-1.523-5.398
		c-1.021-1.215-2.658-1.815-4.928-1.815S295.681,43.377,294.644,44.593L294.644,44.593z M314.809,40.589
		c0-0.389,0.146-0.729,0.421-1.005c0.276-0.276,0.616-0.422,1.006-0.422h12.271c1.377,0,2.626,0.195,3.76,0.567
		c1.135,0.39,2.091,1.054,2.886,1.994c0.794,0.956,1.184,2.124,1.184,3.533c0,1.54-0.681,2.87-2.043,3.972
		c1.945,1.037,2.918,2.723,2.902,5.041c0,2.074-0.778,3.68-2.318,4.814s-3.437,1.719-5.673,1.719h-12.984
		c-0.389,0-0.729-0.146-1.005-0.422s-0.421-0.615-0.421-1.006V40.573L314.809,40.589L314.809,40.589z M320.498,56.717h8.64
		c0.778,0,1.378-0.227,1.783-0.695c0.404-0.471,0.615-1.104,0.615-1.896c0-0.813-0.211-1.443-0.615-1.898
		c-0.405-0.469-1.005-0.697-1.783-0.697h-8.64v5.205V56.717L320.498,56.717z M320.498,47.446h8.072c0.633,0,1.151-0.178,1.524-0.551
		c0.389-0.373,0.566-0.875,0.566-1.54s-0.194-1.167-0.566-1.556c-0.39-0.373-0.892-0.551-1.524-0.551h-8.072V47.446L320.498,47.446z
		 M339.383,58.922v-0.955c0-0.666,0.161-1.168,0.502-1.525c0.341-0.355,0.827-0.518,1.442-0.518h1.783
		c0.633,0,1.118,0.178,1.459,0.518c0.34,0.357,0.502,0.859,0.502,1.525v0.955c0,0.633-0.162,1.135-0.502,1.492
		c-0.34,0.355-0.826,0.535-1.459,0.535h-1.783c-0.632,0-1.118-0.18-1.459-0.535c-0.34-0.373-0.502-0.859-0.502-1.492H339.383
		L339.383,58.922z M348.72,59.393V40.589c0-0.389,0.146-0.729,0.421-1.005c0.275-0.276,0.633-0.422,1.038-0.422h2.804
		c0.39,0,0.729,0.146,1.005,0.422c0.275,0.275,0.422,0.616,0.422,1.005v6.792H364.8v-6.792c0-0.389,0.146-0.729,0.421-1.005
		c0.275-0.276,0.616-0.422,1.005-0.422h2.805c0.405,0,0.762,0.146,1.037,0.422c0.275,0.275,0.422,0.616,0.422,1.005v18.803
		c0,0.389-0.146,0.729-0.422,1.004c-0.291,0.275-0.632,0.422-1.021,0.422h-2.804c-0.39,0-0.729-0.129-1.005-0.404
		c-0.275-0.26-0.422-0.6-0.422-0.988V51.66h-10.391v7.766c0,0.389-0.146,0.729-0.422,0.988c-0.275,0.275-0.615,0.404-1.004,0.404
		h-2.805c-0.389,0-0.729-0.146-1.021-0.422c-0.291-0.275-0.438-0.615-0.438-1.004H348.72L348.72,59.393z M374.817,59.359V40.557
		c0-0.389,0.146-0.729,0.421-0.989c0.275-0.276,0.616-0.405,1.005-0.405h17.409c0.389,0,0.729,0.146,1.005,0.421
		s0.422,0.616,0.422,1.005V42c0,0.39-0.146,0.729-0.422,1.005c-0.275,0.276-0.616,0.406-1.005,0.406h-13.146v4.393h11.33
		c0.389,0,0.729,0.146,1.005,0.421c0.275,0.276,0.422,0.616,0.422,1.005v1.427c0,0.389-0.146,0.729-0.422,1.004
		s-0.616,0.422-1.005,0.422h-11.33v4.457h13.113c0.39,0,0.729,0.131,0.989,0.406c0.275,0.275,0.405,0.6,0.405,0.988v1.443
		c0,0.389-0.146,0.729-0.422,1.004s-0.616,0.404-1.005,0.404h-17.329c-0.389,0-0.729-0.145-1.004-0.42
		c-0.276-0.275-0.422-0.617-0.422-1.039L374.817,59.359L374.817,59.359z M395.987,42.016v-1.411c0-0.405,0.129-0.746,0.404-1.021
		c0.275-0.275,0.616-0.405,1.021-0.405h19.16c0.405,0,0.746,0.129,1.021,0.405C417.87,39.859,418,40.2,418,40.605v1.411
		c0,0.405-0.13,0.746-0.405,1.021c-0.275,0.275-0.616,0.405-1.021,0.405h-6.728v15.984c0,0.389-0.146,0.729-0.421,0.988
		c-0.275,0.275-0.616,0.404-1.005,0.404h-2.854c-0.389,0-0.729-0.129-1.005-0.404c-0.275-0.26-0.422-0.6-0.422-0.988V43.442h-6.727
		c-0.405,0-0.746-0.129-1.021-0.405C396.116,42.777,395.986,42.437,395.987,42.016L395.987,42.016L395.987,42.016z"/>
	<path fill="#FCFCFC" d="M114.229,59.393V40.589c0-0.389,0.129-0.729,0.405-1.005c0.275-0.276,0.6-0.422,0.989-0.422h19.597
		c0.389,0,0.729,0.146,1.005,0.422c0.276,0.275,0.422,0.616,0.422,1.005v18.803c0,0.389-0.146,0.729-0.422,1.004
		c-0.292,0.275-0.632,0.422-1.021,0.422H132.4c-0.39,0-0.729-0.146-1.005-0.422c-0.276-0.275-0.422-0.615-0.422-1.004V43.425
		h-11.039v15.967c0,0.389-0.146,0.729-0.421,1.004c-0.275,0.275-0.616,0.422-1.005,0.422h-2.837c-0.389,0-0.729-0.146-1.005-0.422
		c-0.275-0.275-0.421-0.615-0.421-1.004H114.229L114.229,59.393z M139.176,59.426l3.793-14.379c1.021-3.907,4.36-5.868,10.018-5.884
		h8.137c0.373,0,0.681,0.146,0.924,0.422c0.243,0.275,0.373,0.616,0.373,0.973v18.869c0,0.389-0.146,0.729-0.421,0.988
		c-0.276,0.275-0.616,0.404-1.005,0.404h-2.837c-0.405,0-0.746-0.129-1.021-0.404c-0.275-0.26-0.405-0.6-0.405-1.021v-3.809h-10.699
		l-1.021,3.809c-0.098,0.404-0.325,0.746-0.681,1.021c-0.356,0.26-0.729,0.389-1.118,0.389h-2.982c-0.389,0-0.697-0.129-0.892-0.404
		c-0.146-0.18-0.211-0.391-0.211-0.617c0-0.113,0.016-0.227,0.033-0.373L139.176,59.426L139.176,59.426z M147.184,51.32h9.547
		v-7.895h-4.295c-0.956,0-1.799,0.276-2.512,0.827c-0.714,0.551-1.2,1.297-1.443,2.221L147.184,51.32L147.184,51.32L147.184,51.32z
		 M166.749,59.393V40.589c0-0.389,0.129-0.729,0.405-1.005c0.275-0.276,0.6-0.422,0.989-0.422h11.525
		c6.079,0,9.126,2.804,9.126,8.413c0,5.608-3.031,8.413-9.126,8.413h-7.229v3.404c0,0.389-0.146,0.729-0.421,1.004
		c-0.276,0.275-0.616,0.422-1.005,0.422h-2.837c-0.389,0-0.729-0.146-1.005-0.422C166.895,60.121,166.749,59.781,166.749,59.393
		L166.749,59.393L166.749,59.393z M172.438,51.725h5.512c1.686,0,2.966-0.275,3.841-0.842c0.875-0.568,1.313-1.67,1.313-3.291
		s-0.438-2.724-1.313-3.291c-0.875-0.567-2.156-0.843-3.841-0.843h-5.512v8.284V51.725L172.438,51.725z M188.859,59.426
		l3.793-14.379c1.021-3.907,4.36-5.868,10.017-5.884h8.137c0.373,0,0.681,0.146,0.924,0.422c0.243,0.275,0.373,0.616,0.373,0.973
		v18.869c0,0.389-0.146,0.729-0.421,0.988c-0.276,0.275-0.616,0.404-1.005,0.404h-2.837c-0.405,0-0.746-0.129-1.021-0.404
		c-0.275-0.26-0.405-0.6-0.405-1.021v-3.809h-10.698l-1.021,3.809c-0.098,0.404-0.324,0.746-0.681,1.021
		c-0.356,0.26-0.729,0.389-1.119,0.389h-2.982c-0.39,0-0.698-0.129-0.892-0.404c-0.146-0.18-0.211-0.391-0.211-0.617
		c0-0.113,0.016-0.227,0.033-0.373L188.859,59.426L188.859,59.426z M196.867,51.32h9.547v-7.895h-4.295
		c-0.956,0-1.799,0.276-2.513,0.827c-0.713,0.551-1.2,1.297-1.442,2.221L196.867,51.32L196.867,51.32L196.867,51.32z
		 M215.054,54.902c0-0.6,0.179-1.021,0.535-1.281c0.356-0.258,0.697-0.389,1.021-0.389h1.783c0.924,0,1.653,0.551,2.172,1.67
		c0.26,0.535,0.681,0.957,1.265,1.281c0.6,0.324,1.265,0.486,1.978,0.486h4.733c1.102,0,1.912-0.18,2.464-0.52
		c0.535-0.355,0.811-0.955,0.811-1.799s-0.275-1.443-0.811-1.799c-0.552-0.357-1.362-0.52-2.464-0.52h-3.891
		c-0.389,0-0.729-0.146-1.005-0.422s-0.422-0.615-0.422-1.004v-1.232c0-0.373,0.13-0.713,0.405-0.989
		c0.26-0.292,0.584-0.438,0.956-0.438h3.404c1.216,0,2.107-0.178,2.675-0.551c0.567-0.356,0.843-0.956,0.843-1.767
		c0-0.827-0.275-1.411-0.843-1.767c-0.567-0.373-1.459-0.551-2.675-0.551h-3.663c-1.622,0-2.756,0.616-3.389,1.848
		c-0.453,0.956-1.135,1.426-2.042,1.426h-1.8c-0.178,0-0.372-0.033-0.583-0.113c-0.211-0.065-0.422-0.243-0.633-0.519
		s-0.324-0.632-0.324-1.038c0-1.718,0.859-3.112,2.594-4.214c1.734-1.103,3.614-1.654,5.624-1.654h4.636
		c5.868,0,8.786,2.205,8.786,6.613c0,1.832-0.697,3.291-2.075,4.345c1.589,0.988,2.399,2.432,2.399,4.359
		c0,2.318-0.729,4.004-2.173,5.041c-1.459,1.039-3.533,1.541-6.257,1.541h-5.771c-2.042,0-3.922-0.568-5.656-1.686
		c-1.719-1.119-2.578-2.578-2.578-4.346L215.054,54.902L215.054,54.902z M240.601,59.393V40.589c0-0.405,0.146-0.746,0.422-1.021
		c0.275-0.276,0.632-0.405,1.054-0.405h2.739c0.404,0,0.745,0.129,1.037,0.405c0.275,0.275,0.422,0.6,0.422,0.989v15.107
		l8.672-15.076c0.227-0.389,0.551-0.729,0.956-1.005c0.405-0.275,0.778-0.421,1.135-0.421h4.49c0.39,0,0.729,0.146,1.005,0.421
		c0.275,0.276,0.405,0.616,0.405,1.005v18.804c0,0.389-0.146,0.729-0.438,1.004s-0.633,0.422-1.037,0.422h-2.74
		c-0.404,0-0.745-0.146-1.037-0.422c-0.275-0.275-0.422-0.615-0.422-1.004V45.387l-7.959,14.006
		c-0.227,0.389-0.567,0.729-0.988,1.004c-0.422,0.275-0.843,0.422-1.232,0.422h-5.041c-0.389,0-0.729-0.146-1.021-0.422
		C240.746,60.121,240.6,59.781,240.601,59.393L240.601,59.393L240.601,59.393z M265.077,42.016v-1.411
		c0-0.405,0.13-0.746,0.405-1.021c0.275-0.275,0.616-0.405,1.021-0.405h19.159c0.405,0,0.746,0.129,1.022,0.405
		c0.275,0.276,0.404,0.616,0.404,1.021v1.411c0,0.405-0.129,0.746-0.404,1.021c-0.276,0.275-0.616,0.405-1.022,0.405h-6.727v15.984
		c0,0.389-0.146,0.729-0.422,0.988c-0.275,0.275-0.616,0.404-1.005,0.404h-2.853c-0.39,0-0.729-0.129-1.005-0.404
		c-0.276-0.26-0.422-0.6-0.422-0.988V43.442h-6.728c-0.404,0-0.745-0.129-1.021-0.405C265.206,42.777,265.077,42.437,265.077,42.016
		L265.077,42.016L265.077,42.016z M290.51,58.564c-2.058-1.799-3.096-4.668-3.096-8.574c0-3.923,1.038-6.775,3.096-8.575
		c2.075-1.799,5.091-2.707,9.062-2.707c3.988,0,7.003,0.908,9.062,2.707c2.059,1.8,3.08,4.668,3.08,8.575
		c0,3.923-1.038,6.775-3.08,8.574c-2.059,1.801-5.073,2.707-9.062,2.707C295.601,61.271,292.568,60.365,290.51,58.564L290.51,58.564
		z M294.644,44.593c-1.021,1.2-1.523,2.999-1.523,5.398c0,2.4,0.502,4.199,1.523,5.398s2.675,1.799,4.944,1.799
		c2.269,0,3.922-0.6,4.928-1.799c1.021-1.199,1.523-3,1.523-5.398c0-2.399-0.502-4.198-1.523-5.398
		c-1.021-1.215-2.658-1.815-4.928-1.815S295.681,43.377,294.644,44.593L294.644,44.593z M314.809,40.589
		c0-0.389,0.146-0.729,0.421-1.005c0.276-0.276,0.616-0.422,1.006-0.422h12.271c1.377,0,2.626,0.195,3.76,0.567
		c1.135,0.39,2.091,1.054,2.886,1.994c0.794,0.956,1.184,2.124,1.184,3.533c0,1.54-0.681,2.87-2.043,3.972
		c1.945,1.037,2.918,2.723,2.902,5.041c0,2.074-0.778,3.68-2.318,4.814s-3.437,1.719-5.673,1.719h-12.984
		c-0.389,0-0.729-0.146-1.005-0.422s-0.421-0.615-0.421-1.006V40.573L314.809,40.589L314.809,40.589z M320.498,56.717h8.64
		c0.778,0,1.378-0.227,1.783-0.695c0.404-0.471,0.615-1.104,0.615-1.896c0-0.813-0.211-1.443-0.615-1.898
		c-0.405-0.469-1.005-0.697-1.783-0.697h-8.64v5.205V56.717L320.498,56.717z M320.498,47.446h8.072c0.633,0,1.151-0.178,1.524-0.551
		c0.389-0.373,0.566-0.875,0.566-1.54s-0.194-1.167-0.566-1.556c-0.39-0.373-0.892-0.551-1.524-0.551h-8.072V47.446L320.498,47.446z
		 M339.383,58.922v-0.955c0-0.666,0.161-1.168,0.502-1.525c0.341-0.355,0.827-0.518,1.442-0.518h1.783
		c0.633,0,1.118,0.178,1.459,0.518c0.34,0.357,0.502,0.859,0.502,1.525v0.955c0,0.633-0.162,1.135-0.502,1.492
		c-0.34,0.355-0.826,0.535-1.459,0.535h-1.783c-0.632,0-1.118-0.18-1.459-0.535c-0.34-0.373-0.502-0.859-0.502-1.492H339.383
		L339.383,58.922z M348.72,59.393V40.589c0-0.389,0.146-0.729,0.421-1.005c0.275-0.276,0.633-0.422,1.038-0.422h2.804
		c0.39,0,0.729,0.146,1.005,0.422c0.275,0.275,0.422,0.616,0.422,1.005v6.792H364.8v-6.792c0-0.389,0.146-0.729,0.421-1.005
		c0.275-0.276,0.616-0.422,1.005-0.422h2.805c0.405,0,0.762,0.146,1.037,0.422c0.275,0.275,0.422,0.616,0.422,1.005v18.803
		c0,0.389-0.146,0.729-0.422,1.004c-0.291,0.275-0.632,0.422-1.021,0.422h-2.804c-0.39,0-0.729-0.129-1.005-0.404
		c-0.275-0.26-0.422-0.6-0.422-0.988V51.66h-10.391v7.766c0,0.389-0.146,0.729-0.422,0.988c-0.275,0.275-0.615,0.404-1.004,0.404
		h-2.805c-0.389,0-0.729-0.146-1.021-0.422c-0.291-0.275-0.438-0.615-0.438-1.004H348.72L348.72,59.393z M374.817,59.359V40.557
		c0-0.389,0.146-0.729,0.421-0.989c0.275-0.276,0.616-0.405,1.005-0.405h17.409c0.389,0,0.729,0.146,1.005,0.421
		s0.422,0.616,0.422,1.005V42c0,0.39-0.146,0.729-0.422,1.005c-0.275,0.276-0.616,0.406-1.005,0.406h-13.146v4.393h11.33
		c0.389,0,0.729,0.146,1.005,0.421c0.275,0.276,0.422,0.616,0.422,1.005v1.427c0,0.389-0.146,0.729-0.422,1.004
		s-0.616,0.422-1.005,0.422h-11.33v4.457h13.113c0.39,0,0.729,0.131,0.989,0.406c0.275,0.275,0.405,0.6,0.405,0.988v1.443
		c0,0.389-0.146,0.729-0.422,1.004s-0.616,0.404-1.005,0.404h-17.329c-0.389,0-0.729-0.145-1.004-0.42
		c-0.276-0.275-0.422-0.617-0.422-1.039L374.817,59.359L374.817,59.359z M396.222,42.023v-1.411c0-0.405,0.129-0.746,0.404-1.021
		s0.616-0.405,1.021-0.405h19.16c0.404,0,0.745,0.129,1.021,0.405c0.275,0.275,0.405,0.616,0.405,1.021v1.411
		c0,0.405-0.13,0.746-0.405,1.021c-0.276,0.275-0.616,0.405-1.021,0.405h-6.727v15.982c0,0.391-0.146,0.73-0.422,0.99
		c-0.275,0.275-0.616,0.404-1.005,0.404h-2.854c-0.389,0-0.729-0.129-1.005-0.404c-0.275-0.26-0.421-0.6-0.421-0.99V43.45h-6.728
		c-0.405,0-0.746-0.13-1.021-0.405C396.351,42.785,396.221,42.445,396.222,42.023L396.222,42.023L396.222,42.023z"/>
	<path fill-rule="evenodd" clip-rule="evenodd" fill="#172C42" d="M49.877,11.93c20.943,0,37.931,16.988,37.931,37.931
		c0,20.944-16.987,37.93-37.931,37.93c-20.943,0-37.931-16.986-37.931-37.93C11.946,28.918,28.934,11.93,49.877,11.93L49.877,11.93z
		"/>
	<path fill="#172C42" d="M89.542,49.861h-3.469l0,0l-0.049-1.864l-0.146-1.832l-0.227-1.815l-0.324-1.783l-0.405-1.751l-0.486-1.718
		l-0.567-1.686l-0.648-1.638l-0.729-1.604l-0.794-1.556l-0.875-1.524l-0.94-1.475l-1.005-1.426l-1.069-1.362l-1.135-1.313
		l-1.2-1.264l-1.264-1.2l-1.313-1.135l-1.362-1.07l-1.427-1.005l-1.475-0.94l-1.507-0.875l-1.556-0.794l-1.604-0.729l-1.638-0.648
		l-1.686-0.567L58.923,14.8l-1.751-0.405l-1.783-0.324l-1.815-0.227l-1.832-0.146l-1.864-0.048V10.18l2.042,0.049l2.01,0.146
		l1.978,0.26l1.961,0.356l1.913,0.438l1.88,0.535l1.848,0.616l1.799,0.713l1.75,0.794l1.718,0.875l1.653,0.956l1.605,1.038
		l1.556,1.102l1.491,1.184l1.443,1.248l1.377,1.313l1.313,1.378l1.249,1.443l1.184,1.491l1.102,1.556l1.038,1.605l0.956,1.653
		l0.875,1.718l0.794,1.75l0.713,1.8l0.616,1.848l0.535,1.88l0.438,1.913l0.356,1.961l0.259,1.978l0.146,2.01l0.049,2.042l0,0
		L89.542,49.861L89.542,49.861z M49.877,89.525v-3.469l0,0l1.864-0.049l1.832-0.145l1.815-0.227l1.783-0.324l1.751-0.406
		l1.718-0.486l1.686-0.566l1.637-0.648l1.605-0.73l1.556-0.793l1.507-0.875l1.475-0.941l1.426-1.004l1.362-1.07l1.313-1.135
		l1.265-1.199l1.199-1.266l1.135-1.313l1.069-1.361l1.005-1.426l0.94-1.477l0.875-1.523l0.794-1.557l0.729-1.604l0.649-1.637
		l0.567-1.688l0.486-1.717l0.405-1.752l0.324-1.781l0.228-1.816l0.146-1.832l0.049-1.864h3.469l-0.049,2.043l-0.146,2.01
		l-0.26,1.977l-0.356,1.961l-0.438,1.914l-0.535,1.881l-0.616,1.848l-0.713,1.799l-0.794,1.75l-0.875,1.719L83.803,70.4
		l-1.038,1.604l-1.102,1.557l-1.184,1.49l-1.249,1.443l-1.313,1.377l-1.377,1.314l-1.442,1.248l-1.492,1.184l-1.556,1.102
		l-1.605,1.037l-1.653,0.957l-1.718,0.875l-1.75,0.795l-1.799,0.713l-1.848,0.615l-1.88,0.535l-1.913,0.438l-1.961,0.357
		l-1.978,0.258l-2.01,0.146l-2.042,0.049l0,0L49.877,89.525L49.877,89.525z M10.212,49.861h3.469l0,0l0.049,1.864l0.146,1.832
		l0.227,1.816l0.324,1.781l0.405,1.752l0.486,1.717l0.567,1.688l0.648,1.637l0.729,1.605l0.794,1.555l0.875,1.508l0.94,1.475
		l1.005,1.428l1.07,1.361l1.135,1.313l1.199,1.264l1.265,1.201l1.313,1.135l1.361,1.068l1.427,1.006l1.475,0.939l1.507,0.875
		l1.556,0.795l1.604,0.729l1.637,0.648l1.686,0.568l1.718,0.486l1.75,0.404l1.783,0.324l1.816,0.227l1.831,0.146l1.864,0.049v3.469
		l-2.042-0.049l-2.01-0.146l-1.978-0.26l-1.961-0.355l-1.913-0.438l-1.88-0.535l-1.848-0.615l-1.799-0.715l-1.751-0.793
		l-1.718-0.875l-1.653-0.957l-1.604-1.037l-1.556-1.102l-1.491-1.184l-1.442-1.248l-1.378-1.314l-1.313-1.377l-1.248-1.443
		l-1.184-1.49l-1.103-1.557l-1.038-1.605l-0.956-1.652l-0.875-1.719l-0.794-1.75l-0.714-1.799l-0.615-1.85l-0.536-1.879
		l-0.438-1.914l-0.356-1.961l-0.259-1.977l-0.146-2.012l-0.049-2.042l0,0L10.212,49.861L10.212,49.861z M49.877,10.196v3.469l0,0
		l-1.864,0.048l-1.832,0.146l-1.815,0.227l-1.783,0.325l-1.75,0.405l-1.718,0.486l-1.686,0.567l-1.637,0.648l-1.605,0.729
		l-1.556,0.794l-1.507,0.875l-1.476,0.94l-1.426,1.005l-1.362,1.07l-1.313,1.135l-1.264,1.199l-1.2,1.265l-1.135,1.313l-1.07,1.362
		l-1.005,1.426l-0.94,1.475l-0.875,1.524l-0.794,1.556l-0.729,1.605l-0.648,1.637l-0.567,1.686l-0.486,1.719l-0.405,1.75
		l-0.324,1.783l-0.227,1.815l-0.146,1.832l-0.048,1.864h-3.469l0.049-2.042l0.146-2.011l0.26-1.977l0.356-1.962l0.438-1.913
		l0.535-1.88l0.616-1.848l0.713-1.799l0.794-1.75l0.875-1.718l0.956-1.653l1.038-1.604l1.102-1.556l1.184-1.491l1.248-1.442
		l1.313-1.378l1.378-1.313l1.443-1.248l1.491-1.184l1.556-1.103l1.604-1.038l1.654-0.956l1.718-0.875l1.751-0.794l1.799-0.713
		l1.848-0.616l1.88-0.535l1.913-0.438l1.961-0.356l1.978-0.259l2.01-0.146l2.042-0.048l0,0L49.877,10.196L49.877,10.196z"/>
	<polygon fill="#172C42" points="48.678,19.225 48.678,0 51.093,0 51.109,19.225 48.678,19.225 	"/>
	<polygon fill="#172C42" points="48.661,99.965 48.645,80.74 51.077,80.74 51.093,99.965 48.661,99.965 	"/>
	<polygon fill="#172C42" points="19.225,50.898 0,50.898 0,48.483 19.225,48.467 19.225,50.898 	"/>
	<polygon fill="#382246" points="99.641,50.914 80.432,50.932 80.416,48.5 99.641,48.483 99.641,50.914 	"/>
	<path fill-rule="evenodd" clip-rule="evenodd" fill="#FFFFFF" d="M49.877,35.905c-0.811-0.033-1.491,0.016-3.193,0.195l-1.945-2.74
		l1.086-1.718c-0.956,0.583-1.491,1.249-2.156,2.156c0.681,1.297,1.086,1.815,2.156,2.853c-0.389,1.005-0.486,0.859-0.875,1.686
		c-0.389,0.875-0.454,1.443-0.697,1.961l-5.301-0.259c-0.908-1.508-1.783-3.209-2.902-4.847c-1.426-2.091-0.859-2.756,0.13-5.625
		c2.205-6.387,3.664-7.262,4.944-10.245c-3.177,2.561-7.148,9.466-8.219,15.739l1.848-0.535l2.626,5.333
		c1.037,2.091,0.567,1.508,5.868,2.205c2.755,0.356,1.815,0.227,3.696,1.622l-2.513,0.389l-0.762,2.27
		c-3.695-1.475-3.485-4.409-7.424-2.658c-2.593,1.15-5.301,2.188-7.845,3.274c-0.487-0.713-0.859-1.637-1.524-2.318
		c-3.939,7.375-5.739,17.701-4.847,26.373c1.572-8.316,1.135-11.574,5.041-20.635c1.281-2.967,2.74-2.448,7.586-4.134
		c1.653-0.567,2.917-1.442,4.263-0.454c0.956,0.713,2.496,1.848,3.177,2.853c-8.088,3.243-5.106-3.599-11.379,10.633l-2.367-0.648
		c2.335,7.83,6.971,16.891,11.46,19.76l-1.264-2.074c-2.61-3.939-5.479-9.531-6.841-14.379c-0.583-2.09,0.422-2.982,1.216-4.457
		c3.582-6.598,2.399-5.641,5.835-5.9c1.767-0.129,3.145-0.404,4.96-0.422c0.129,5.414,2.253,12.984,4.847,16
		c0.859-1.168,0.259-0.893,1.232-1.361l0.097,0.129l0,0l0.097-0.129c0.973,0.469,0.373,0.193,1.232,1.361
		c2.61-3.016,4.717-10.568,4.847-16c1.815,0.018,3.193,0.293,4.96,0.422c3.437,0.275,2.253-0.697,5.835,5.9
		c0.794,1.475,1.799,2.35,1.216,4.457c-1.346,4.848-4.231,10.439-6.841,14.379l-1.264,2.074c4.49-2.869,9.126-11.93,11.46-19.76
		l-2.367,0.648c-6.273-14.231-3.291-7.391-11.379-10.633c0.681-1.005,2.221-2.14,3.177-2.853c1.346-0.989,2.61-0.113,4.263,0.454
		c4.847,1.686,6.322,1.167,7.586,4.134c3.906,9.061,3.469,12.318,5.041,20.635c0.908-8.656-0.891-18.982-4.847-26.373
		c-0.664,0.681-1.037,1.604-1.524,2.318c-2.544-1.086-5.252-2.124-7.845-3.274c-3.939-1.751-3.729,1.183-7.424,2.658l-0.762-2.27
		l-2.513-0.389c1.88-1.394,0.94-1.265,3.696-1.622c5.284-0.697,4.831-0.113,5.868-2.205l2.626-5.333l1.832,0.535
		c-1.086-6.273-5.057-13.194-8.218-15.739c1.28,2.966,2.755,3.857,4.944,10.245c0.989,2.853,1.54,3.533,0.129,5.625
		c-1.118,1.653-1.994,3.339-2.901,4.847l-5.301,0.259c-0.243-0.519-0.309-1.086-0.697-1.961c-0.373-0.843-0.486-0.697-0.875-1.686
		c1.07-1.038,1.475-1.556,2.156-2.853c-0.664-0.924-1.216-1.572-2.156-2.156l1.086,1.718l-1.945,2.74
		c-1.702-0.163-2.383-0.227-3.193-0.195l0,0H49.877L49.877,35.905z"/>
	<polygon fill="#FFFFFF" points="48.678,19.225 48.678,10.244 51.093,10.244 51.109,19.225 48.678,19.225 	"/>
	<polygon fill="#FFFFFF" points="99.641,50.914 80.432,50.932 80.416,48.5 99.641,48.483 99.641,50.914 	"/>
	<polygon fill="#FFFFFF" points="48.661,89.412 48.645,80.74 51.077,80.74 51.093,89.412 48.661,89.412 	"/>
	<polygon fill="#FFFFFF" points="19.225,50.898 10.245,50.898 10.245,48.483 19.225,48.467 19.225,50.898 	"/>
	<polygon fill="#172C42" points="99.641,50.914 89.526,50.932 89.526,48.5 99.641,48.483 99.641,50.914 	"/>
</g>
</svg>
