<?xml version="1.0" encoding="UTF-8"?>
<!DOCTYPE svg PUBLIC "-//W3C//DTD SVG 1.1//EN" "http://www.w3.org/Graphics/SVG/1.1/DTD/svg11.dtd">
<!-- Creator: CorelDRAW X6 -->
<svg xmlns="http://www.w3.org/2000/svg" xml:space="preserve" width="113.302mm" height="28.7594mm" version="1.1" style="shape-rendering:geometricPrecision; text-rendering:geometricPrecision; image-rendering:optimizeQuality; fill-rule:evenodd; clip-rule:evenodd"
viewBox="0 0 11064 2808"
 xmlns:xlink="http://www.w3.org/1999/xlink">
 <defs>
  <style type="text/css">
   <![CDATA[
    .str0 {stroke:#382246;stroke-width:97.6507}
    .str1 {stroke:#FEFEFE;stroke-width:97.5628}
    .fil1 {fill:#FEFEFE}
    .fil3 {fill:#382246}
    .fil0 {fill:#FEFEFE;fill-rule:nonzero}
    .fil2 {fill:#382246;fill-rule:nonzero}
   ]]>
  </style>
 </defs>
 <g id="Слой_x0020_1">
  <metadata id="CorelCorpID_0Corel-Layer"/>
  <path class="fil0 str0" d="M3275 1634l0 -479c0,-10 3,-19 10,-26 7,-7 15,-11 25,-11l499 0c10,0 19,4 25,11 7,7 11,16 11,26l0 479c0,10 -4,19 -11,25 -7,7 -16,11 -26,11l-72 0c-10,0 -19,-4 -26,-11 -7,-7 -11,-15 -11,-25l0 -407 -281 0 0 407c0,10 -4,19 -11,25 -7,7 -15,11 -25,11l-72 0c-10,0 -19,-4 -26,-11 -7,-7 -11,-15 -11,-25zm636 1l97 -366c26,-100 111,-150 255,-150l207 0c9,0 17,4 24,11 6,7 9,15 9,25l0 481c0,10 -4,18 -11,25 -7,7 -16,10 -26,10l-72 0c-11,0 -19,-3 -26,-10 -7,-7 -10,-15 -10,-26l0 -97 -273 0 -26 97c-3,11 -8,19 -17,26 -9,7 -18,10 -28,10l-76 0c-10,0 -18,-3 -23,-10 -4,-5 -5,-10 -5,-16 0,-3 1,-6 1,-9zm204 -206l243 0 0 -201 -109 0c-24,0 -46,7 -64,21 -18,14 -31,33 -37,56l-33 123zm499 206l0 -479c0,-10 3,-19 10,-26 7,-7 15,-11 25,-11l294 0c155,0 232,71 232,214 0,143 -77,214 -232,214l-184 0 0 87c0,10 -4,19 -11,26 -7,7 -15,11 -25,11l-72 0c-10,0 -19,-4 -26,-11 -7,-7 -11,-15 -11,-25zm145 -196l140 0c43,0 76,-7 98,-22 22,-15 33,-43 33,-84 0,-41 -11,-69 -33,-84 -22,-14 -55,-22 -98,-22l-140 0 0 211zm419 196l97 -366c26,-100 111,-150 255,-150l207 0c9,0 17,4 24,11 6,7 9,15 9,25l0 481c0,10 -4,18 -11,25 -7,7 -16,10 -26,10l-72 0c-11,0 -19,-3 -26,-10 -7,-7 -10,-15 -10,-26l0 -97 -273 0 -26 97c-3,11 -8,19 -17,26 -9,7 -18,10 -28,10l-76 0c-10,0 -18,-3 -23,-10 -4,-5 -5,-10 -5,-16 0,-3 1,-6 1,-9zm204 -206l243 0 0 -201 -109 0c-24,0 -46,7 -64,21 -18,14 -31,33 -37,56l-33 123zm463 91c0,-15 4,-26 14,-33 9,-7 18,-10 26,-10l45 0c24,0 42,14 55,43 6,14 17,24 32,33 15,8 32,12 50,12l120 0c28,0 49,-4 63,-13 14,-9 21,-24 21,-46 0,-22 -7,-37 -21,-46 -14,-9 -35,-13 -63,-13l-99 0c-10,0 -19,-4 -26,-11 -7,-7 -11,-15 -11,-26l0 -32c0,-10 3,-18 10,-25 7,-7 15,-11 24,-11l87 0c31,0 54,-5 68,-14 14,-9 22,-24 22,-45 0,-21 -7,-36 -22,-45 -15,-9 -37,-14 -68,-14l-94 0c-41,0 -70,16 -86,47 -12,24 -29,36 -52,36l-46 0c-5,0 -10,-1 -15,-3 -5,-2 -11,-6 -16,-13 -6,-7 -8,-16 -8,-27 0,-44 22,-79 66,-107 44,-28 92,-42 143,-42l118 0c149,0 224,56 224,168 0,47 -18,84 -53,111 41,25 61,62 61,111 0,59 -19,102 -56,128 -37,26 -90,39 -160,39l-147 0c-52,0 -100,-14 -144,-43 -44,-29 -66,-66 -66,-111zm651 114l0 -479c0,-10 4,-19 11,-26 7,-7 16,-10 27,-10l70 0c10,0 19,3 26,10 7,7 11,15 11,25l0 385 221 -384c6,-10 14,-19 24,-26 10,-7 20,-11 29,-11l115 0c10,0 19,4 26,11 7,7 11,16 11,26l0 479c0,10 -4,19 -11,25 -7,7 -16,11 -27,11l-70 0c-10,0 -19,-4 -26,-11 -7,-7 -11,-15 -11,-25l0 -357 -203 357c-6,10 -14,19 -25,25 -11,7 -21,11 -32,11l-128 0c-10,0 -19,-4 -26,-11 -7,-7 -11,-15 -11,-25zm624 -443l0 -36c0,-10 3,-19 10,-26 7,-7 16,-10 26,-10l488 0c11,0 19,3 26,10 7,7 10,16 10,26l0 36c0,11 -3,19 -10,26 -7,7 -16,10 -26,10l-172 0 0 407c0,10 -4,19 -11,25 -7,7 -15,10 -25,10l-73 0c-10,0 -19,-3 -25,-10 -7,-7 -11,-15 -11,-25l0 -407 -172 0c-11,0 -19,-3 -26,-10 -7,-7 -10,-15 -10,-26zm648 422c-53,-46 -79,-119 -79,-219 0,-100 26,-173 79,-219 53,-46 130,-69 231,-69 102,0 178,23 231,69 52,46 79,119 79,219 0,100 -26,173 -79,219 -52,46 -129,69 -231,69 -101,0 -178,-23 -231,-69zm105 -356c-26,31 -39,77 -39,138 0,61 13,107 39,138 26,31 68,46 126,46 58,0 100,-15 126,-46 26,-31 39,-77 39,-138 0,-61 -13,-107 -39,-138 -26,-31 -68,-46 -126,-46 -58,0 -100,15 -126,46zm514 -102c0,-10 4,-19 11,-26 7,-7 16,-11 26,-11l313 0c35,0 67,5 96,14 29,10 53,27 74,51 20,24 30,54 30,90 0,39 -17,73 -52,101 50,26 74,69 74,129 0,53 -20,94 -59,123 -39,29 -88,44 -145,44l-331 0c-10,0 -19,-4 -26,-11 -7,-7 -11,-15 -11,-25l0 -479zm145 411l220 0c20,0 35,-6 46,-18 10,-12 16,-28 16,-48 0,-20 -5,-37 -16,-48 -11,-12 -26,-18 -45,-18l-220 0 0 132zm0 -236l206 0c16,0 29,-5 39,-14 10,-9 15,-22 15,-39 0,-17 -5,-30 -15,-40 -10,-9 -23,-14 -39,-14l-206 0 0 107zm481 292l0 -24c0,-17 4,-30 13,-39 9,-9 21,-13 37,-13l45 0c16,0 29,4 37,13 9,9 13,22 13,39l0 24c0,16 -4,29 -13,38 -9,9 -21,14 -37,14l-45 0c-16,0 -28,-5 -37,-14 -9,-9 -13,-22 -13,-38zm238 12l0 -479c0,-10 4,-19 11,-26 7,-7 16,-11 27,-11l72 0c10,0 19,4 25,11 7,7 11,16 11,26l0 173 265 0 0 -173c0,-10 4,-19 11,-26 7,-7 16,-11 26,-11l72 0c11,0 19,4 26,11 7,7 11,16 11,26l0 479c0,10 -4,19 -11,25 -7,7 -16,11 -26,11l-72 0c-10,0 -19,-3 -26,-10 -7,-7 -11,-15 -11,-25l0 -198 -265 0 0 198c0,10 -4,19 -11,25 -7,7 -15,10 -25,10l-72 0c-10,0 -19,-4 -26,-11 -7,-7 -11,-15 -11,-25zm665 -1l0 -479c0,-10 4,-18 11,-25 7,-7 16,-10 26,-10l443 0c10,0 19,4 26,11 7,7 11,16 11,26l0 36c0,10 -4,19 -11,26 -7,7 -15,10 -26,10l-335 0 0 112 289 0c10,0 19,4 25,11 7,7 11,16 11,26l0 36c0,10 -4,19 -11,26 -7,7 -15,11 -25,11l-289 0 0 113 334 0c10,0 18,3 25,10 7,7 10,15 10,25l0 37c0,10 -4,19 -11,26 -7,7 -16,11 -26,11l-442 0c-10,0 -19,-4 -26,-11 -7,-7 -11,-16 -11,-26zm540 -442l0 -36c0,-10 3,-19 10,-26 7,-7 16,-10 26,-10l488 0c11,0 19,3 26,10 7,7 10,16 10,26l0 36c0,11 -3,19 -10,26 -7,7 -16,10 -26,10l-172 0 0 407c0,10 -4,19 -11,25 -7,7 -15,10 -25,10l-73 0c-10,0 -19,-3 -25,-10 -7,-7 -11,-15 -11,-25l0 -407 -172 0c-11,0 -19,-3 -26,-10 -7,-7 -10,-15 -10,-26z"/>
  <path class="fil0" d="M3275 1634l0 -479c0,-10 3,-19 10,-26 7,-7 15,-11 25,-11l499 0c10,0 19,4 25,11 7,7 11,16 11,26l0 479c0,10 -4,19 -11,25 -7,7 -16,11 -26,11l-72 0c-10,0 -19,-4 -26,-11 -7,-7 -11,-15 -11,-25l0 -407 -281 0 0 407c0,10 -4,19 -11,25 -7,7 -15,11 -25,11l-72 0c-10,0 -19,-4 -26,-11 -7,-7 -11,-15 -11,-25zm636 1l97 -366c26,-100 111,-150 255,-150l207 0c9,0 17,4 24,11 6,7 9,15 9,25l0 481c0,10 -4,18 -11,25 -7,7 -16,10 -26,10l-72 0c-11,0 -19,-3 -26,-10 -7,-7 -10,-15 -10,-26l0 -97 -273 0 -26 97c-3,11 -8,19 -17,26 -9,7 -18,10 -28,10l-76 0c-10,0 -18,-3 -23,-10 -4,-5 -5,-10 -5,-16 0,-3 1,-6 1,-9zm204 -206l243 0 0 -201 -109 0c-24,0 -46,7 -64,21 -18,14 -31,33 -37,56l-33 123zm499 206l0 -479c0,-10 3,-19 10,-26 7,-7 15,-11 25,-11l294 0c155,0 232,71 232,214 0,143 -77,214 -232,214l-184 0 0 87c0,10 -4,19 -11,26 -7,7 -15,11 -25,11l-72 0c-10,0 -19,-4 -26,-11 -7,-7 -11,-15 -11,-25zm145 -196l140 0c43,0 76,-7 98,-22 22,-15 33,-43 33,-84 0,-41 -11,-69 -33,-84 -22,-14 -55,-22 -98,-22l-140 0 0 211zm419 196l97 -366c26,-100 111,-150 255,-150l207 0c9,0 17,4 24,11 6,7 9,15 9,25l0 481c0,10 -4,18 -11,25 -7,7 -16,10 -26,10l-72 0c-11,0 -19,-3 -26,-10 -7,-7 -10,-15 -10,-26l0 -97 -273 0 -26 97c-3,11 -8,19 -17,26 -9,7 -18,10 -28,10l-76 0c-10,0 -18,-3 -23,-10 -4,-5 -5,-10 -5,-16 0,-3 1,-6 1,-9zm204 -206l243 0 0 -201 -109 0c-24,0 -46,7 -64,21 -18,14 -31,33 -37,56l-33 123zm463 91c0,-15 4,-26 14,-33 9,-7 18,-10 26,-10l45 0c24,0 42,14 55,43 6,14 17,24 32,33 15,8 32,12 50,12l120 0c28,0 49,-4 63,-13 14,-9 21,-24 21,-46 0,-22 -7,-37 -21,-46 -14,-9 -35,-13 -63,-13l-99 0c-10,0 -19,-4 -26,-11 -7,-7 -11,-15 -11,-26l0 -32c0,-10 3,-18 10,-25 7,-7 15,-11 24,-11l87 0c31,0 54,-5 68,-14 14,-9 22,-24 22,-45 0,-21 -7,-36 -22,-45 -15,-9 -37,-14 -68,-14l-94 0c-41,0 -70,16 -86,47 -12,24 -29,36 -52,36l-46 0c-5,0 -10,-1 -15,-3 -5,-2 -11,-6 -16,-13 -6,-7 -8,-16 -8,-27 0,-44 22,-79 66,-107 44,-28 92,-42 143,-42l118 0c149,0 224,56 224,168 0,47 -18,84 -53,111 41,25 61,62 61,111 0,59 -19,102 -56,128 -37,26 -90,39 -160,39l-147 0c-52,0 -100,-14 -144,-43 -44,-29 -66,-66 -66,-111zm651 114l0 -479c0,-10 4,-19 11,-26 7,-7 16,-10 27,-10l70 0c10,0 19,3 26,10 7,7 11,15 11,25l0 385 221 -384c6,-10 14,-19 24,-26 10,-7 20,-11 29,-11l115 0c10,0 19,4 26,11 7,7 11,16 11,26l0 479c0,10 -4,19 -11,25 -7,7 -16,11 -27,11l-70 0c-10,0 -19,-4 -26,-11 -7,-7 -11,-15 -11,-25l0 -357 -203 357c-6,10 -14,19 -25,25 -11,7 -21,11 -32,11l-128 0c-10,0 -19,-4 -26,-11 -7,-7 -11,-15 -11,-25zm624 -443l0 -36c0,-10 3,-19 10,-26 7,-7 16,-10 26,-10l488 0c11,0 19,3 26,10 7,7 10,16 10,26l0 36c0,11 -3,19 -10,26 -7,7 -16,10 -26,10l-172 0 0 407c0,10 -4,19 -11,25 -7,7 -15,10 -25,10l-73 0c-10,0 -19,-3 -25,-10 -7,-7 -11,-15 -11,-25l0 -407 -172 0c-11,0 -19,-3 -26,-10 -7,-7 -10,-15 -10,-26zm648 422c-53,-46 -79,-119 -79,-219 0,-100 26,-173 79,-219 53,-46 130,-69 231,-69 102,0 178,23 231,69 52,46 79,119 79,219 0,100 -26,173 -79,219 -52,46 -129,69 -231,69 -101,0 -178,-23 -231,-69zm105 -356c-26,31 -39,77 -39,138 0,61 13,107 39,138 26,31 68,46 126,46 58,0 100,-15 126,-46 26,-31 39,-77 39,-138 0,-61 -13,-107 -39,-138 -26,-31 -68,-46 -126,-46 -58,0 -100,15 -126,46zm514 -102c0,-10 4,-19 11,-26 7,-7 16,-11 26,-11l313 0c35,0 67,5 96,14 29,10 53,27 74,51 20,24 30,54 30,90 0,39 -17,73 -52,101 50,26 74,69 74,129 0,53 -20,94 -59,123 -39,29 -88,44 -145,44l-331 0c-10,0 -19,-4 -26,-11 -7,-7 -11,-15 -11,-25l0 -479zm145 411l220 0c20,0 35,-6 46,-18 10,-12 16,-28 16,-48 0,-20 -5,-37 -16,-48 -11,-12 -26,-18 -45,-18l-220 0 0 132zm0 -236l206 0c16,0 29,-5 39,-14 10,-9 15,-22 15,-39 0,-17 -5,-30 -15,-40 -10,-9 -23,-14 -39,-14l-206 0 0 107zm481 292l0 -24c0,-17 4,-30 13,-39 9,-9 21,-13 37,-13l45 0c16,0 29,4 37,13 9,9 13,22 13,39l0 24c0,16 -4,29 -13,38 -9,9 -21,14 -37,14l-45 0c-16,0 -28,-5 -37,-14 -9,-9 -13,-22 -13,-38zm238 12l0 -479c0,-10 4,-19 11,-26 7,-7 16,-11 27,-11l72 0c10,0 19,4 25,11 7,7 11,16 11,26l0 173 265 0 0 -173c0,-10 4,-19 11,-26 7,-7 16,-11 26,-11l72 0c11,0 19,4 26,11 7,7 11,16 11,26l0 479c0,10 -4,19 -11,25 -7,7 -16,11 -26,11l-72 0c-10,0 -19,-3 -26,-10 -7,-7 -11,-15 -11,-25l0 -198 -265 0 0 198c0,10 -4,19 -11,25 -7,7 -15,10 -25,10l-72 0c-10,0 -19,-4 -26,-11 -7,-7 -11,-15 -11,-25zm665 -1l0 -479c0,-10 4,-18 11,-25 7,-7 16,-10 26,-10l443 0c10,0 19,4 26,11 7,7 11,16 11,26l0 36c0,10 -4,19 -11,26 -7,7 -15,10 -26,10l-335 0 0 112 289 0c10,0 19,4 25,11 7,7 11,16 11,26l0 36c0,10 -4,19 -11,26 -7,7 -15,11 -25,11l-289 0 0 113 334 0c10,0 18,3 25,10 7,7 10,15 10,25l0 37c0,10 -4,19 -11,26 -7,7 -16,11 -26,11l-442 0c-10,0 -19,-4 -26,-11 -7,-7 -11,-16 -11,-26zm540 -442l0 -36c0,-10 3,-19 10,-26 7,-7 16,-10 26,-10l488 0c11,0 19,3 26,10 7,7 10,16 10,26l0 36c0,11 -3,19 -10,26 -7,7 -16,10 -26,10l-172 0 0 407c0,10 -4,19 -11,25 -7,7 -15,10 -25,10l-73 0c-10,0 -19,-3 -25,-10 -7,-7 -11,-15 -11,-25l0 -407 -172 0c-11,0 -19,-3 -26,-10 -7,-7 -10,-15 -10,-26z"/>
  <g id="_830584544">
   <path class="fil1 str1" d="M1401 335c589,0 1066,477 1066,1066 0,589 -477,1066 -1066,1066 -589,0 -1066,-477 -1066,-1066 0,-589 477,-1066 1066,-1066z"/>
   <g>
    <polygon class="fil2" points="1367,540 1367,0 1435,0 1436,540 "/>
   </g>
   <g>
    <polygon class="fil2" points="1367,2808 1367,2268 1435,2268 1435,2808 "/>
   </g>
   <g>
    <polygon class="fil2" points="540,1430 0,1430 0,1362 540,1362 "/>
   </g>
   <g>
    <polygon class="fil2" points="2799,1430 2259,1431 2259,1362 2799,1362 "/>
   </g>
   <path class="fil3" d="M1401 1008c-23,-1 -42,1 -90,5l-55 -77 31 -48c-27,17 -42,35 -61,61 19,37 31,51 61,80 -11,28 -14,24 -24,48 -11,25 -13,40 -20,55l-149 -7c-26,-42 -50,-90 -82,-136 -40,-59 -24,-78 4,-158 62,-179 103,-204 139,-288 -89,72 -201,266 -231,442l52 -15 74 150c29,59 16,43 165,62 77,10 51,6 104,46l-71 11 -21 64c-104,-41 -98,-124 -209,-75 -73,32 -149,62 -220,92 -14,-20 -24,-46 -43,-65 -111,207 -161,497 -136,741 44,-233 32,-325 142,-579 36,-83 77,-69 213,-116 46,-16 82,-41 120,-13 27,20 70,52 89,80 -227,91 -143,-101 -320,299l-67 -18c65,220 196,474 322,555l-35 -58c-73,-111 -154,-268 -192,-404 -16,-59 12,-84 34,-125 101,-185 67,-158 164,-166 50,-4 89,-11 139,-12 4,152 63,365 136,449 24,-33 7,-25 34,-38l3 3 0 0 3 -3c27,13 10,5 34,38 73,-85 132,-297 136,-449 51,1 90,8 139,12 97,8 63,-20 164,166 22,41 50,66 34,125 -38,136 -119,293 -192,404l-35 58c126,-80 256,-335 322,-555l-67 18c-176,-400 -93,-208 -320,-299 19,-28 62,-60 89,-80 38,-28 73,-3 120,13 136,47 177,33 213,116 110,254 97,346 142,579 25,-243 -25,-533 -136,-741 -19,19 -29,45 -43,65 -72,-30 -148,-60 -220,-92 -111,-49 -105,33 -209,75l-21 -64 -71 -11c53,-39 26,-35 104,-46 149,-19 136,-3 165,-62l74 -150 52 15c-30,-176 -142,-370 -231,-442 36,83 77,108 139,288 28,80 43,99 4,158 -32,46 -56,94 -82,136l-149 7c-7,-15 -9,-31 -20,-55 -11,-23 -14,-19 -24,-48 30,-29 41,-44 61,-80 -19,-26 -34,-44 -61,-61l31 48 -55 77c-48,-5 -67,-6 -90,-5l0 0z"/>
  </g>
 </g>
</svg>
