<?xml version="1.0" encoding="UTF-8"?>
<!DOCTYPE svg PUBLIC "-//W3C//DTD SVG 1.1//EN" "http://www.w3.org/Graphics/SVG/1.1/DTD/svg11.dtd">
<!-- Creator: CorelDRAW X6 -->
<svg xmlns="http://www.w3.org/2000/svg" xml:space="preserve" width="113.302mm" height="28.7594mm" version="1.1" style="shape-rendering:geometricPrecision; text-rendering:geometricPrecision; image-rendering:optimizeQuality; fill-rule:evenodd; clip-rule:evenodd"
viewBox="0 0 11479 2914"
 xmlns:xlink="http://www.w3.org/1999/xlink">
 <defs>
  <style type="text/css">
   <![CDATA[
    .str0 {stroke:#382246;stroke-width:101.316}
    .str1 {stroke:#382246;stroke-width:101.225}
    .fil3 {fill:#FEFEFE}
    .fil1 {fill:#382246}
    .fil0 {fill:#FEFEFE;fill-rule:nonzero}
    .fil2 {fill:#382246;fill-rule:nonzero}
   ]]>
  </style>
 </defs>
 <g id="Слой_x0020_1">
  <metadata id="CorelCorpID_0Corel-Layer"/>
  <path class="fil0 str0" d="M3398 1695l0 -497c0,-10 4,-19 11,-27 7,-7 16,-11 26,-11l518 0c10,0 19,4 26,11 7,7 11,16 11,27l0 497c0,10 -4,19 -11,26 -8,7 -17,11 -27,11l-74 0c-10,0 -19,-4 -27,-11 -7,-7 -11,-16 -11,-26l0 -422 -292 0 0 422c0,10 -4,19 -11,26 -7,7 -16,11 -26,11l-75 0c-10,0 -19,-4 -27,-11 -7,-7 -11,-16 -11,-26zm660 1l100 -380c27,-103 115,-155 265,-155l215 0c10,0 18,4 25,11 7,7 10,16 10,26l0 499c0,10 -4,19 -11,26 -7,7 -16,11 -27,11l-75 0c-11,0 -20,-4 -27,-11 -7,-7 -11,-16 -11,-27l0 -101 -283 0 -27 101c-3,11 -9,20 -18,27 -9,7 -19,10 -30,10l-79 0c-10,0 -18,-4 -24,-11 -4,-5 -6,-10 -6,-16 0,-3 1,-6 1,-10zm212 -214l252 0 0 -208 -113 0c-25,0 -48,7 -67,22 -19,15 -32,34 -38,59l-34 128zm517 214l0 -497c0,-10 4,-19 11,-27 7,-7 16,-11 26,-11l305 0c161,0 241,74 241,222 0,148 -80,222 -241,222l-191 0 0 90c0,10 -4,19 -11,27 -7,7 -16,11 -26,11l-75 0c-10,0 -19,-4 -27,-11 -7,-7 -11,-16 -11,-26zm150 -203l146 0c45,0 78,-7 102,-22 23,-15 35,-44 35,-87 0,-43 -12,-72 -35,-87 -23,-15 -57,-22 -102,-22l-146 0 0 219zm434 204l100 -380c27,-103 115,-155 265,-155l215 0c10,0 18,4 25,11 7,7 10,16 10,26l0 499c0,10 -4,19 -11,26 -7,7 -16,11 -27,11l-75 0c-11,0 -20,-4 -27,-11 -7,-7 -11,-16 -11,-27l0 -101 -283 0 -27 101c-3,11 -9,20 -18,27 -9,7 -19,10 -30,10l-79 0c-10,0 -18,-4 -24,-11 -4,-5 -6,-10 -6,-16 0,-3 1,-6 1,-10zm212 -214l252 0 0 -208 -113 0c-25,0 -48,7 -67,22 -19,15 -32,34 -38,59l-34 128zm481 95c0,-16 5,-27 14,-34 9,-7 18,-10 27,-10l47 0c25,0 44,15 57,44 7,14 18,25 34,34 16,8 33,13 52,13l125 0c29,0 51,-5 65,-14 14,-9 22,-25 22,-47 0,-22 -7,-38 -22,-47 -14,-9 -36,-14 -65,-14l-103 0c-10,0 -19,-4 -27,-11 -7,-7 -11,-16 -11,-27l0 -33c0,-10 4,-19 11,-26 7,-8 15,-11 25,-11l90 0c32,0 56,-5 71,-14 15,-10 22,-25 22,-47 0,-22 -7,-37 -22,-47 -15,-10 -39,-14 -71,-14l-97 0c-43,0 -73,16 -89,49 -12,25 -30,38 -54,38l-47 0c-5,0 -10,-1 -15,-3 -5,-2 -11,-6 -17,-14 -6,-7 -9,-17 -9,-28 0,-45 23,-82 69,-111 46,-29 95,-44 149,-44l123 0c155,0 232,58 232,175 0,48 -18,87 -55,115 42,26 63,64 63,115 0,61 -19,106 -58,133 -38,27 -94,41 -166,41l-153 0c-54,0 -104,-15 -149,-45 -46,-30 -68,-68 -68,-115zm675 119l0 -497c0,-11 4,-20 11,-27 7,-7 17,-11 28,-11l73 0c11,0 20,4 27,11 7,7 11,16 11,26l0 400 229 -399c6,-10 15,-19 25,-27 11,-7 21,-11 30,-11l119 0c10,0 19,4 27,11 7,7 11,16 11,27l0 497c0,10 -4,19 -12,26 -8,7 -17,11 -28,11l-73 0c-11,0 -20,-4 -27,-11 -7,-7 -11,-16 -11,-26l0 -370 -210 370c-6,10 -15,19 -26,26 -11,7 -22,11 -33,11l-133 0c-10,0 -19,-4 -27,-11 -7,-7 -11,-16 -11,-26zm647 -459l0 -37c0,-11 4,-20 11,-27 7,-7 16,-11 27,-11l506 0c11,0 20,4 27,11 7,7 11,16 11,27l0 37c0,11 -4,20 -11,27 -7,7 -16,11 -27,11l-178 0 0 423c0,10 -4,19 -11,26 -7,7 -16,11 -26,11l-75 0c-10,0 -19,-4 -26,-11 -7,-7 -11,-16 -11,-26l0 -423 -178 0c-11,0 -20,-4 -27,-11 -7,-7 -11,-16 -11,-27zm672 438c-55,-48 -82,-123 -82,-227 0,-104 27,-179 82,-227 55,-48 134,-72 240,-72 105,0 185,24 240,72 54,48 82,123 82,227 0,104 -27,179 -82,227 -54,48 -134,72 -240,72 -105,0 -185,-24 -240,-72zm109 -369c-27,32 -40,79 -40,143 0,63 13,111 40,143 27,32 71,48 131,48 60,0 104,-16 130,-48 27,-32 40,-79 40,-143 0,-63 -13,-111 -40,-143 -27,-32 -70,-48 -130,-48 -60,0 -103,16 -131,48zm533 -106c0,-10 4,-19 11,-27 7,-7 16,-11 27,-11l324 0c37,0 70,5 100,15 30,10 55,28 76,53 21,25 31,56 31,93 0,41 -18,76 -54,105 51,27 77,72 77,133 0,55 -20,97 -61,127 -41,30 -91,45 -150,45l-343 0c-10,0 -19,-4 -27,-11 -7,-7 -11,-16 -11,-26l0 -497zm150 426l228 0c21,0 37,-6 47,-18 11,-12 16,-29 16,-50 0,-21 -5,-38 -16,-50 -11,-12 -27,-18 -47,-18l-228 0 0 137zm0 -245l214 0c17,0 30,-5 40,-15 10,-10 15,-23 15,-41 0,-17 -5,-31 -15,-41 -10,-10 -24,-15 -40,-15l-214 0 0 111zm499 303l0 -25c0,-18 4,-31 13,-40 9,-9 22,-14 38,-14l47 0c17,0 30,5 38,14 9,9 13,23 13,40l0 25c0,17 -4,30 -13,40 -9,10 -22,14 -38,14l-47 0c-17,0 -30,-5 -38,-14 -9,-10 -13,-23 -13,-40zm247 12l0 -497c0,-10 4,-19 11,-27 7,-7 17,-11 28,-11l74 0c10,0 19,4 26,11 7,7 11,16 11,27l0 180 275 0 0 -180c0,-10 4,-19 11,-27 7,-7 16,-11 27,-11l74 0c11,0 20,4 27,11 7,7 11,16 11,27l0 497c0,10 -4,19 -11,26 -8,7 -17,11 -27,11l-74 0c-10,0 -19,-4 -27,-11 -7,-7 -11,-16 -11,-26l0 -205 -275 0 0 205c0,10 -4,19 -11,26 -7,7 -16,11 -26,11l-74 0c-10,0 -19,-4 -27,-11 -8,-7 -12,-16 -12,-26zm690 -1l0 -497c0,-10 4,-19 11,-26 7,-7 16,-11 27,-11l460 0c10,0 19,4 27,11 7,7 11,16 11,27l0 37c0,10 -4,19 -11,27 -7,7 -16,11 -27,11l-347 0 0 116 299 0c10,0 19,4 26,11 7,7 11,16 11,27l0 38c0,10 -4,19 -11,27 -7,7 -16,11 -26,11l-299 0 0 118 347 0c10,0 19,4 26,11 7,7 11,16 11,26l0 38c0,10 -4,19 -11,27 -7,7 -16,11 -27,11l-458 0c-10,0 -19,-4 -27,-11 -7,-7 -11,-16 -11,-27zm560 -459l0 -37c0,-11 4,-20 11,-27 7,-7 16,-11 27,-11l506 0c11,0 20,4 27,11 7,7 11,16 11,27l0 37c0,11 -4,20 -11,27 -7,7 -16,11 -27,11l-178 0 0 423c0,10 -4,19 -11,26 -7,7 -16,11 -26,11l-75 0c-10,0 -19,-4 -26,-11 -7,-7 -11,-16 -11,-26l0 -423 -178 0c-11,0 -20,-4 -27,-11 -7,-7 -11,-16 -11,-27z"/>
  <path class="fil0" d="M3398 1695l0 -497c0,-10 4,-19 11,-27 7,-7 16,-11 26,-11l518 0c10,0 19,4 26,11 7,7 11,16 11,27l0 497c0,10 -4,19 -11,26 -8,7 -17,11 -27,11l-74 0c-10,0 -19,-4 -27,-11 -7,-7 -11,-16 -11,-26l0 -422 -292 0 0 422c0,10 -4,19 -11,26 -7,7 -16,11 -26,11l-75 0c-10,0 -19,-4 -27,-11 -7,-7 -11,-16 -11,-26zm660 1l100 -380c27,-103 115,-155 265,-155l215 0c10,0 18,4 25,11 7,7 10,16 10,26l0 499c0,10 -4,19 -11,26 -7,7 -16,11 -27,11l-75 0c-11,0 -20,-4 -27,-11 -7,-7 -11,-16 -11,-27l0 -101 -283 0 -27 101c-3,11 -9,20 -18,27 -9,7 -19,10 -30,10l-79 0c-10,0 -18,-4 -24,-11 -4,-5 -6,-10 -6,-16 0,-3 1,-6 1,-10zm212 -214l252 0 0 -208 -113 0c-25,0 -48,7 -67,22 -19,15 -32,34 -38,59l-34 128zm517 214l0 -497c0,-10 4,-19 11,-27 7,-7 16,-11 26,-11l305 0c161,0 241,74 241,222 0,148 -80,222 -241,222l-191 0 0 90c0,10 -4,19 -11,27 -7,7 -16,11 -26,11l-75 0c-10,0 -19,-4 -27,-11 -7,-7 -11,-16 -11,-26zm150 -203l146 0c45,0 78,-7 102,-22 23,-15 35,-44 35,-87 0,-43 -12,-72 -35,-87 -23,-15 -57,-22 -102,-22l-146 0 0 219zm434 204l100 -380c27,-103 115,-155 265,-155l215 0c10,0 18,4 25,11 7,7 10,16 10,26l0 499c0,10 -4,19 -11,26 -7,7 -16,11 -27,11l-75 0c-11,0 -20,-4 -27,-11 -7,-7 -11,-16 -11,-27l0 -101 -283 0 -27 101c-3,11 -9,20 -18,27 -9,7 -19,10 -30,10l-79 0c-10,0 -18,-4 -24,-11 -4,-5 -6,-10 -6,-16 0,-3 1,-6 1,-10zm212 -214l252 0 0 -208 -113 0c-25,0 -48,7 -67,22 -19,15 -32,34 -38,59l-34 128zm481 95c0,-16 5,-27 14,-34 9,-7 18,-10 27,-10l47 0c25,0 44,15 57,44 7,14 18,25 34,34 16,8 33,13 52,13l125 0c29,0 51,-5 65,-14 14,-9 22,-25 22,-47 0,-22 -7,-38 -22,-47 -14,-9 -36,-14 -65,-14l-103 0c-10,0 -19,-4 -27,-11 -7,-7 -11,-16 -11,-27l0 -33c0,-10 4,-19 11,-26 7,-8 15,-11 25,-11l90 0c32,0 56,-5 71,-14 15,-10 22,-25 22,-47 0,-22 -7,-37 -22,-47 -15,-10 -39,-14 -71,-14l-97 0c-43,0 -73,16 -89,49 -12,25 -30,38 -54,38l-47 0c-5,0 -10,-1 -15,-3 -5,-2 -11,-6 -17,-14 -6,-7 -9,-17 -9,-28 0,-45 23,-82 69,-111 46,-29 95,-44 149,-44l123 0c155,0 232,58 232,175 0,48 -18,87 -55,115 42,26 63,64 63,115 0,61 -19,106 -58,133 -38,27 -94,41 -166,41l-153 0c-54,0 -104,-15 -149,-45 -46,-30 -68,-68 -68,-115zm675 119l0 -497c0,-11 4,-20 11,-27 7,-7 17,-11 28,-11l73 0c11,0 20,4 27,11 7,7 11,16 11,26l0 400 229 -399c6,-10 15,-19 25,-27 11,-7 21,-11 30,-11l119 0c10,0 19,4 27,11 7,7 11,16 11,27l0 497c0,10 -4,19 -12,26 -8,7 -17,11 -28,11l-73 0c-11,0 -20,-4 -27,-11 -7,-7 -11,-16 -11,-26l0 -370 -210 370c-6,10 -15,19 -26,26 -11,7 -22,11 -33,11l-133 0c-10,0 -19,-4 -27,-11 -7,-7 -11,-16 -11,-26zm647 -459l0 -37c0,-11 4,-20 11,-27 7,-7 16,-11 27,-11l506 0c11,0 20,4 27,11 7,7 11,16 11,27l0 37c0,11 -4,20 -11,27 -7,7 -16,11 -27,11l-178 0 0 423c0,10 -4,19 -11,26 -7,7 -16,11 -26,11l-75 0c-10,0 -19,-4 -26,-11 -7,-7 -11,-16 -11,-26l0 -423 -178 0c-11,0 -20,-4 -27,-11 -7,-7 -11,-16 -11,-27zm672 438c-55,-48 -82,-123 -82,-227 0,-104 27,-179 82,-227 55,-48 134,-72 240,-72 105,0 185,24 240,72 54,48 82,123 82,227 0,104 -27,179 -82,227 -54,48 -134,72 -240,72 -105,0 -185,-24 -240,-72zm109 -369c-27,32 -40,79 -40,143 0,63 13,111 40,143 27,32 71,48 131,48 60,0 104,-16 130,-48 27,-32 40,-79 40,-143 0,-63 -13,-111 -40,-143 -27,-32 -70,-48 -130,-48 -60,0 -103,16 -131,48zm533 -106c0,-10 4,-19 11,-27 7,-7 16,-11 27,-11l324 0c37,0 70,5 100,15 30,10 55,28 76,53 21,25 31,56 31,93 0,41 -18,76 -54,105 51,27 77,72 77,133 0,55 -20,97 -61,127 -41,30 -91,45 -150,45l-343 0c-10,0 -19,-4 -27,-11 -7,-7 -11,-16 -11,-26l0 -497zm150 426l228 0c21,0 37,-6 47,-18 11,-12 16,-29 16,-50 0,-21 -5,-38 -16,-50 -11,-12 -27,-18 -47,-18l-228 0 0 137zm0 -245l214 0c17,0 30,-5 40,-15 10,-10 15,-23 15,-41 0,-17 -5,-31 -15,-41 -10,-10 -24,-15 -40,-15l-214 0 0 111zm499 303l0 -25c0,-18 4,-31 13,-40 9,-9 22,-14 38,-14l47 0c17,0 30,5 38,14 9,9 13,23 13,40l0 25c0,17 -4,30 -13,40 -9,10 -22,14 -38,14l-47 0c-17,0 -30,-5 -38,-14 -9,-10 -13,-23 -13,-40zm247 12l0 -497c0,-10 4,-19 11,-27 7,-7 17,-11 28,-11l74 0c10,0 19,4 26,11 7,7 11,16 11,27l0 180 275 0 0 -180c0,-10 4,-19 11,-27 7,-7 16,-11 27,-11l74 0c11,0 20,4 27,11 7,7 11,16 11,27l0 497c0,10 -4,19 -11,26 -8,7 -17,11 -27,11l-74 0c-10,0 -19,-4 -27,-11 -7,-7 -11,-16 -11,-26l0 -205 -275 0 0 205c0,10 -4,19 -11,26 -7,7 -16,11 -26,11l-74 0c-10,0 -19,-4 -27,-11 -8,-7 -12,-16 -12,-26zm690 -1l0 -497c0,-10 4,-19 11,-26 7,-7 16,-11 27,-11l460 0c10,0 19,4 27,11 7,7 11,16 11,27l0 37c0,10 -4,19 -11,27 -7,7 -16,11 -27,11l-347 0 0 116 299 0c10,0 19,4 26,11 7,7 11,16 11,27l0 38c0,10 -4,19 -11,27 -7,7 -16,11 -26,11l-299 0 0 118 347 0c10,0 19,4 26,11 7,7 11,16 11,26l0 38c0,10 -4,19 -11,27 -7,7 -16,11 -27,11l-458 0c-10,0 -19,-4 -27,-11 -7,-7 -11,-16 -11,-27zm560 -459l0 -37c0,-11 4,-20 11,-27 7,-7 16,-11 27,-11l506 0c11,0 20,4 27,11 7,7 11,16 11,27l0 37c0,11 -4,20 -11,27 -7,7 -16,11 -27,11l-178 0 0 423c0,10 -4,19 -11,26 -7,7 -16,11 -26,11l-75 0c-10,0 -19,-4 -26,-11 -7,-7 -11,-16 -11,-26l0 -423 -178 0c-11,0 -20,-4 -27,-11 -7,-7 -11,-16 -11,-27z"/>
  <path class="fil1 str1" d="M1454 348c611,0 1106,495 1106,1106 0,611 -495,1106 -1106,1106 -611,0 -1106,-495 -1106,-1106 0,-611 495,-1106 1106,-1106z"/>
  <g>
   <polygon class="fil2" points="1419,560 1419,0 1489,0 1490,560 "/>
  </g>
  <g>
   <polygon class="fil2" points="1418,2914 1418,2353 1489,2353 1489,2914 "/>
  </g>
  <g>
   <polygon class="fil2" points="560,1484 0,1484 0,1413 560,1413 "/>
  </g>
  <g>
   <polygon class="fil2" points="2904,1484 2344,1484 2344,1414 2904,1413 "/>
  </g>
  <path class="fil3" d="M1454 1046c-23,-1 -43,1 -93,6l-57 -80 32 -50c-28,17 -43,36 -63,63 20,38 32,53 63,83 -11,29 -14,25 -25,49 -12,25 -13,42 -20,57l-155 -7c-27,-44 -52,-93 -85,-141 -41,-61 -25,-81 4,-164 64,-186 107,-212 144,-298 -92,75 -208,276 -240,459l54 -15 77 155c30,61 17,44 171,64 80,10 53,7 108,47l-73 11 -22 66c-108,-43 -102,-128 -216,-77 -76,34 -154,64 -229,95 -14,-21 -25,-48 -44,-67 -115,215 -167,516 -141,769 46,-242 33,-337 147,-601 37,-86 80,-72 221,-121 48,-17 85,-42 124,-13 28,21 73,54 93,83 -236,95 -149,-105 -332,310l-69 -19c68,228 203,492 334,576l-37 -60c-76,-115 -160,-278 -199,-419 -17,-61 12,-87 35,-130 104,-192 70,-164 170,-172 51,-4 92,-12 145,-12 4,158 65,378 141,466 25,-34 8,-26 36,-40l3 4 0 0 3 -4c28,14 11,6 36,40 76,-88 137,-308 141,-466 53,1 93,8 145,12 100,8 66,-20 170,172 23,43 52,69 35,130 -39,141 -123,304 -199,419l-37 60c131,-83 266,-348 334,-576l-69 19c-183,-415 -96,-215 -332,-310 20,-29 65,-62 93,-83 39,-29 76,-3 124,13 141,49 184,34 221,121 114,264 101,359 147,601 26,-253 -26,-553 -141,-769 -19,20 -30,47 -44,67 -74,-31 -153,-62 -229,-95 -115,-51 -109,34 -216,77l-22 -66 -73 -11c55,-41 27,-37 108,-47 154,-20 141,-3 171,-64l77 -155 54 15c-32,-183 -147,-384 -240,-459 37,87 80,112 144,298 29,83 45,103 4,164 -33,48 -58,97 -85,141l-155 7c-7,-15 -9,-32 -20,-57 -11,-24 -14,-20 -25,-49 31,-30 43,-45 63,-83 -20,-27 -35,-46 -63,-63l32 50 -57 80c-49,-5 -69,-6 -93,-6l0 0z"/>
  <g>
   <polygon class="fil0" points="1419,560 1419,299 1489,299 1490,560 "/>
  </g>
  <g>
   <polygon class="fil0" points="2904,1484 2344,1484 2344,1414 2904,1413 "/>
  </g>
  <g>
   <polygon class="fil0" points="1418,2606 1418,2353 1489,2353 1489,2606 "/>
  </g>
  <g>
   <polygon class="fil0" points="560,1484 299,1484 299,1413 560,1413 "/>
  </g>
  <g>
   <polygon class="fil2" points="2904,1484 2609,1484 2609,1414 2904,1413 "/>
  </g>
 </g>
</svg>
