<?xml version="1.0" encoding="UTF-8"?>
<!DOCTYPE svg PUBLIC "-//W3C//DTD SVG 1.1//EN" "http://www.w3.org/Graphics/SVG/1.1/DTD/svg11.dtd">
<!-- Creator: CorelDRAW X6 -->
<svg xmlns="http://www.w3.org/2000/svg" xml:space="preserve" width="113.329mm" height="28.7594mm" version="1.1" style="shape-rendering:geometricPrecision; text-rendering:geometricPrecision; image-rendering:optimizeQuality; fill-rule:evenodd; clip-rule:evenodd"
viewBox="0 0 11137 2826"
 xmlns:xlink="http://www.w3.org/1999/xlink">
 <defs>
  <style type="text/css">
   <![CDATA[
    .str1 {stroke:#382246;stroke-width:98.2709}
    .str0 {stroke:#382246;stroke-width:98.1825}
    .fil1 {fill:#FEFEFE}
    .fil3 {fill:#382246}
    .fil0 {fill:#FEFEFE;fill-rule:nonzero}
    .fil2 {fill:#382246;fill-rule:nonzero}
   ]]>
  </style>
 </defs>
 <g id="Слой_x0020_1">
  <metadata id="CorelCorpID_0Corel-Layer"/>
  <path class="fil0" d="M3296 1585l0 -482c0,-10 3,-19 10,-26 7,-7 15,-11 26,-11l503 0c10,0 19,4 26,11 7,7 11,16 11,26l0 482c0,10 -4,19 -11,26 -7,7 -16,11 -26,11l-72 0c-10,0 -19,-4 -26,-11 -7,-7 -11,-16 -11,-26l0 -409 -283 0 0 409c0,10 -4,19 -11,26 -7,7 -16,11 -26,11l-73 0c-10,0 -19,-4 -26,-11 -7,-7 -11,-16 -11,-26zm640 1l97 -369c26,-100 112,-151 257,-151l209 0c10,0 17,4 24,11 6,7 10,16 10,25l0 484c0,10 -4,19 -11,25 -7,7 -16,10 -26,10l-73 0c-11,0 -19,-3 -26,-10 -7,-7 -10,-15 -10,-26l0 -98 -274 0 -26 98c-3,11 -8,19 -18,26 -9,7 -19,10 -29,10l-76 0c-10,0 -18,-3 -23,-10 -4,-5 -5,-10 -5,-16 0,-3 1,-6 1,-9zm205 -208l245 0 0 -202 -110 0c-25,0 -46,7 -65,21 -18,14 -31,33 -37,57l-33 124zm502 207l0 -482c0,-10 3,-19 10,-26 7,-7 15,-11 26,-11l295 0c156,0 234,72 234,216 0,144 -78,216 -234,216l-185 0 0 87c0,10 -4,19 -11,26 -7,7 -16,11 -26,11l-73 0c-10,0 -19,-4 -26,-11 -7,-7 -11,-16 -11,-26zm146 -197l141 0c43,0 76,-7 99,-22 22,-15 34,-43 34,-84 0,-42 -11,-70 -34,-84 -22,-15 -55,-22 -99,-22l-141 0 0 213zm421 197l97 -369c26,-100 112,-151 257,-151l209 0c10,0 17,4 24,11 6,7 10,16 10,25l0 484c0,10 -4,19 -11,25 -7,7 -16,10 -26,10l-73 0c-11,0 -19,-3 -26,-10 -7,-7 -10,-15 -10,-26l0 -98 -274 0 -26 98c-3,11 -8,19 -18,26 -9,7 -19,10 -29,10l-76 0c-10,0 -18,-3 -23,-10 -4,-5 -5,-10 -5,-16 0,-3 1,-6 1,-9zm205 -208l245 0 0 -202 -110 0c-25,0 -46,7 -65,21 -18,14 -31,33 -37,57l-33 124zm466 92c0,-15 4,-26 14,-33 9,-7 18,-10 26,-10l46 0c24,0 42,14 56,43 6,14 17,25 33,33 15,8 32,12 51,12l121 0c28,0 49,-5 63,-13 14,-9 21,-24 21,-46 0,-22 -7,-37 -21,-46 -14,-9 -35,-13 -63,-13l-100 0c-10,0 -19,-4 -26,-11 -7,-7 -11,-16 -11,-26l0 -32c0,-10 3,-18 10,-25 7,-7 15,-11 25,-11l87 0c31,0 54,-5 69,-14 15,-9 22,-24 22,-45 0,-21 -7,-36 -22,-45 -15,-9 -38,-14 -69,-14l-94 0c-42,0 -71,16 -87,48 -12,24 -29,36 -52,36l-46 0c-5,0 -10,-1 -15,-3 -5,-2 -11,-6 -16,-13 -6,-7 -8,-16 -8,-27 0,-44 22,-80 67,-108 44,-28 93,-42 144,-42l119 0c150,0 225,56 225,169 0,47 -18,84 -53,111 41,25 61,63 61,112 0,60 -19,103 -56,129 -37,26 -91,40 -161,40l-148 0c-52,0 -101,-14 -145,-43 -44,-29 -66,-66 -66,-111zm655 115l0 -482c0,-11 4,-19 11,-26 7,-7 16,-10 27,-10l70 0c10,0 19,3 27,10 7,7 11,15 11,26l0 388 222 -387c6,-10 14,-19 25,-26 10,-7 20,-11 29,-11l115 0c10,0 19,4 26,11 7,7 11,16 11,26l0 482c0,10 -4,19 -11,26 -7,7 -16,11 -27,11l-70 0c-10,0 -19,-4 -27,-11 -7,-7 -11,-16 -11,-26l0 -359 -204 359c-6,10 -14,19 -25,26 -11,7 -22,11 -32,11l-129 0c-10,0 -19,-4 -26,-11 -7,-7 -11,-16 -11,-26zm628 -446l0 -36c0,-11 3,-19 10,-26 7,-7 16,-10 26,-10l491 0c11,0 19,3 26,10 7,7 10,16 10,26l0 36c0,11 -3,19 -10,26 -7,7 -16,10 -26,10l-173 0 0 410c0,10 -4,19 -11,25 -7,7 -16,10 -26,10l-73 0c-10,0 -19,-3 -26,-10 -7,-7 -11,-15 -11,-25l0 -410 -173 0c-11,0 -19,-3 -26,-10 -7,-7 -10,-15 -10,-26zm652 425c-53,-46 -79,-120 -79,-220 0,-100 26,-174 79,-220 53,-46 130,-69 232,-69 102,0 180,23 232,69 53,46 79,120 79,220 0,100 -26,174 -79,220 -53,46 -130,69 -232,69 -102,0 -179,-23 -232,-69zm106 -358c-26,31 -39,77 -39,138 0,61 13,107 39,138 26,31 68,46 127,46 58,0 100,-15 126,-46 26,-31 39,-77 39,-138 0,-61 -13,-107 -39,-138 -26,-31 -68,-47 -126,-47 -58,0 -100,15 -127,47zm517 -103c0,-10 4,-19 11,-26 7,-7 16,-11 26,-11l315 0c35,0 68,5 97,15 29,10 54,27 74,51 20,24 31,55 31,91 0,40 -17,74 -52,102 50,27 75,70 74,129 0,53 -20,94 -59,124 -40,29 -88,44 -146,44l-333 0c-10,0 -19,-4 -26,-11 -7,-7 -11,-16 -11,-26l0 -482zm146 414l222 0c20,0 35,-6 46,-18 10,-12 16,-28 16,-49 0,-21 -5,-37 -16,-49 -11,-12 -26,-18 -46,-18l-222 0 0 133zm0 -238l207 0c16,0 29,-5 39,-14 10,-9 15,-23 15,-40 0,-17 -5,-30 -15,-40 -10,-10 -23,-14 -39,-14l-207 0 0 108zm484 294l0 -24c0,-17 4,-30 13,-39 9,-9 21,-13 37,-13l46 0c16,0 29,4 37,13 9,9 13,22 13,39l0 24c0,16 -4,29 -13,38 -9,9 -21,14 -37,14l-46 0c-16,0 -29,-5 -37,-14 -9,-9 -13,-22 -13,-38zm239 12l0 -482c0,-10 4,-19 11,-26 7,-7 16,-11 27,-11l72 0c10,0 19,4 26,11 7,7 11,16 11,26l0 174 266 0 0 -174c0,-10 4,-19 11,-26 7,-7 16,-11 26,-11l72 0c11,0 19,4 26,11 7,7 11,16 11,26l0 482c0,10 -4,19 -11,26 -7,7 -16,11 -26,11l-72 0c-10,0 -19,-3 -26,-10 -7,-7 -11,-15 -11,-25l0 -199 -266 0 0 199c0,10 -4,19 -11,25 -7,7 -16,10 -26,10l-72 0c-10,0 -19,-4 -26,-11 -8,-7 -11,-16 -11,-26zm669 -1l0 -482c0,-10 4,-19 11,-26 7,-7 16,-10 26,-10l446 0c10,0 19,4 26,11 7,7 11,16 11,26l0 36c0,10 -4,19 -11,26 -7,7 -16,11 -26,11l-337 0 0 113 290 0c10,0 19,4 26,11 7,7 11,16 11,26l0 36c0,10 -4,19 -11,26 -7,7 -16,11 -26,11l-290 0 0 114 336 0c10,0 19,3 25,10 7,7 10,15 10,26l0 37c0,10 -4,19 -11,26 -7,7 -16,11 -26,11l-444 0c-10,0 -19,-4 -26,-11 -7,-7 -11,-16 -11,-26zm543 -445l0 -36c0,-11 3,-19 10,-26 7,-7 16,-10 26,-10l491 0c11,0 19,3 26,10 7,7 10,16 10,26l0 36c0,11 -3,19 -10,26 -7,7 -16,10 -26,10l-173 0 0 410c0,10 -4,19 -11,25 -7,7 -16,10 -26,10l-73 0c-10,0 -19,-3 -26,-10 -7,-7 -11,-15 -11,-25l0 -410 -173 0c-11,0 -19,-3 -26,-10 -7,-7 -10,-15 -10,-26z"/>
  <path class="fil1 str0" d="M1410 337c592,0 1072,480 1072,1072 0,592 -480,1072 -1072,1072 -592,0 -1072,-480 -1072,-1072 0,-592 480,-1072 1072,-1072z"/>
  <g>
   <polygon class="fil2" points="1376,543 1376,0 1445,0 1445,543 "/>
  </g>
  <g>
   <polygon class="fil2" points="1376,2826 1375,2283 1444,2283 1444,2826 "/>
  </g>
  <g>
   <polygon class="fil2" points="543,1439 0,1439 0,1371 543,1370 "/>
  </g>
  <g>
   <polygon class="fil2" points="2817,1439 2274,1440 2274,1371 2817,1371 "/>
  </g>
  <path class="fil3" d="M1410 1015c-23,-1 -42,1 -90,5l-55 -77 31 -48c-27,17 -42,35 -61,61 19,37 31,51 61,81 -11,28 -14,24 -25,48 -11,25 -13,41 -20,55l-150 -7c-26,-43 -50,-91 -82,-137 -40,-59 -24,-78 4,-159 62,-181 104,-206 140,-289 -90,72 -202,268 -233,445l52 -15 74 151c29,59 16,43 166,62 78,10 51,6 104,46l-71 11 -21 64c-104,-42 -99,-125 -210,-75 -73,33 -150,62 -222,92 -14,-20 -24,-46 -43,-65 -112,209 -162,501 -137,746 44,-235 32,-327 142,-583 36,-84 78,-69 215,-117 47,-16 82,-41 120,-13 27,20 71,52 90,81 -229,92 -144,-102 -322,301l-67 -19c66,221 197,478 324,558l-36 -59c-74,-111 -155,-270 -193,-406 -17,-59 12,-84 34,-126 101,-187 68,-159 165,-167 50,-4 89,-12 140,-12 4,153 64,367 137,452 24,-33 7,-25 35,-38l3 4 0 0 3 -3c27,13 10,6 35,38 74,-85 133,-299 137,-452 51,1 90,8 140,12 97,8 64,-20 165,167 23,42 51,67 34,126 -38,137 -120,295 -193,406l-36 59c127,-81 258,-337 324,-558l-67 19c-178,-402 -93,-209 -322,-301 19,-28 63,-61 90,-81 38,-28 74,-3 120,13 137,48 178,33 215,117 110,256 98,348 142,583 26,-245 -25,-537 -137,-746 -19,19 -29,45 -43,65 -72,-31 -149,-60 -222,-92 -111,-49 -105,33 -210,75l-21 -64 -71 -11c53,-39 26,-36 104,-46 150,-20 136,-3 166,-62l74 -151 52 15c-31,-178 -143,-373 -233,-445 36,84 78,109 140,289 28,81 44,100 4,159 -32,47 -56,95 -82,137l-150 7c-7,-15 -9,-31 -20,-55 -11,-24 -14,-20 -25,-48 30,-29 42,-44 61,-81 -19,-26 -34,-45 -61,-61l31 48 -55 77c-48,-5 -67,-6 -90,-5l0 0z"/>
  <g>
   <polygon class="fil2" points="2817,1439 2531,1440 2531,1371 2817,1371 "/>
  </g>
  <path class="fil0 str1" d="M3298 1631l0 -482c0,-10 3,-19 10,-26 7,-7 15,-11 26,-11l503 0c10,0 19,4 26,11 7,7 11,16 11,26l0 482c0,10 -4,19 -11,26 -7,7 -16,11 -26,11l-72 0c-10,0 -19,-4 -26,-11 -7,-7 -11,-16 -11,-26l0 -409 -283 0 0 409c0,10 -4,19 -11,26 -7,7 -16,11 -26,11l-73 0c-10,0 -19,-4 -26,-11 -7,-7 -11,-16 -11,-26zm640 1l97 -369c26,-100 112,-151 257,-151l209 0c10,0 17,4 24,11 6,7 10,16 10,25l0 484c0,10 -4,19 -11,25 -7,7 -16,10 -26,10l-73 0c-11,0 -19,-3 -26,-10 -7,-7 -10,-15 -10,-26l0 -98 -274 0 -26 98c-3,11 -8,19 -18,26 -9,7 -19,10 -29,10l-76 0c-10,0 -18,-3 -23,-10 -4,-5 -5,-10 -5,-16 0,-3 1,-6 1,-9zm205 -208l245 0 0 -202 -110 0c-25,0 -46,7 -65,21 -18,14 -31,33 -37,57l-33 124zm502 207l0 -482c0,-10 3,-19 10,-26 7,-7 15,-11 26,-11l295 0c156,0 234,72 234,216 0,144 -78,216 -234,216l-185 0 0 87c0,10 -4,19 -11,26 -7,7 -16,11 -26,11l-73 0c-10,0 -19,-4 -26,-11 -7,-7 -11,-16 -11,-26zm146 -197l141 0c43,0 76,-7 99,-22 22,-15 34,-43 34,-84 0,-42 -11,-70 -34,-84 -22,-15 -55,-22 -99,-22l-141 0 0 213zm421 197l97 -369c26,-100 112,-151 257,-151l209 0c10,0 17,4 24,11 6,7 10,16 10,25l0 484c0,10 -4,19 -11,25 -7,7 -16,10 -26,10l-73 0c-11,0 -19,-3 -26,-10 -7,-7 -10,-15 -10,-26l0 -98 -274 0 -26 98c-3,11 -8,19 -18,26 -9,7 -19,10 -29,10l-76 0c-10,0 -18,-3 -23,-10 -4,-5 -5,-10 -5,-16 0,-3 1,-6 1,-9zm205 -208l245 0 0 -202 -110 0c-25,0 -46,7 -65,21 -18,14 -31,33 -37,57l-33 124zm466 92c0,-15 4,-26 14,-33 9,-7 18,-10 26,-10l46 0c24,0 42,14 56,43 6,14 17,25 33,33 15,8 32,12 51,12l121 0c28,0 49,-5 63,-13 14,-9 21,-24 21,-46 0,-22 -7,-37 -21,-46 -14,-9 -35,-13 -63,-13l-100 0c-10,0 -19,-4 -26,-11 -7,-7 -11,-16 -11,-26l0 -32c0,-10 3,-18 10,-25 7,-7 15,-11 25,-11l87 0c31,0 54,-5 69,-14 15,-9 22,-24 22,-45 0,-21 -7,-36 -22,-45 -15,-9 -38,-14 -69,-14l-94 0c-42,0 -71,16 -87,48 -12,24 -29,36 -52,36l-46 0c-5,0 -10,-1 -15,-3 -5,-2 -11,-6 -16,-13 -6,-7 -8,-16 -8,-27 0,-44 22,-80 67,-108 44,-28 93,-42 144,-42l119 0c150,0 225,56 225,169 0,47 -18,84 -53,111 41,25 61,63 61,112 0,60 -19,103 -56,129 -37,26 -91,40 -161,40l-148 0c-52,0 -101,-14 -145,-43 -44,-29 -66,-66 -66,-111zm655 115l0 -482c0,-11 4,-19 11,-26 7,-7 16,-10 27,-10l70 0c10,0 19,3 27,10 7,7 11,15 11,26l0 388 222 -387c6,-10 14,-19 25,-26 10,-7 20,-11 29,-11l115 0c10,0 19,4 26,11 7,7 11,16 11,26l0 482c0,10 -4,19 -11,26 -7,7 -16,11 -27,11l-70 0c-10,0 -19,-4 -27,-11 -7,-7 -11,-16 -11,-26l0 -359 -204 359c-6,10 -14,19 -25,26 -11,7 -22,11 -32,11l-129 0c-10,0 -19,-4 -26,-11 -7,-7 -11,-16 -11,-26zm628 -446l0 -36c0,-11 3,-19 10,-26 7,-7 16,-10 26,-10l491 0c11,0 19,3 26,10 7,7 10,16 10,26l0 36c0,11 -3,19 -10,26 -7,7 -16,10 -26,10l-173 0 0 410c0,10 -4,19 -11,25 -7,7 -16,10 -26,10l-73 0c-10,0 -19,-3 -26,-10 -7,-7 -11,-15 -11,-25l0 -410 -173 0c-11,0 -19,-3 -26,-10 -7,-7 -10,-15 -10,-26zm652 425c-53,-46 -79,-120 -79,-220 0,-100 26,-174 79,-220 53,-46 130,-69 232,-69 102,0 180,23 232,69 53,46 79,120 79,220 0,100 -26,174 -79,220 -53,46 -130,69 -232,69 -102,0 -179,-23 -232,-69zm106 -358c-26,31 -39,77 -39,138 0,61 13,107 39,138 26,31 68,46 127,46 58,0 100,-15 126,-46 26,-31 39,-77 39,-138 0,-61 -13,-107 -39,-138 -26,-31 -68,-47 -126,-47 -58,0 -100,15 -127,47zm517 -103c0,-10 4,-19 11,-26 7,-7 16,-11 26,-11l315 0c35,0 68,5 97,15 29,10 54,27 74,51 20,24 31,55 31,91 0,40 -17,74 -52,102 50,27 75,70 74,129 0,53 -20,94 -59,124 -40,29 -88,44 -146,44l-333 0c-10,0 -19,-4 -26,-11 -7,-7 -11,-16 -11,-26l0 -482zm146 414l222 0c20,0 35,-6 46,-18 10,-12 16,-28 16,-49 0,-21 -5,-37 -16,-49 -11,-12 -26,-18 -46,-18l-222 0 0 133zm0 -238l207 0c16,0 29,-5 39,-14 10,-9 15,-23 15,-40 0,-17 -5,-30 -15,-40 -10,-10 -23,-14 -39,-14l-207 0 0 108zm484 294l0 -24c0,-17 4,-30 13,-39 9,-9 21,-13 37,-13l46 0c16,0 29,4 37,13 9,9 13,22 13,39l0 24c0,16 -4,29 -13,38 -9,9 -21,14 -37,14l-46 0c-16,0 -29,-5 -37,-14 -9,-9 -13,-22 -13,-38zm239 12l0 -482c0,-10 4,-19 11,-26 7,-7 16,-11 27,-11l72 0c10,0 19,4 26,11 7,7 11,16 11,26l0 174 266 0 0 -174c0,-10 4,-19 11,-26 7,-7 16,-11 26,-11l72 0c11,0 19,4 26,11 7,7 11,16 11,26l0 482c0,10 -4,19 -11,26 -7,7 -16,11 -26,11l-72 0c-10,0 -19,-3 -26,-10 -7,-7 -11,-15 -11,-25l0 -199 -266 0 0 199c0,10 -4,19 -11,25 -7,7 -16,10 -26,10l-72 0c-10,0 -19,-4 -26,-11 -8,-7 -11,-16 -11,-26zm669 -1l0 -482c0,-10 4,-19 11,-26 7,-7 16,-10 26,-10l446 0c10,0 19,4 26,11 7,7 11,16 11,26l0 36c0,10 -4,19 -11,26 -7,7 -16,11 -26,11l-337 0 0 113 290 0c10,0 19,4 26,11 7,7 11,16 11,26l0 36c0,10 -4,19 -11,26 -7,7 -16,11 -26,11l-290 0 0 114 336 0c10,0 19,3 25,10 7,7 10,15 10,26l0 37c0,10 -4,19 -11,26 -7,7 -16,11 -26,11l-444 0c-10,0 -19,-4 -26,-11 -7,-7 -11,-16 -11,-26zm543 -445l0 -36c0,-11 3,-19 10,-26 7,-7 16,-10 26,-10l491 0c11,0 19,3 26,10 7,7 10,16 10,26l0 36c0,11 -3,19 -10,26 -7,7 -16,10 -26,10l-173 0 0 410c0,10 -4,19 -11,25 -7,7 -16,10 -26,10l-73 0c-10,0 -19,-3 -26,-10 -7,-7 -11,-15 -11,-25l0 -410 -173 0c-11,0 -19,-3 -26,-10 -7,-7 -10,-15 -10,-26z"/>
  <path class="fil0" d="M3298 1631l0 -482c0,-10 3,-19 10,-26 7,-7 15,-11 26,-11l503 0c10,0 19,4 26,11 7,7 11,16 11,26l0 482c0,10 -4,19 -11,26 -7,7 -16,11 -26,11l-72 0c-10,0 -19,-4 -26,-11 -7,-7 -11,-16 -11,-26l0 -409 -283 0 0 409c0,10 -4,19 -11,26 -7,7 -16,11 -26,11l-73 0c-10,0 -19,-4 -26,-11 -7,-7 -11,-16 -11,-26zm640 1l97 -369c26,-100 112,-151 257,-151l209 0c10,0 17,4 24,11 6,7 10,16 10,25l0 484c0,10 -4,19 -11,25 -7,7 -16,10 -26,10l-73 0c-11,0 -19,-3 -26,-10 -7,-7 -10,-15 -10,-26l0 -98 -274 0 -26 98c-3,11 -8,19 -18,26 -9,7 -19,10 -29,10l-76 0c-10,0 -18,-3 -23,-10 -4,-5 -5,-10 -5,-16 0,-3 1,-6 1,-9zm205 -208l245 0 0 -202 -110 0c-25,0 -46,7 -65,21 -18,14 -31,33 -37,57l-33 124zm502 207l0 -482c0,-10 3,-19 10,-26 7,-7 15,-11 26,-11l295 0c156,0 234,72 234,216 0,144 -78,216 -234,216l-185 0 0 87c0,10 -4,19 -11,26 -7,7 -16,11 -26,11l-73 0c-10,0 -19,-4 -26,-11 -7,-7 -11,-16 -11,-26zm146 -197l141 0c43,0 76,-7 99,-22 22,-15 34,-43 34,-84 0,-42 -11,-70 -34,-84 -22,-15 -55,-22 -99,-22l-141 0 0 213zm421 197l97 -369c26,-100 112,-151 257,-151l209 0c10,0 17,4 24,11 6,7 10,16 10,25l0 484c0,10 -4,19 -11,25 -7,7 -16,10 -26,10l-73 0c-11,0 -19,-3 -26,-10 -7,-7 -10,-15 -10,-26l0 -98 -274 0 -26 98c-3,11 -8,19 -18,26 -9,7 -19,10 -29,10l-76 0c-10,0 -18,-3 -23,-10 -4,-5 -5,-10 -5,-16 0,-3 1,-6 1,-9zm205 -208l245 0 0 -202 -110 0c-25,0 -46,7 -65,21 -18,14 -31,33 -37,57l-33 124zm466 92c0,-15 4,-26 14,-33 9,-7 18,-10 26,-10l46 0c24,0 42,14 56,43 6,14 17,25 33,33 15,8 32,12 51,12l121 0c28,0 49,-5 63,-13 14,-9 21,-24 21,-46 0,-22 -7,-37 -21,-46 -14,-9 -35,-13 -63,-13l-100 0c-10,0 -19,-4 -26,-11 -7,-7 -11,-16 -11,-26l0 -32c0,-10 3,-18 10,-25 7,-7 15,-11 25,-11l87 0c31,0 54,-5 69,-14 15,-9 22,-24 22,-45 0,-21 -7,-36 -22,-45 -15,-9 -38,-14 -69,-14l-94 0c-42,0 -71,16 -87,48 -12,24 -29,36 -52,36l-46 0c-5,0 -10,-1 -15,-3 -5,-2 -11,-6 -16,-13 -6,-7 -8,-16 -8,-27 0,-44 22,-80 67,-108 44,-28 93,-42 144,-42l119 0c150,0 225,56 225,169 0,47 -18,84 -53,111 41,25 61,63 61,112 0,60 -19,103 -56,129 -37,26 -91,40 -161,40l-148 0c-52,0 -101,-14 -145,-43 -44,-29 -66,-66 -66,-111zm655 115l0 -482c0,-11 4,-19 11,-26 7,-7 16,-10 27,-10l70 0c10,0 19,3 27,10 7,7 11,15 11,26l0 388 222 -387c6,-10 14,-19 25,-26 10,-7 20,-11 29,-11l115 0c10,0 19,4 26,11 7,7 11,16 11,26l0 482c0,10 -4,19 -11,26 -7,7 -16,11 -27,11l-70 0c-10,0 -19,-4 -27,-11 -7,-7 -11,-16 -11,-26l0 -359 -204 359c-6,10 -14,19 -25,26 -11,7 -22,11 -32,11l-129 0c-10,0 -19,-4 -26,-11 -7,-7 -11,-16 -11,-26zm628 -446l0 -36c0,-11 3,-19 10,-26 7,-7 16,-10 26,-10l491 0c11,0 19,3 26,10 7,7 10,16 10,26l0 36c0,11 -3,19 -10,26 -7,7 -16,10 -26,10l-173 0 0 410c0,10 -4,19 -11,25 -7,7 -16,10 -26,10l-73 0c-10,0 -19,-3 -26,-10 -7,-7 -11,-15 -11,-25l0 -410 -173 0c-11,0 -19,-3 -26,-10 -7,-7 -10,-15 -10,-26zm652 425c-53,-46 -79,-120 -79,-220 0,-100 26,-174 79,-220 53,-46 130,-69 232,-69 102,0 180,23 232,69 53,46 79,120 79,220 0,100 -26,174 -79,220 -53,46 -130,69 -232,69 -102,0 -179,-23 -232,-69zm106 -358c-26,31 -39,77 -39,138 0,61 13,107 39,138 26,31 68,46 127,46 58,0 100,-15 126,-46 26,-31 39,-77 39,-138 0,-61 -13,-107 -39,-138 -26,-31 -68,-47 -126,-47 -58,0 -100,15 -127,47zm517 -103c0,-10 4,-19 11,-26 7,-7 16,-11 26,-11l315 0c35,0 68,5 97,15 29,10 54,27 74,51 20,24 31,55 31,91 0,40 -17,74 -52,102 50,27 75,70 74,129 0,53 -20,94 -59,124 -40,29 -88,44 -146,44l-333 0c-10,0 -19,-4 -26,-11 -7,-7 -11,-16 -11,-26l0 -482zm146 414l222 0c20,0 35,-6 46,-18 10,-12 16,-28 16,-49 0,-21 -5,-37 -16,-49 -11,-12 -26,-18 -46,-18l-222 0 0 133zm0 -238l207 0c16,0 29,-5 39,-14 10,-9 15,-23 15,-40 0,-17 -5,-30 -15,-40 -10,-10 -23,-14 -39,-14l-207 0 0 108zm484 294l0 -24c0,-17 4,-30 13,-39 9,-9 21,-13 37,-13l46 0c16,0 29,4 37,13 9,9 13,22 13,39l0 24c0,16 -4,29 -13,38 -9,9 -21,14 -37,14l-46 0c-16,0 -29,-5 -37,-14 -9,-9 -13,-22 -13,-38zm239 12l0 -482c0,-10 4,-19 11,-26 7,-7 16,-11 27,-11l72 0c10,0 19,4 26,11 7,7 11,16 11,26l0 174 266 0 0 -174c0,-10 4,-19 11,-26 7,-7 16,-11 26,-11l72 0c11,0 19,4 26,11 7,7 11,16 11,26l0 482c0,10 -4,19 -11,26 -7,7 -16,11 -26,11l-72 0c-10,0 -19,-3 -26,-10 -7,-7 -11,-15 -11,-25l0 -199 -266 0 0 199c0,10 -4,19 -11,25 -7,7 -16,10 -26,10l-72 0c-10,0 -19,-4 -26,-11 -8,-7 -11,-16 -11,-26zm669 -1l0 -482c0,-10 4,-19 11,-26 7,-7 16,-10 26,-10l446 0c10,0 19,4 26,11 7,7 11,16 11,26l0 36c0,10 -4,19 -11,26 -7,7 -16,11 -26,11l-337 0 0 113 290 0c10,0 19,4 26,11 7,7 11,16 11,26l0 36c0,10 -4,19 -11,26 -7,7 -16,11 -26,11l-290 0 0 114 336 0c10,0 19,3 25,10 7,7 10,15 10,26l0 37c0,10 -4,19 -11,26 -7,7 -16,11 -26,11l-444 0c-10,0 -19,-4 -26,-11 -7,-7 -11,-16 -11,-26zm543 -445l0 -36c0,-11 3,-19 10,-26 7,-7 16,-10 26,-10l491 0c11,0 19,3 26,10 7,7 10,16 10,26l0 36c0,11 -3,19 -10,26 -7,7 -16,10 -26,10l-173 0 0 410c0,10 -4,19 -11,25 -7,7 -16,10 -26,10l-73 0c-10,0 -19,-3 -26,-10 -7,-7 -11,-15 -11,-25l0 -410 -173 0c-11,0 -19,-3 -26,-10 -7,-7 -10,-15 -10,-26z"/>
 </g>
</svg>
