<?xml version="1.0" encoding="UTF-8"?>
<!DOCTYPE svg PUBLIC "-//W3C//DTD SVG 1.1//EN" "http://www.w3.org/Graphics/SVG/1.1/DTD/svg11.dtd">
<!-- Creator: CorelDRAW X6 -->
<svg xmlns="http://www.w3.org/2000/svg" xml:space="preserve" width="33.9377mm" height="34.0492mm" version="1.1" style="shape-rendering:geometricPrecision; text-rendering:geometricPrecision; image-rendering:optimizeQuality; fill-rule:evenodd; clip-rule:evenodd"
viewBox="0 0 3394 3405"
 xmlns:xlink="http://www.w3.org/1999/xlink">
 <defs>
  <style type="text/css">
   <![CDATA[
    .fil0 {fill:#382246}
    .fil2 {fill:#EEEFEA}
    .fil1 {fill:#382246;fill-rule:nonzero}
    .fil3 {fill:#EEEFEA;fill-rule:nonzero}
   ]]>
  </style>
 </defs>
 <g id="Слой_x0020_1">
  <metadata id="CorelCorpID_0Corel-Layer"/>
  <g id="_782795728">
   <g>
    <path class="fil0" d="M1699 406c714,0 1292,578 1292,1292 0,714 -578,1292 -1292,1292 -714,0 -1292,-578 -1292,-1292 0,-714 578,-1292 1292,-1292z"/>
    <path id="_1" class="fil1" d="M3050 1698l-118 0 0 0 -2 -63 -5 -63 -8 -62 -11 -61 -14 -60 -17 -58 -19 -57 -22 -56 -25 -55 -27 -53 -30 -52 -32 -50 -34 -48 -37 -47 -39 -45 -41 -43 -43 -41 -45 -39 -47 -36 -48 -34 -50 -32 -52 -30 -53 -27 -55 -25 -56 -22 -57 -19 -58 -17 -60 -14 -61 -11 -62 -8 -63 -5 -63 -2 0 -118 69 2 68 5 67 9 66 12 65 15 64 18 63 21 61 24 60 27 58 30 57 32 55 35 53 38 51 40 49 43 47 45 45 47 43 49 40 51 38 53 35 55 32 57 30 58 27 60 24 61 21 63 18 64 15 65 12 66 9 67 5 68 2 69 0 0 1 1zm-1351 1351l0 -118 0 0 63 -2 63 -5 62 -8 61 -11 60 -14 58 -17 57 -19 56 -22 55 -25 53 -27 52 -30 50 -32 48 -34 47 -36 45 -39 43 -41 41 -43 39 -45 36 -47 34 -48 32 -50 30 -52 27 -53 25 -55 22 -56 19 -57 17 -58 14 -60 11 -61 8 -62 5 -63 2 -63 118 0 -2 69 -5 68 -9 67 -12 66 -15 65 -18 64 -21 63 -24 61 -27 60 -30 58 -32 57 -35 55 -38 53 -40 51 -43 49 -45 47 -47 45 -49 43 -51 40 -53 38 -55 35 -57 32 -58 30 -60 27 -61 24 -63 21 -64 18 -65 15 -66 12 -67 9 -68 5 -69 2 0 0 -1 1zm-1351 -1351l118 0 0 0 2 63 5 63 8 62 11 61 14 60 17 58 19 57 22 56 25 55 27 53 30 52 32 50 34 48 37 47 39 45 41 43 43 41 45 39 47 36 48 34 50 32 52 30 53 27 55 25 56 22 57 19 58 17 60 14 61 11 62 8 63 5 63 2 0 118 -69 -2 -68 -5 -67 -9 -66 -12 -65 -15 -64 -18 -63 -21 -61 -24 -60 -27 -58 -30 -57 -32 -55 -35 -53 -38 -51 -40 -49 -43 -47 -45 -45 -47 -43 -49 -40 -51 -38 -53 -35 -55 -32 -57 -30 -58 -27 -60 -24 -61 -21 -63 -18 -64 -15 -65 -12 -66 -9 -67 -5 -68 -2 -69 0 0 -1 -1zm1351 -1351l0 118 0 0 -63 2 -63 5 -62 8 -61 11 -60 14 -58 17 -57 19 -56 22 -55 25 -53 27 -52 30 -50 32 -48 34 -47 36 -45 39 -43 41 -41 43 -39 45 -37 47 -34 48 -32 50 -30 52 -27 53 -25 55 -22 56 -19 57 -17 58 -14 60 -11 61 -8 62 -5 63 -2 63 -118 0 2 -69 5 -68 9 -67 12 -66 15 -65 18 -64 21 -63 24 -61 27 -60 30 -58 32 -57 35 -55 38 -53 40 -51 43 -49 45 -47 47 -45 49 -43 51 -40 53 -38 55 -35 57 -32 58 -30 60 -27 61 -24 63 -21 64 -18 65 -15 66 -12 67 -9 68 -5 69 -2 0 0 1 -1z"/>
   </g>
   <g>
    <polygon class="fil1" points="1658,655 1658,0 1740,0 1740,655 "/>
   </g>
   <g>
    <polygon class="fil1" points="1657,3405 1657,2750 1740,2750 1740,3405 "/>
   </g>
   <g>
    <polygon class="fil1" points="655,1733 0,1734 0,1651 655,1651 "/>
   </g>
   <g>
    <polygon class="fil1" points="3394,1734 2739,1734 2739,1652 3394,1651 "/>
   </g>
   <path class="fil2" d="M1699 1222c-27,-1 -51,1 -108,7l-66 -93 37 -58c-32,20 -51,42 -73,73 23,45 37,62 73,97 -13,34 -17,29 -30,58 -14,30 -15,49 -24,67l-181 -9c-31,-52 -61,-109 -99,-165 -48,-71 -29,-94 5,-192 75,-217 125,-248 168,-349 -108,87 -243,322 -280,536l63 -18 90 181c35,71 19,52 200,75 94,12 62,8 126,55l-86 13 -26 78c-126,-50 -119,-150 -253,-91 -88,39 -180,75 -267,112 -17,-24 -29,-56 -52,-79 -134,251 -196,603 -165,898 54,-283 39,-394 172,-702 44,-101 94,-84 258,-141 56,-20 99,-49 145,-16 33,24 85,63 108,97 -275,110 -174,-123 -388,362l-81 -22c80,267 237,575 390,673l-43 -70c-89,-134 -187,-325 -233,-490 -20,-71 14,-101 41,-152 122,-225 82,-192 199,-201 60,-5 107,-14 169,-15 5,184 77,442 165,545 29,-40 9,-30 42,-46l4 4 0 0 4 -4c33,16 13,7 42,46 89,-103 161,-360 165,-545 62,1 109,10 169,15 117,9 77,-24 199,201 27,50 61,80 41,152 -46,165 -144,355 -233,490l-43 70c153,-97 311,-406 390,-673l-81 22c-214,-485 -112,-251 -388,-362 23,-34 76,-73 108,-97 46,-34 89,-4 145,16 165,57 215,40 258,141 133,309 118,420 172,702 31,-295 -30,-647 -165,-898 -23,23 -35,55 -52,79 -87,-37 -179,-72 -267,-112 -134,-59 -127,40 -253,91l-26 -78 -86 -13c64,-48 32,-43 126,-55 180,-23 164,-4 200,-75l90 -181 63 18c-37,-214 -172,-449 -280,-536 44,101 94,131 168,349 33,97 53,121 5,192 -38,56 -68,114 -99,165l-181 9c-9,-18 -11,-37 -24,-67 -13,-28 -17,-23 -29,-58 36,-35 50,-53 73,-97 -23,-31 -41,-54 -73,-73l37 58 -66 93c-58,-6 -81,-8 -108,-7l0 0 -1 0z"/>
   <g>
    <polygon class="fil3" points="1658,655 1658,349 1740,349 1740,655 "/>
   </g>
   <g>
    <polygon class="fil3" points="3394,1734 2739,1734 2739,1652 3394,1651 "/>
   </g>
   <g>
    <polygon class="fil3" points="1657,3045 1657,2750 1740,2750 1740,3045 "/>
   </g>
   <g>
    <polygon class="fil3" points="655,1733 349,1734 349,1651 655,1651 "/>
   </g>
   <g>
    <polygon class="fil1" points="3394,1734 3049,1734 3049,1652 3394,1652 "/>
   </g>
  </g>
 </g>
</svg>
